<?xml version="1.0" standalone="no"?>
<svg xmlns:xlink="http://www.w3.org/1999/xlink" id="wave" style="transform:rotate(180deg); transition: 0.3s" viewBox="0 0 1440 490" version="1.1" xmlns="http://www.w3.org/2000/svg"><defs><linearGradient id="sw-gradient-0" x1="0" x2="0" y1="1" y2="0"><stop stop-color="rgba(120, 189, 213, 1)" offset="0%"/><stop stop-color="rgba(120, 189, 213, 1)" offset="100%"/></linearGradient></defs><path style="transform:translate(0, 0px); opacity:1" fill="url(#sw-gradient-0)" d="M0,49L26.7,49C53.3,49,107,49,160,57.2C213.3,65,267,82,320,81.7C373.3,82,427,65,480,65.3C533.3,65,587,82,640,98C693.3,114,747,131,800,122.5C853.3,114,907,82,960,57.2C1013.3,33,1067,16,1120,16.3C1173.3,16,1227,33,1280,89.8C1333.3,147,1387,245,1440,302.2C1493.3,359,1547,376,1600,383.8C1653.3,392,1707,392,1760,343C1813.3,294,1867,196,1920,155.2C1973.3,114,2027,131,2080,147C2133.3,163,2187,180,2240,155.2C2293.3,131,2347,65,2400,106.2C2453.3,147,2507,294,2560,359.3C2613.3,425,2667,408,2720,400.2C2773.3,392,2827,392,2880,367.5C2933.3,343,2987,294,3040,253.2C3093.3,212,3147,180,3200,212.3C3253.3,245,3307,343,3360,334.8C3413.3,327,3467,212,3520,212.3C3573.3,212,3627,327,3680,326.7C3733.3,327,3787,212,3813,155.2L3840,98L3840,490L3813.3,490C3786.7,490,3733,490,3680,490C3626.7,490,3573,490,3520,490C3466.7,490,3413,490,3360,490C3306.7,490,3253,490,3200,490C3146.7,490,3093,490,3040,490C2986.7,490,2933,490,2880,490C2826.7,490,2773,490,2720,490C2666.7,490,2613,490,2560,490C2506.7,490,2453,490,2400,490C2346.7,490,2293,490,2240,490C2186.7,490,2133,490,2080,490C2026.7,490,1973,490,1920,490C1866.7,490,1813,490,1760,490C1706.7,490,1653,490,1600,490C1546.7,490,1493,490,1440,490C1386.7,490,1333,490,1280,490C1226.7,490,1173,490,1120,490C1066.7,490,1013,490,960,490C906.7,490,853,490,800,490C746.7,490,693,490,640,490C586.7,490,533,490,480,490C426.7,490,373,490,320,490C266.7,490,213,490,160,490C106.7,490,53,490,27,490L0,490Z"/></svg>