<!--?xml version="1.0" standalone="no"?-->
              <svg id="sw-js-blob-svg" viewBox="0 0 100 100" xmlns="http://www.w3.org/2000/svg" version="1.1">
                    <defs> 
                        <linearGradient id="sw-gradient" x1="0" x2="1" y1="1" y2="0">
                            <stop id="stop1" stop-color="rgba(235, 250, 255, 1)" offset="0%"></stop>
                            <stop id="stop2" stop-color="rgba(235, 250, 255, 1)" offset="100%"></stop>
                        </linearGradient>
                    </defs>
                <path fill="url(#sw-gradient)" d="M20.9,-31.8C27.4,-28.4,33.1,-23.1,37.7,-16.3C42.2,-9.5,45.6,-1.2,44.2,6.1C42.7,13.4,36.4,19.7,30.3,25.8C24.3,31.8,18.5,37.6,11.6,39.9C4.6,42.1,-3.5,40.8,-11.3,38.5C-19.1,36.1,-26.5,32.8,-32.6,27.4C-38.6,21.9,-43.3,14.4,-44.8,6.2C-46.3,-1.9,-44.6,-10.8,-40.7,-18.2C-36.7,-25.7,-30.6,-31.9,-23.4,-34.9C-16.3,-38,-8.1,-38.1,-0.5,-37.4C7.2,-36.6,14.5,-35.2,20.9,-31.8Z" width="100%" height="100%" transform="translate(50 50)" stroke-width="0" style="transition: all 0.3s ease 0s;"></path>
              </svg>