<!--?xml version="1.0" standalone="no"?-->
              <svg id="sw-js-blob-svg" viewBox="0 0 100 100" xmlns="http://www.w3.org/2000/svg" version="1.1">
                    <defs> 
                        <linearGradient id="sw-gradient" x1="0" x2="1" y1="1" y2="0">
                            <stop id="stop1" stop-color="rgba(120, 189, 213, 1)" offset="0%"></stop>
                            <stop id="stop2" stop-color="rgba(235, 250, 255, 1)" offset="100%"></stop>
                        </linearGradient>
                    </defs>
                <path fill="url(#sw-gradient)" d="M21.6,-33.3C28,-29.5,33.1,-23.5,35.9,-16.6C38.7,-9.8,39.1,-2,38.7,6.1C38.4,14.2,37.3,22.8,32.6,28.5C28,34.2,19.9,37.1,12,38.3C4,39.6,-3.7,39.2,-11,37.2C-18.3,35.2,-25.2,31.5,-29.9,26C-34.6,20.5,-37.1,13.1,-39.3,5C-41.5,-3.1,-43.4,-11.9,-41,-19.3C-38.5,-26.7,-31.7,-32.7,-24.1,-36C-16.6,-39.2,-8.3,-39.8,-0.4,-39.2C7.6,-38.7,15.2,-37.1,21.6,-33.3Z" width="100%" height="100%" transform="translate(50 50)" stroke-width="0" style="transition: all 0.3s ease 0s;"></path>
              </svg>