<!--?xml version="1.0" standalone="no"?-->
              <svg id="sw-js-blob-svg" viewBox="0 0 100 100" xmlns="http://www.w3.org/2000/svg" version="1.1">
                    <defs> 
                        <linearGradient id="sw-gradient" x1="0" x2="1" y1="1" y2="0">
                            <stop id="stop1" stop-color="rgba(120, 189, 213, 1)" offset="0%"></stop>
                            <stop id="stop2" stop-color="rgba(235, 250, 255, 1)" offset="100%"></stop>
                        </linearGradient>
                    </defs>
                <path fill="url(#sw-gradient)" d="M23.5,-37.4C29.3,-32.8,32,-24.3,35.1,-16.4C38.2,-8.4,41.7,-0.9,42,7C42.3,14.9,39.4,23.2,33.8,28.8C28.2,34.4,20,37.2,11.7,39.4C3.5,41.6,-4.9,43.2,-12.4,41.4C-19.9,39.5,-26.6,34.2,-32,27.8C-37.3,21.4,-41.2,14,-42.7,5.9C-44.2,-2.1,-43.3,-10.8,-39.9,-18.2C-36.5,-25.7,-30.6,-32.1,-23.5,-36.1C-16.5,-40.1,-8.2,-41.7,0.3,-42.2C8.9,-42.7,17.7,-42,23.5,-37.4Z" width="100%" height="100%" transform="translate(50 50)" stroke-width="0" style="transition: all 0.3s ease 0s;"></path>
              </svg>