<!--?xml version="1.0" standalone="no"?-->
              <svg id="sw-js-blob-svg" viewBox="0 0 100 100" xmlns="http://www.w3.org/2000/svg" version="1.1">
                    <defs> 
                        <linearGradient id="sw-gradient" x1="0" x2="1" y1="1" y2="0">
                            <stop id="stop1" stop-color="rgba(120, 189, 213, 1)" offset="0%"></stop>
                            <stop id="stop2" stop-color="rgba(235, 250, 255, 1)" offset="100%"></stop>
                        </linearGradient>
                    </defs>
                <path fill="url(#sw-gradient)" d="M23.9,-37.6C30.6,-32.8,35.7,-25.7,38,-18.1C40.4,-10.5,40.1,-2.4,38.5,5.2C36.8,12.7,33.8,19.7,29.4,26.4C25,33,19.2,39.3,11.8,42.4C4.5,45.5,-4.4,45.4,-11.9,42.4C-19.4,39.3,-25.5,33.4,-29.5,26.7C-33.5,20,-35.5,12.7,-37.5,4.8C-39.5,-3.1,-41.6,-11.5,-39.2,-18.4C-36.8,-25.3,-30,-30.7,-22.8,-35.4C-15.5,-40,-7.7,-43.8,0.4,-44.5C8.5,-45.1,17.1,-42.5,23.9,-37.6Z" width="100%" height="100%" transform="translate(50 50)" stroke-width="0" style="transition: all 0.3s ease 0s;"></path>
              </svg>