<!--?xml version="1.0" standalone="no"?-->
              <svg id="sw-js-blob-svg" viewBox="0 0 100 100" xmlns="http://www.w3.org/2000/svg" version="1.1">
                    <defs> 
                        <linearGradient id="sw-gradient" x1="0" x2="1" y1="1" y2="0">
                            <stop id="stop1" stop-color="rgba(120, 189, 213, 1)" offset="0%"></stop>
                            <stop id="stop2" stop-color="rgba(120, 189, 213, 1)" offset="100%"></stop>
                        </linearGradient>
                    </defs>
                <path fill="url(#sw-gradient)" d="M20.5,-33.6C27.4,-31.6,34.4,-27.8,37.4,-21.8C40.5,-15.9,39.5,-8,39.3,-0.1C39.2,7.8,39.8,15.6,36.6,21.2C33.5,26.8,26.5,30.3,19.8,33.7C13,37,6.5,40.2,0.1,40.1C-6.4,40,-12.8,36.6,-18.6,32.7C-24.4,28.8,-29.6,24.5,-34,19C-38.4,13.4,-41.8,6.7,-41.5,0.2C-41.2,-6.3,-37,-12.7,-32.6,-18C-28.1,-23.4,-23.4,-27.9,-17.9,-30.7C-12.4,-33.5,-6.2,-34.7,0.3,-35.2C6.8,-35.7,13.6,-35.6,20.5,-33.6Z" width="100%" height="100%" transform="translate(50 50)" stroke-width="0" style="transition: all 0.3s ease 0s;"></path>
              </svg>