<!--?xml version="1.0" standalone="no"?-->
              <svg id="sw-js-blob-svg" viewBox="0 0 100 100" xmlns="http://www.w3.org/2000/svg" version="1.1">
                    <defs> 
                        <linearGradient id="sw-gradient" x1="0" x2="1" y1="1" y2="0">
                            <stop id="stop1" stop-color="rgba(235, 250, 255, 1)" offset="0%"></stop>
                            <stop id="stop2" stop-color="rgba(235, 250, 255, 1)" offset="100%"></stop>
                        </linearGradient>
                    </defs>
                <path fill="url(#sw-gradient)" d="M21.8,-35.5C27.5,-30.3,30.8,-22.9,33.6,-15.7C36.4,-8.4,38.6,-1.3,38.7,6.3C38.8,13.9,36.8,22,32.3,28.9C27.8,35.8,20.8,41.6,12.8,44.2C4.7,46.9,-4.4,46.5,-12,43.2C-19.5,39.9,-25.5,33.6,-31.1,27C-36.6,20.4,-41.8,13.6,-43.1,6C-44.4,-1.5,-41.9,-9.8,-38.6,-17.8C-35.2,-25.9,-31.1,-33.9,-24.5,-38.8C-17.9,-43.6,-9,-45.4,-0.5,-44.7C8.1,-44,16.1,-40.8,21.8,-35.5Z" width="100%" height="100%" transform="translate(50 50)" stroke-width="0" style="transition: all 0.3s ease 0s;"></path>
              </svg>