<!--?xml version="1.0" standalone="no"?-->
              <svg id="sw-js-blob-svg" viewBox="0 0 100 100" xmlns="http://www.w3.org/2000/svg" version="1.1">
                    <defs> 
                        <linearGradient id="sw-gradient" x1="0" x2="1" y1="1" y2="0">
                            <stop id="stop1" stop-color="rgba(120, 189, 213, 1)" offset="0%"></stop>
                            <stop id="stop2" stop-color="rgba(235, 250, 255, 1)" offset="100%"></stop>
                        </linearGradient>
                    </defs>
                <path fill="url(#sw-gradient)" d="M23.6,-36.9C30.4,-32.3,35.7,-25.5,38.4,-18C41.1,-10.5,41.2,-2.3,39.7,5.4C38.2,13.1,35,20.3,29.8,25.4C24.7,30.4,17.7,33.4,10.1,36.7C2.4,40.1,-5.8,43.9,-13,42.6C-20.3,41.3,-26.6,34.9,-31.6,28C-36.7,21.1,-40.4,13.7,-41.1,6.2C-41.7,-1.4,-39.2,-9.1,-35.5,-15.9C-31.9,-22.7,-27,-28.6,-20.9,-33.5C-14.8,-38.4,-7.4,-42.4,0.5,-43.2C8.4,-44,16.8,-41.6,23.6,-36.9Z" width="100%" height="100%" transform="translate(50 50)" stroke-width="0" style="transition: all 0.3s ease 0s;"></path>
              </svg>