<!--?xml version="1.0" standalone="no"?-->
              <svg id="sw-js-blob-svg" viewBox="0 0 100 100" xmlns="http://www.w3.org/2000/svg" version="1.1">
                    <defs> 
                        <linearGradient id="sw-gradient" x1="0" x2="1" y1="1" y2="0">
                            <stop id="stop1" stop-color="rgba(235, 250, 255, 1)" offset="0%"></stop>
                            <stop id="stop2" stop-color="rgba(235, 250, 255, 1)" offset="100%"></stop>
                        </linearGradient>
                    </defs>
                <path fill="url(#sw-gradient)" d="M21.5,-33.6C28.7,-28.9,35.8,-24.2,38.5,-17.8C41.1,-11.3,39.3,-3,38.2,5.5C37,14.1,36.6,22.7,32.6,29.4C28.6,36.1,21,40.8,12.8,42.7C4.7,44.6,-3.9,43.7,-11,40.3C-18.1,36.9,-23.5,31,-29.2,25C-34.8,19,-40.6,12.8,-42.7,5.5C-44.7,-1.8,-43,-10.3,-39.2,-17.6C-35.4,-24.8,-29.5,-30.8,-22.6,-35.7C-15.7,-40.6,-7.9,-44.4,-0.4,-43.9C7.2,-43.3,14.3,-38.4,21.5,-33.6Z" width="100%" height="100%" transform="translate(50 50)" stroke-width="0" style="transition: all 0.3s ease 0s;"></path>
              </svg>