<!--?xml version="1.0" standalone="no"?-->
              <svg id="sw-js-blob-svg" viewBox="0 0 100 100" xmlns="http://www.w3.org/2000/svg" version="1.1">
                    <defs> 
                        <linearGradient id="sw-gradient" x1="0" x2="1" y1="1" y2="0">
                            <stop id="stop1" stop-color="rgba(120, 189, 213, 1)" offset="0%"></stop>
                            <stop id="stop2" stop-color="rgba(235, 250, 255, 1)" offset="100%"></stop>
                        </linearGradient>
                    </defs>
                <path fill="url(#sw-gradient)" d="M23.9,-36.4C30.9,-32.6,36.5,-25.9,38.9,-18.4C41.4,-10.9,40.7,-2.6,39.7,5.8C38.7,14.2,37.3,22.7,32.5,27.9C27.6,33.2,19.3,35.1,11,37.7C2.7,40.3,-5.5,43.6,-12.3,41.7C-19.1,39.8,-24.4,32.8,-30.1,26.1C-35.7,19.5,-41.7,13.2,-44.2,5.5C-46.8,-2.2,-45.8,-11.4,-41.5,-18.3C-37.3,-25.2,-29.8,-29.9,-22.3,-33.5C-14.8,-37.2,-7.4,-39.7,0.5,-40.5C8.4,-41.2,16.8,-40.3,23.9,-36.4Z" width="100%" height="100%" transform="translate(50 50)" stroke-width="0" style="transition: all 0.3s ease 0s;"></path>
              </svg>