<!--?xml version="1.0" standalone="no"?-->
              <svg id="sw-js-blob-svg" viewBox="0 0 100 100" xmlns="http://www.w3.org/2000/svg" version="1.1">
                    <defs> 
                        <linearGradient id="sw-gradient" x1="0" x2="1" y1="1" y2="0">
                            <stop id="stop1" stop-color="rgba(235, 250, 255, 1)" offset="0%"></stop>
                            <stop id="stop2" stop-color="rgba(235, 250, 255, 1)" offset="100%"></stop>
                        </linearGradient>
                    </defs>
                <path fill="url(#sw-gradient)" d="M24.7,-37.2C31.7,-34,36.9,-26.6,40,-18.6C43.1,-10.6,44.1,-2.1,41.8,5.2C39.5,12.5,33.9,18.5,28.4,24.3C22.9,30,17.5,35.4,10.4,39.2C3.4,42.9,-5.2,45,-13.2,43.4C-21.3,41.8,-28.7,36.6,-34.5,29.9C-40.4,23.2,-44.6,15.1,-45,7C-45.4,-1.2,-42,-9.4,-37.4,-16.2C-32.9,-22.9,-27.2,-28.3,-20.8,-31.8C-14.4,-35.3,-7.2,-37,0.8,-38.3C8.9,-39.6,17.7,-40.4,24.7,-37.2Z" width="100%" height="100%" transform="translate(50 50)" stroke-width="0" style="transition: all 0.3s ease 0s;"></path>
              </svg>