<!--?xml version="1.0" standalone="no"?-->
              <svg id="sw-js-blob-svg" viewBox="0 0 100 100" xmlns="http://www.w3.org/2000/svg" version="1.1">
                    <defs> 
                        <linearGradient id="sw-gradient" x1="0" x2="1" y1="1" y2="0">
                            <stop id="stop1" stop-color="rgba(120, 189, 213, 1)" offset="0%"></stop>
                            <stop id="stop2" stop-color="rgba(120, 189, 213, 1)" offset="100%"></stop>
                        </linearGradient>
                    </defs>
                <path fill="url(#sw-gradient)" d="M19.7,-35.9C25.1,-31.1,28.5,-24.8,31.7,-18.5C34.9,-12.3,38,-6.1,39.7,1C41.3,8,41.5,16.1,38.1,22C34.7,27.9,27.6,31.7,20.6,34.4C13.7,37,6.8,38.5,-0.7,39.7C-8.2,40.9,-16.5,41.8,-21.4,38C-26.4,34.3,-28.2,25.8,-31.3,18.6C-34.5,11.5,-39.1,5.8,-40.7,-0.9C-42.2,-7.6,-40.8,-15.1,-37.2,-21.5C-33.6,-28,-27.9,-33.2,-21.4,-37.3C-14.8,-41.3,-7.4,-44.1,-0.1,-43.9C7.2,-43.7,14.4,-40.6,19.7,-35.9Z" width="100%" height="100%" transform="translate(50 50)" stroke-width="0" style="transition: all 0.3s ease 0s;"></path>
              </svg>