<!--?xml version="1.0" standalone="no"?-->
              <svg id="sw-js-blob-svg" viewBox="0 0 100 100" xmlns="http://www.w3.org/2000/svg" version="1.1">
                    <defs> 
                        <linearGradient id="sw-gradient" x1="0" x2="1" y1="1" y2="0">
                            <stop id="stop1" stop-color="rgba(120, 189, 213, 1)" offset="0%"></stop>
                            <stop id="stop2" stop-color="rgba(120, 189, 213, 1)" offset="100%"></stop>
                        </linearGradient>
                    </defs>
                <path fill="url(#sw-gradient)" d="M21.2,-35.2C28,-32.8,34.4,-28.2,36.4,-21.9C38.3,-15.7,35.8,-7.9,34.6,-0.7C33.4,6.4,33.4,12.9,31.4,19C29.4,25.2,25.3,31,19.8,35.4C14.2,39.8,7.1,42.9,0.6,41.7C-5.8,40.6,-11.6,35.4,-17.9,31.4C-24.3,27.4,-31.2,24.7,-34.4,19.7C-37.5,14.7,-36.8,7.3,-36.6,0.1C-36.4,-7.1,-36.7,-14.2,-33.7,-19.5C-30.8,-24.8,-24.6,-28.3,-18.4,-31C-12.2,-33.8,-6.1,-35.7,0.5,-36.6C7.2,-37.6,14.4,-37.5,21.2,-35.2Z" width="100%" height="100%" transform="translate(50 50)" stroke-width="0" style="transition: all 0.3s ease 0s;"></path>
              </svg>