<!--?xml version="1.0" standalone="no"?-->
              <svg id="sw-js-blob-svg" viewBox="0 0 100 100" xmlns="http://www.w3.org/2000/svg" version="1.1">
                    <defs> 
                        <linearGradient id="sw-gradient" x1="0" x2="1" y1="1" y2="0">
                            <stop id="stop1" stop-color="rgba(120, 189, 213, 1)" offset="0%"></stop>
                            <stop id="stop2" stop-color="rgba(120, 189, 213, 1)" offset="100%"></stop>
                        </linearGradient>
                    </defs>
                <path fill="url(#sw-gradient)" d="M20,-35C26.7,-30.7,33.3,-26.9,37.6,-21.2C41.8,-15.4,43.6,-7.7,42.4,-0.7C41.2,6.3,37.1,12.7,33.5,19.5C29.9,26.4,26.8,33.8,21.3,38.4C15.8,43.1,7.9,45.1,-0.1,45.3C-8.2,45.6,-16.4,44.1,-23.4,40.3C-30.4,36.5,-36.3,30.4,-39.6,23.3C-42.9,16.2,-43.8,8.1,-42.7,0.6C-41.6,-6.9,-38.6,-13.7,-34.2,-18.9C-29.7,-24.1,-23.9,-27.6,-17.9,-32.3C-12,-36.9,-6,-42.7,0.3,-43.2C6.7,-43.8,13.3,-39.2,20,-35Z" width="100%" height="100%" transform="translate(50 50)" stroke-width="0" style="transition: all 0.3s ease 0s;"></path>
              </svg>