<!--?xml version="1.0" standalone="no"?-->
              <svg id="sw-js-blob-svg" viewBox="0 0 100 100" xmlns="http://www.w3.org/2000/svg" version="1.1">
                    <defs> 
                        <linearGradient id="sw-gradient" x1="0" x2="1" y1="1" y2="0">
                            <stop id="stop1" stop-color="rgba(120, 189, 213, 1)" offset="0%"></stop>
                            <stop id="stop2" stop-color="rgba(120, 189, 213, 1)" offset="100%"></stop>
                        </linearGradient>
                    </defs>
                <path fill="url(#sw-gradient)" d="M19.6,-33.9C24.9,-31,28.4,-24.7,31.8,-18.5C35.2,-12.2,38.6,-6.1,38.2,-0.2C37.9,5.7,33.8,11.4,29.9,16.8C26,22.1,22.2,27.1,17.3,31.7C12.3,36.3,6.2,40.5,0.2,40.2C-5.8,39.9,-11.6,35.1,-18.7,31.7C-25.7,28.3,-33.9,26.3,-37.9,21.3C-41.9,16.2,-41.6,8.1,-40.3,0.8C-39,-6.6,-36.5,-13.1,-32.5,-18.1C-28.5,-23,-22.8,-26.4,-17.1,-29.1C-11.5,-31.8,-5.7,-33.8,0.7,-35C7.2,-36.3,14.3,-36.8,19.6,-33.9Z" width="100%" height="100%" transform="translate(50 50)" stroke-width="0" style="transition: all 0.3s ease 0s;"></path>
              </svg>