<!--?xml version="1.0" standalone="no"?-->
              <svg id="sw-js-blob-svg" viewBox="0 0 100 100" xmlns="http://www.w3.org/2000/svg" version="1.1">
                    <defs> 
                        <linearGradient id="sw-gradient" x1="0" x2="1" y1="1" y2="0">
                            <stop id="stop1" stop-color="rgba(235, 250, 255, 1)" offset="0%"></stop>
                            <stop id="stop2" stop-color="rgba(235, 250, 255, 1)" offset="100%"></stop>
                        </linearGradient>
                    </defs>
                <path fill="url(#sw-gradient)" d="M24.3,-35.9C31.7,-33,38,-26.6,40.5,-19.1C43,-11.5,41.8,-2.8,40.2,5.6C38.7,14,36.8,22.1,32.2,28.6C27.6,35,20.4,39.8,12.3,42.2C4.3,44.6,-4.4,44.8,-11.7,41.8C-19,38.8,-24.9,32.7,-30.2,26.3C-35.5,19.9,-40.2,13.2,-42.1,5.6C-44,-2.1,-43,-10.6,-39.9,-18.6C-36.8,-26.5,-31.6,-33.8,-24.6,-36.9C-17.6,-40,-8.8,-38.8,-0.2,-38.5C8.5,-38.2,16.9,-38.8,24.3,-35.9Z" width="100%" height="100%" transform="translate(50 50)" stroke-width="0" style="transition: all 0.3s ease 0s;"></path>
              </svg>