<?xml version="1.0" encoding="utf-8"?>
<svg viewBox="0 0 500 500" xmlns="http://www.w3.org/2000/svg">
  <path d="M 217.254 460.353 L 217.254 463.26 L 177.748 463.26 L 177.728 459.22 L 177.587 426.82 L 193.306 426.82 L 193.306 447.073 L 212.346 453.5 C 214.916 454.38 216.748 456.593 217.163 459.22 C 217.224 459.593 217.254 459.967 217.254 460.353" style="fill:#192137;fill-opacity:1;fill-rule:nonzero;stroke:none" id="path1112"/>
  <path d="M 193.306 426.82 L 193.306 445.047 L 177.667 445.047 L 177.587 426.82 L 193.306 426.82" style="fill:#f4be0a;fill-opacity:1;fill-rule:nonzero;stroke:none" id="path1114"/>
  <path d="M 217.254 460.353 L 217.254 463.26 L 177.748 463.26 L 177.728 459.22 L 217.163 459.22 C 217.224 459.593 217.254 459.967 217.254 460.353" style="fill:#8459b3;fill-opacity:1;fill-rule:nonzero;stroke:none" id="path1116"/>
  <path d="M 108.379 460.993 L 108.379 463.913 L 147.886 463.913 L 147.906 459.86 L 148.047 427.473 L 132.328 427.473 L 132.328 447.713 L 113.288 454.153 C 110.718 455.02 108.886 457.247 108.471 459.86 C 108.41 460.233 108.379 460.62 108.379 460.993" style="fill:#1a2037;fill-opacity:1;fill-rule:nonzero;stroke:none" id="path1118"/>
  <path d="M 132.328 427.473 L 132.328 445.7 L 147.967 445.7 L 148.047 427.473 L 132.328 427.473" style="fill:#f4be0a;fill-opacity:1;fill-rule:nonzero;stroke:none" id="path1120"/>
  <path d="M 108.379 460.993 L 108.379 463.913 L 147.886 463.913 L 147.906 459.86 L 108.471 459.86 C 108.41 460.233 108.379 460.62 108.379 460.993" style="fill:#8459b3;fill-opacity:1;fill-rule:nonzero;stroke:none" id="path1122"/>
  <path d="M 206.72 347.674 C 205.342 316.38 203.366 285.02 197.668 254.234 C 196.102 245.794 195.543 234.981 192.851 225.807 C 191.606 221.554 189.899 217.647 187.431 214.514 C 184.396 210.647 176.618 211.927 172.412 211.981 C 171.534 211.994 170.855 211.634 170.004 211.567 C 168.095 211.394 166.194 210.901 164.278 210.767 C 162.346 210.634 160.246 211.167 158.35 210.647 C 156.93 210.261 155.479 209.967 154.008 210.007 C 153.082 210.047 152.286 209.674 151.386 209.594 C 150.572 209.501 149.7 209.621 148.887 209.621 C 148.038 209.621 147.291 209.381 146.464 209.247 C 145.458 209.087 144.451 209.314 143.444 209.127 C 140.051 208.501 136.442 208.821 132.983 208.821 L 122.938 208.821 C 121.324 208.821 119.718 208.847 118.111 208.807 C 101.046 208.501 106.708 240.567 107.172 250.447 C 108.19 272.074 109.375 293.687 110.728 315.3 C 111.892 337.42 116.66 355.807 118.399 377.887 C 119.27 388.94 120.928 403.713 121.886 414.753 C 122.382 420.473 123.638 426.193 124.156 431.927 C 125.022 437.327 124.31 444.847 130.471 447.3 C 135.294 449.22 141.592 448.113 148.282 447.327 C 150.05 447.113 151.372 445.607 151.331 443.82 C 150.971 428.153 152.69 410.58 152.542 395.087 C 152.352 375.22 152.163 355.34 151.974 335.474 C 151.806 317.807 151.636 300.154 151.468 282.487 C 151.419 277.287 148.88 265.007 151.256 260.207 L 155.184 252.261 C 158.467 273.487 161.75 294.727 165.031 315.954 C 170.891 353.86 170.863 391.754 173.638 430.033 C 174.034 435.5 175.708 446.82 175.708 446.82 C 180.662 449.407 194.775 446.487 199.538 444.447 C 201.246 439.473 200.846 428.553 201.218 424.993 C 201.975 417.753 202.62 410.5 203.242 403.233 C 204.536 388.114 205.659 372.98 207.235 357.887 C 207.048 354.5 206.87 351.1 206.72 347.674" style="fill-opacity: 1; fill-rule: nonzero; stroke: none; fill: rgb(121, 30, 119);" id="path1124"/>
  <path d="M 158.043 71.154 C 156.92 67.429 155.075 64.202 151.143 64.034 C 147.618 63.882 145.924 66.884 142.419 67.285 C 139.895 67.574 135.718 67.594 133.336 68.473 C 129.684 69.821 128.187 72.606 127.53 76.402 C 126.746 80.926 126.504 85.542 126.811 90.124 C 126.976 92.581 127.463 95.318 129.487 96.758 C 132.014 98.556 135.727 97.325 137.864 95.089 C 138.696 94.22 139.386 93.212 139.846 92.104 C 140.372 90.838 140.595 89.469 141.067 88.184 C 141.959 85.752 143.926 83.574 146.483 83.024 C 149.776 82.316 155.384 86.241 157.69 83.708 C 160.307 80.833 159.092 74.638 158.043 71.154" style="fill:#192137;fill-opacity:1;fill-rule:nonzero;stroke:none" id="path1128"/>
  <path d="M 148.786 103.696 C 147.967 103.122 146.932 102.814 145.734 102.981 C 140.724 103.677 135.736 104.464 130.722 105.005 L 130.722 83.438 C 130.722 76.55 136.426 70.901 143.399 70.901 L 143.414 70.901 C 150.387 70.901 156.106 76.55 156.106 83.438 L 156.106 95.401 C 155.996 97.286 155.046 101.692 148.786 103.696" style="fill:#f4be0a;fill-opacity:1;fill-rule:nonzero;stroke:none" id="path1130"/>
  <path d="M 130.542 104.458 L 130.542 115.049 C 130.542 120.974 135.344 125.769 141.262 125.769 L 141.39 125.769 C 147.315 125.769 152.11 120.974 152.11 115.049 L 152.11 93.738 L 141.262 93.738 C 135.344 93.738 130.542 98.542 130.542 104.458" style="fill:#f4be0a;fill-opacity:1;fill-rule:nonzero;stroke:none" id="path1132"/>
  <path d="M 143.416 104.653 L 152.11 109.706 L 152.11 102.134 C 150.23 103.401 147.46 104.386 143.416 104.653" style="fill:#192137;fill-opacity:1;fill-rule:nonzero;stroke:none" id="path1134"/>
  <path d="M 136.958 92.1 C 134.627 93.429 131.647 92.64 130.3 90.337 C 128.955 88.034 129.754 85.09 132.084 83.761 C 134.415 82.432 137.396 83.221 138.742 85.524 C 140.087 87.826 139.288 90.77 136.958 92.1" style="fill:#192137;fill-opacity:1;fill-rule:nonzero;stroke:none" id="path1136"/>
  <path d="M 156.106 76.95 L 157.512 76.076 C 150.719 76.666 144.298 77.212 142.416 76.946 C 141.535 84.941 137.863 84.676 134.01 85.87 C 130.427 86.962 126.723 85.31 127.44 80.856 C 127.843 78.304 129.77 74.793 131.8 73.2 C 135.16 70.56 139.191 68.657 143.462 68.185 C 147.718 67.728 152.227 68.789 155.526 71.504 C 156.886 72.61 156.674 75.313 156.106 76.95" style="fill:#192137;fill-opacity:1;fill-rule:nonzero;stroke:none" id="path1138"/>
  <path d="M 146.088 87.488 L 146.111 87.488 C 146.606 87.488 147.01 87.082 147.01 86.589 C 147.01 86.094 146.606 85.689 146.111 85.689 L 146.088 85.689 C 145.594 85.689 145.19 86.094 145.19 86.589 C 145.19 87.082 145.594 87.488 146.088 87.488" style="fill:#192137;fill-opacity:1;fill-rule:nonzero;stroke:none" id="path1140"/>
  <path d="M 151.706 91.129 L 150.071 91.129 L 150.071 90.449 L 151.027 90.449 L 151.027 85.465 L 151.706 85.465 L 151.706 91.129" style="fill:#192137;fill-opacity:1;fill-rule:nonzero;stroke:none" id="path1144"/>
  <path d="M 154.439 87.488 L 154.462 87.488 C 154.955 87.488 155.36 87.082 155.36 86.589 C 155.36 86.094 154.955 85.689 154.462 85.689 L 154.439 85.689 C 153.944 85.689 153.54 86.094 153.54 86.589 C 153.54 87.082 153.944 87.488 154.439 87.488" style="fill:#192137;fill-opacity:1;fill-rule:nonzero;stroke:none" id="path1146"/>
  <path d="M 132.607 97.732 L 132.555 97.732 C 130.208 97.732 128.288 95.812 128.288 93.465 L 128.288 91.008 C 128.288 88.661 130.208 86.741 132.555 86.741 L 132.607 86.741 C 134.954 86.741 136.874 88.661 136.874 91.008 L 136.874 93.465 C 136.874 95.812 134.954 97.732 132.607 97.732" style="fill:#192137;fill-opacity:1;fill-rule:nonzero;stroke:none" id="path1148"/>
  <path d="M 138.096 91.678 C 135.766 93.008 132.786 92.22 131.439 89.917 C 130.094 87.614 130.892 84.67 133.223 83.34 C 135.554 82.01 138.535 82.8 139.88 85.102 C 141.227 87.405 140.428 90.349 138.096 91.678" style="fill:#f4be0a;fill-opacity:1;fill-rule:nonzero;stroke:none" id="path1150"/>
  <path d="M 142.419 76.95 L 142.419 81.424 C 142.419 82.936 141.178 84.162 139.646 84.162 C 138.115 84.162 136.874 82.936 136.874 81.424 L 136.874 77.137 L 142.419 76.95" style="fill:#192137;fill-opacity:1;fill-rule:nonzero;stroke:none" id="path1152"/>
  <path d="M 130.064 131.141 L 127.611 114.368 L 128.404 114.268 L 130.67 129.752 L 145.706 118.77 L 160.495 127.512 L 159.172 113.885 L 159.97 113.818 L 161.439 128.953 L 145.754 119.682 L 130.064 131.141" style="fill:#fafdfe;fill-opacity:1;fill-rule:nonzero;stroke:none" id="path1156"/>
  <path d="M 13.778 292.016 C 17.493 290.963 20.669 289.523 23.222 287.736 C 23.302 287.683 23.469 287.683 23.614 287.736 C 23.8 287.816 23.869 287.936 23.77 288.003 C 21.112 289.87 19.241 290.923 15.338 292.003 C 15.309 292.003 14.881 292.136 14.47 292.256 C 14.032 292.376 13.957 292.723 14.304 293.043 C 14.501 293.216 14.704 293.403 14.91 293.59 C 15.284 293.91 15.989 294.083 16.448 293.95 L 17.216 293.736 C 20.816 292.75 23.529 291.176 26.221 289.59 C 26.305 289.536 26.464 289.536 26.604 289.59 C 26.789 289.656 26.857 289.79 26.76 289.856 C 24.1 291.71 20.773 293.203 16.862 294.283 C 16.393 294.403 16.352 294.776 16.78 295.096 L 17.061 295.31 C 17.604 295.71 18.488 295.896 19.073 295.736 L 19.912 295.496 C 23.489 294.51 26.181 292.95 28.849 291.363 C 28.932 291.31 29.09 291.31 29.23 291.363 C 29.416 291.443 29.485 291.563 29.388 291.643 C 26.728 293.496 23.401 294.976 19.498 296.056 L 19.448 296.07 C 18.95 296.203 18.953 296.616 19.461 296.936 L 19.54 296.99 C 19.805 297.15 20.093 297.323 20.434 297.403 C 20.929 297.536 21.389 297.456 21.788 297.376 C 30.636 295.483 36.088 291.07 39.844 286.243 C 44.95 279.683 52.598 272.096 55.054 264.07 C 55.38 263.003 55.618 261.87 55.404 260.776 C 55.189 259.683 54.429 258.63 53.345 258.376 C 52.474 258.163 51.564 258.483 50.772 258.896 C 48.289 260.19 46.45 262.443 44.209 264.123 C 41.974 265.803 39.369 266.896 36.976 268.336 C 32.058 271.31 29.446 277.056 25.633 281.243 C 22.622 284.55 18.956 287.643 13.812 289.856 C 13.145 290.136 12.409 290.47 12.533 291.03 C 12.59 291.296 12.83 291.563 13.078 291.83 C 13.374 291.91 13.481 291.936 13.778 292.016" style="fill:#f4be0a;fill-opacity:1;fill-rule:nonzero;stroke:none" id="path1454"/>
  <path d="M 136.172 138.368 C 143.985 112.222 110.266 132.235 102.812 141.102 C 90.046 156.288 81.533 173.368 70.991 190.021 C 60.686 206.301 47.414 220.515 37.487 237.048 C 32.769 244.915 16.102 272.234 36.417 272.394 C 41.181 272.434 45.845 268.141 49.082 265.141 C 57.971 256.915 65.759 247.648 72.567 237.648 C 79.163 227.941 84.885 217.421 92.785 208.635 C 101.541 198.901 111.513 188.955 119.282 177.928 C 127.958 165.621 131.958 152.461 136.172 138.368" style="fill-opacity: 1; fill-rule: nonzero; stroke: none; fill: rgb(246, 255, 152);" id="path1456" transform="matrix(0.992115, -0.125333, 0.125332, 0.992115, -24.28187, 11.840059)"/>
  <path d="M 270.02 267.929 C 269.606 267.275 269.18 266.622 268.753 265.982 C 268.7 265.902 268.686 265.755 268.74 265.609 C 269.1 264.542 264.766 260.302 264.046 259.529 C 262.14 257.489 260.033 255.635 257.86 253.915 C 253.993 250.849 249.38 247.035 244.793 245.195 C 243.686 244.742 242.393 244.449 241.313 244.982 C 240.367 245.449 239.78 246.489 239.647 247.542 C 239.513 248.582 239.753 249.649 240.087 250.662 C 241.633 255.262 244.966 258.875 247.873 262.649 C 250.513 266.075 252.593 269.409 255.98 272.209 C 257.153 273.182 258.42 274.115 259.766 275.155 C 259.886 275.249 260.033 275.355 260.193 275.342 C 260.633 275.342 260.633 274.662 260.46 274.262 C 259.833 272.889 258.846 271.729 258.1 270.435 C 257.86 270.022 257.62 269.382 257.366 268.595 C 257.846 268.969 258.34 269.342 258.82 269.742 C 262.273 272.569 265.553 276.062 268.033 281.089 C 268.353 281.729 268.726 282.449 269.286 282.302 C 269.54 282.222 269.793 281.969 270.046 281.715 C 270.113 281.409 270.14 281.302 270.193 281.009 C 268.953 277.355 267.353 274.249 265.433 271.795 C 265.366 271.715 265.353 271.555 265.406 271.409 C 265.473 271.222 265.593 271.142 265.673 271.235 C 267.66 273.795 268.82 275.609 270.1 279.449 C 270.113 279.475 270.26 279.902 270.406 280.302 C 270.553 280.729 270.9 280.782 271.193 280.422 C 271.366 280.222 271.54 280.009 271.713 279.795 C 272.02 279.395 272.14 278.689 271.993 278.235 L 271.74 277.475 C 270.553 273.942 268.846 271.315 267.113 268.702 C 267.06 268.622 267.046 268.462 267.1 268.329 C 267.166 268.142 267.286 268.062 267.353 268.155 C 269.353 270.715 271.02 273.955 272.3 277.809 C 272.406 278.155 272.66 278.249 272.886 278.089 C 272.566 274.355 271.553 270.995 270.02 267.929" style="fill:#f4be0a;fill-opacity:1;fill-rule:nonzero;stroke:none" id="path1478"/>
  <path d="M 241.76 242.614 C 225.173 221.534 215.733 196.188 205.28 171.774 C 196.413 151.081 186.933 120.095 162.826 114.308 C 161.226 113.921 159.493 113.628 157.986 114.281 C 156.586 114.881 155.626 116.215 154.96 117.588 C 151.84 124.175 154.586 131.921 157.333 138.681 C 174.32 180.281 193.346 231.454 230.76 259.054 C 235.586 262.601 242.666 265.987 246.96 261.814 C 249.36 259.494 249.586 255.601 248.453 252.467 C 247.32 249.321 245.08 246.734 242.986 244.148 C 242.573 243.641 242.173 243.134 241.76 242.614" style="fill-opacity: 1; fill-rule: nonzero; stroke: none; fill: rgb(246, 255, 152);" id="path1480" transform="matrix(0.996834, -0.079516, 0.079515, 0.996834, -14.376415, 16.607849)"/>
  <path d="M 98.449 155.901 C 98.673 153.315 99.099 150.741 99.791 148.195 C 104.332 131.462 131.011 104.515 154.931 115.728 C 176.358 125.755 186.172 153.888 188.212 171.928 C 190.425 191.448 186.972 211.061 183.518 230.448 C 182.092 237.528 136.852 230.355 131.012 229.821 C 119.605 228.795 112.348 229.968 106.556 222.395 C 99.564 213.261 101.757 190.475 100.132 179.675 C 98.947 171.795 97.768 163.781 98.449 155.901" style="fill-opacity: 1; fill-rule: nonzero; stroke: none; fill: rgb(246, 255, 152);" id="path1482" transform="matrix(0.996412, -0.084635, 0.084634, 0.996412, -14.153155, 12.773691)"/>
  <path class="st18" d="M 144.202 88.009 C 143.707 89.819 142.515 91.19 141.376 92.498 C 140.236 93.796 139.052 95.194 138.595 97.014 C 138.137 98.833 138.707 101.191 140.184 101.804 C 141.706 102.435 143.347 100.899 143.887 99.061 C 144.427 97.224 144.172 95.194 143.992 93.256 C 143.812 91.309 143.722 89.216 144.202 88.009 Z" style="fill: rgb(142, 213, 231); stroke: rgb(142, 213, 231); stroke-miterlimit: 10;"/>
  <path class="st18" d="M 164.828 106.515 C 164.333 104.705 163.141 103.334 162.002 102.026 C 160.862 100.728 159.678 99.33 159.221 97.51 C 158.763 95.691 159.333 93.333 160.81 92.72 C 162.332 92.089 163.973 93.625 164.513 95.463 C 165.053 97.3 164.798 99.33 164.618 101.268 C 164.438 103.215 164.348 105.308 164.828 106.515 Z" style="fill: rgb(142, 213, 231); stroke: rgb(142, 213, 231); stroke-miterlimit: 10;" transform="matrix(-1, 0, 0, -1, 323.904907, 199.09082)"/>
  <path d="M 180.871 153.246 C 187.818 171.82 190.804 196.673 188.898 219.953 C 188.991 213.9 189.071 207.833 188.791 201.82 C 187.911 182.18 183.191 166.286 179.404 148.833 C 179.844 150.38 180.338 151.833 180.871 153.246" style="fill:#1a2037;fill-opacity:1;fill-rule:nonzero;stroke:none" id="path1484"/>
  <g id="Layer_3" transform="matrix(0.836553, 0, 0, 0.836553, 51.699966, -85.212433)" style="">
    <g>
      <g>
        <path class="st1" d="M325.97,301.02c1.27-0.26,3.01-0.9,4.16,0c0.04,0.03,1.02-0.56,0.9-0.49c0.72-0.4,1.43-0.82,2.15-1.23 c0.71-0.41,1.43-0.83,2.14-1.25c0.1-0.06,0.85-0.56,0.88-0.53c-1.15-0.89-2.89-0.26-4.16,0c-0.26,0.05-0.72,0.39-0.9,0.49 c-0.72,0.4-1.43,0.82-2.15,1.23c-0.71,0.41-1.43,0.83-2.14,1.25C326.61,300.63,326.24,300.97,325.97,301.02L325.97,301.02z" style="fill: rgb(140, 156, 50);"/>
      </g>
    </g>
  </g>
  <g id="Fish_tank" transform="matrix(0.836553, 0, 0, 0.836553, 51.699966, -85.212433)" style="">
    <g>
      <rect x="272.27" y="302.1" class="st20" width="256" height="149" style="fill: rgb(187, 230, 49); stroke: rgb(199, 227, 173); stroke-miterlimit: 10;"/>
      <path class="st21" d="M475.84,422.45c-2.02-18.64-10.73-36.49-24.2-49.54c13.19,8.48,20.12,23.71,26.35,38.1 c-4.34-17.98-13.22-34.84-25.58-48.59c8.28,2.93,13.66,10.91,17.41,18.86c3.75,7.95,6.61,16.54,12.44,23.12 c-4.99-19.56-10.02-39.46-9.08-59.62c1.3,7.39,2.6,14.78,3.9,22.17c1.86,10.59,3.88,21.56,10.03,30.38 c0.38-19.84,0.98-40.56,10.49-57.96c-5.04,20.36-10.11,41.39-6.83,62.11c4.62-14.86,13.52-28.37,25.34-38.48 c-10.81,11.04-18.36,25.23-21.45,40.37c6.24-8.15,13.61-16.96,23.81-18.09c-8.04,5.04-14.74,12.19-19.24,20.55 c3.42-3.58,8.52-5.5,13.46-5.05c-10.53,3.99-19.08,12.9-22.63,23.58c-0.25,0.76-0.55,1.62-1.27,1.97 c-0.65,0.32-1.43,0.13-2.13-0.08C482.69,425.11,478.73,423.95,475.84,422.45z" style="fill: rgb(183, 149, 186); stroke: rgb(183, 149, 185); stroke-miterlimit: 10;"/>
      <path class="st22" d="M373.5,431.97c-4.91-9.13-11.25-17.5-18.72-24.7c5.83,3.84,11.97,7.22,18.34,10.09 c-1.75-4.5-3.93-8.83-6.52-12.91c4.54,3.33,8.64,7.26,12.16,11.66c0.33-4.45,0.66-8.9,0.99-13.34c1.92,5.29,3.85,10.59,5.77,15.88 c1.75-5.36,3.89-10.59,6.39-15.65c-0.35,5.7-0.71,11.39-1.06,17.09c2.83-6.31,7.14-11.95,12.5-16.32 c-3.74,5.01-6.49,10.76-8.04,16.81c3.77-5.09,9.03-9.06,14.95-11.31c-4.19,4.15-7.7,8.97-10.36,14.23 c3.98-5.11,10.34-8.28,16.82-8.39c-4.36,1.86-8.11,5.11-10.58,9.16c3.9-3.73,9.87-5.16,15.04-3.58 c-8.2,3.47-17.02,7.48-21.21,15.34c-0.64,1.21-1.19,2.52-2.21,3.42c-1.93,1.71-4.92,1.43-7.32,0.49 C383.39,437.19,378.2,429.72,373.5,431.97z" style="fill: rgb(143, 148, 108); stroke: rgb(143, 148, 108); stroke-miterlimit: 10;"/>
      <path class="st23" d="M274.87,446.94l250.03-0.28v-30.97c0,0-18.82-6.27-25.34-6.19c-7.9,0.09-23.13,6.25-29.85,10.42 c-4.52,2.81-9.95,14.03-15.2,14.92c-4.56,0.77-12.17-6.86-16.61-8.17c-5.61-1.65-17.6-2.06-23.37-1.13 c-6.56,1.06-18.19,10.4-24.78,9.57c-4.82-0.6-11.46-9.38-16.05-10.98c-5.38-1.88-17.24-1.22-22.81,0 c-8.4,1.84-22.78,12.88-31.25,14.36c-6.95,1.21-21.31-3.33-27.31-7.04c-5.56-3.43-17.18-19.71-17.18-19.71L274.87,446.94z" style="fill: rgb(186, 168, 147); stroke: rgb(187, 170, 148); stroke-miterlimit: 10;"/>
      <rect x="272.27" y="304.38" class="st24" width="5" height="146.72" style="fill: rgb(228, 246, 207); stroke: rgb(228, 246, 207); stroke-miterlimit: 10;"/>
      <rect x="522.39" y="304.38" class="st25" width="5" height="146.72" style="fill: rgb(175, 204, 143); stroke: rgb(176, 204, 144); stroke-miterlimit: 10;"/>
      <rect x="268.51" y="292.93" class="st26" width="264" height="15" style="fill: rgb(189, 189, 189); stroke: rgb(190, 189, 189); stroke-miterlimit: 10;"/>
      <rect x="268.51" y="304.38" class="st28" width="264" height="3.55" style="fill: rgb(179, 179, 179); stroke: rgb(179, 178, 178); stroke-miterlimit: 10;"/>
    </g>
  </g>
  <g id="Fish" transform="matrix(0.836553, 0, 0, 0.836553, 51.699966, -85.212433)" style="">
    <path class="st29" d="M327.91,318.58c2.13-3.16,5.16-5.71,8.64-7.27c1.19-0.53,2.76-0.88,3.65,0.07c0.92,0.98,0.4,2.54,0.14,3.86 c-0.55,2.82,0.36,5.69,0.62,8.55c0.42,4.64-0.83,9.69,1.43,13.77c0.79,1.42,2.01,2.84,1.69,4.44c-0.35,1.71-2.45,2.58-4.16,2.2 c-1.71-0.38-3.07-1.62-4.34-2.83c-1.4-1.34-2.8-2.73-3.76-4.41c-1.12-1.98-1.58-4.25-2.02-6.49c-0.51-2.59-1.02-5.19-1.53-7.78 C327.88,320.65,327.62,318.16,327.91,318.58z" style="fill: rgb(140, 156, 47); stroke: rgb(140, 156, 47); stroke-miterlimit: 10;"/>
    <path class="st30" d="M348.26,323.7c2.89-2.47,6.19-4.47,9.72-5.89c0.41-0.17,0.91-0.32,1.28-0.07c0.31,0.21,0.39,0.62,0.41,0.99 c0.07,1.68-0.79,3.24-1.39,4.81c-1.28,3.38-1.37,7.2-0.24,10.64c0.43,1.3,1.02,2.56,1.17,3.91c0.04,0.34,0.04,0.71-0.11,1.02 c-0.49,1.01-2,0.72-3.01,0.22c-2.76-1.36-5.35-3.05-7.64-5.16c-5.92,4.44-13.56,6.51-20.91,5.67s-14.33-4.59-19.09-10.26 c-0.29-0.34-0.58-0.73-0.59-1.18c0-0.4,0.22-0.75,0.45-1.08c4.23-6.13,11.56-9.82,18.99-10.25S342.2,319.28,348.26,323.7z" style="fill: rgb(181, 201, 54); stroke: rgb(183, 201, 54); stroke-miterlimit: 10;"/>
    <path class="st31" d="M396.78,318.1c2.42-3.68,5.87-6.65,9.84-8.46c1.35-0.62,3.14-1.02,4.15,0.09c1.04,1.15,0.46,2.96,0.16,4.49 c-0.63,3.28,0.41,6.62,0.7,9.95c0.48,5.41-0.95,11.28,1.63,16.03c0.9,1.65,2.29,3.31,1.93,5.16c-0.39,2-2.79,3-4.74,2.56 c-1.94-0.44-3.5-1.88-4.94-3.29c-1.6-1.56-3.19-3.18-4.28-5.14c-1.28-2.3-1.8-4.95-2.3-7.55c-0.58-3.02-1.16-6.04-1.74-9.06 C396.74,320.5,396.45,317.61,396.78,318.1z" style="fill: rgb(217, 193, 60); stroke: rgb(218, 193, 61); stroke-miterlimit: 10;"/>
    <path class="st32" d="M419.96,324.06c3.29-2.88,7.05-5.21,11.07-6.86c0.47-0.19,1.04-0.37,1.45-0.08c0.35,0.24,0.45,0.72,0.47,1.16 c0.08,1.96-0.9,3.77-1.58,5.6c-1.46,3.94-1.56,8.39-0.27,12.39c0.49,1.51,1.16,2.98,1.33,4.56c0.04,0.4,0.05,0.82-0.12,1.18 c-0.56,1.18-2.28,0.83-3.42,0.26c-3.14-1.58-6.09-3.56-8.7-6.01c-6.74,5.17-15.45,7.58-23.82,6.6 c-8.37-0.98-16.32-5.35-21.74-11.95c-0.33-0.4-0.67-0.85-0.67-1.38c0-0.46,0.25-0.88,0.51-1.25c4.82-7.13,13.16-11.43,21.63-11.94 C404.56,315.83,413.05,318.91,419.96,324.06z" style="fill: rgb(219, 239, 52); stroke: rgb(220, 241, 52); stroke-miterlimit: 10;"/>
    <path class="st31" d="M472.9,316.83c-1.72-2.43-4.17-4.39-6.98-5.58c-0.96-0.41-2.23-0.68-2.95,0.06 c-0.74,0.76-0.32,1.95-0.11,2.97c0.45,2.16-0.29,4.37-0.5,6.57c-0.34,3.57,0.67,7.44-1.16,10.58c-0.64,1.09-1.63,2.19-1.37,3.41 c0.28,1.32,1.98,1.98,3.36,1.69c1.38-0.29,2.48-1.24,3.5-2.17c1.13-1.03,2.26-2.1,3.04-3.39c0.91-1.52,1.28-3.27,1.63-4.98 c0.41-1.99,0.82-3.98,1.23-5.98C472.92,318.41,473.13,316.5,472.9,316.83z" style="fill: rgb(217, 193, 60); stroke: rgb(218, 193, 61); stroke-miterlimit: 10;"/>
    <path class="st33" d="M456.45,320.76c-2.34-1.9-5-3.44-7.85-4.53c-0.33-0.13-0.73-0.24-1.03-0.05c-0.25,0.16-0.32,0.48-0.33,0.76 c-0.06,1.29,0.64,2.49,1.12,3.7c1.04,2.6,1.1,5.54,0.19,8.18c-0.34,1-0.83,1.96-0.94,3.01c-0.03,0.26-0.03,0.54,0.09,0.78 c0.4,0.78,1.61,0.55,2.43,0.17c2.23-1.04,4.32-2.35,6.17-3.96c4.78,3.41,10.96,5,16.9,4.36c5.94-0.65,11.57-3.53,15.42-7.88 c0.23-0.26,0.47-0.56,0.48-0.91c0-0.3-0.18-0.58-0.36-0.83c-3.42-4.71-9.34-7.54-15.34-7.88 C467.38,315.33,461.36,317.36,456.45,320.76z" style="fill: rgb(151, 166, 47); stroke: rgb(151, 167, 47); stroke-miterlimit: 10;"/>
    <g id="Layer_6">
      <path class="st35" d="M312.19,324.56c1.35,1.63,2.71,3.26,4.06,4.89" style="fill: none; stroke: rgb(54, 59, 19); stroke-miterlimit: 10;"/>
      <path class="st35" d="M312.38,329.37c1.22-1.73,2.44-3.46,3.65-5.19" style="fill: none; stroke: rgb(54, 59, 19); stroke-miterlimit: 10;"/>
      <path class="st35" d="M378.9,325.38c1.58,1.69,3.15,3.39,4.73,5.08" style="fill: none; stroke: rgb(54, 59, 19); stroke-miterlimit: 10;"/>
      <path class="st35" d="M378.87,330.66c1.5-2.04,3-4.08,4.5-6.12" style="fill: none; stroke: rgb(54, 59, 19); stroke-miterlimit: 10;"/>
      <path class="st35" d="M479.8,320.92c1.51,1.68,3.03,3.36,4.54,5.04" style="fill: none; stroke: rgb(54, 59, 19); stroke-miterlimit: 10;"/>
      <path class="st35" d="M483.91,320.79c-1.35,1.92-2.71,3.84-4.06,5.76" style="fill: none; stroke: rgb(54, 59, 19); stroke-miterlimit: 10;"/>
    </g>
  </g>
</svg>