<?xml version="1.0" encoding="utf-8"?>
<svg viewBox="0 0 500 500" xmlns="http://www.w3.org/2000/svg">
  <path d="M 205.586 482.826 L 205.586 485.733 L 166.08 485.733 L 166.06 481.693 L 165.919 449.293 L 181.638 449.293 L 181.638 469.546 L 200.678 475.973 C 203.248 476.853 205.08 479.066 205.495 481.693 C 205.556 482.066 205.586 482.44 205.586 482.826" style="fill:#192137;fill-opacity:1;fill-rule:nonzero;stroke:none" id="path1112"/>
  <path d="M 181.638 449.293 L 181.638 467.52 L 165.999 467.52 L 165.919 449.293 L 181.638 449.293" style="fill:#f4be0a;fill-opacity:1;fill-rule:nonzero;stroke:none" id="path1114"/>
  <path d="M 205.586 482.826 L 205.586 485.733 L 166.08 485.733 L 166.06 481.693 L 205.495 481.693 C 205.556 482.066 205.586 482.44 205.586 482.826" style="fill:#8459b3;fill-opacity:1;fill-rule:nonzero;stroke:none" id="path1116"/>
  <path d="M 96.711 483.466 L 96.711 486.386 L 136.218 486.386 L 136.238 482.333 L 136.379 449.946 L 120.66 449.946 L 120.66 470.186 L 101.62 476.626 C 99.05 477.493 97.218 479.72 96.803 482.333 C 96.742 482.706 96.711 483.093 96.711 483.466" style="fill:#1a2037;fill-opacity:1;fill-rule:nonzero;stroke:none" id="path1118"/>
  <path d="M 120.66 449.946 L 120.66 468.173 L 136.299 468.173 L 136.379 449.946 L 120.66 449.946" style="fill:#f4be0a;fill-opacity:1;fill-rule:nonzero;stroke:none" id="path1120"/>
  <path d="M 96.711 483.466 L 96.711 486.386 L 136.218 486.386 L 136.238 482.333 L 96.803 482.333 C 96.742 482.706 96.711 483.093 96.711 483.466" style="fill:#8459b3;fill-opacity:1;fill-rule:nonzero;stroke:none" id="path1122"/>
  <path d="M 195.052 370.147 C 193.674 338.853 191.698 307.493 186 276.707 C 184.434 268.267 183.875 257.454 181.183 248.28 C 179.938 244.027 178.231 240.12 175.763 236.987 C 172.728 233.12 164.95 234.4 160.744 234.454 C 159.866 234.467 159.187 234.107 158.336 234.04 C 156.427 233.867 154.526 233.374 152.61 233.24 C 150.678 233.107 148.578 233.64 146.682 233.12 C 145.262 232.734 143.811 232.44 142.34 232.48 C 141.414 232.52 140.618 232.147 139.718 232.067 C 138.904 231.974 138.032 232.094 137.219 232.094 C 136.37 232.094 135.623 231.854 134.796 231.72 C 133.79 231.56 132.783 231.787 131.776 231.6 C 128.383 230.974 124.774 231.294 121.315 231.294 L 111.27 231.294 C 109.656 231.294 108.05 231.32 106.443 231.28 C 89.378 230.974 95.04 263.04 95.504 272.92 C 96.522 294.547 97.707 316.16 99.06 337.773 C 100.224 359.893 104.992 378.28 106.731 400.36 C 107.602 411.413 109.26 426.186 110.218 437.226 C 110.714 442.946 111.97 448.666 112.488 454.4 C 113.354 459.8 112.642 467.32 118.803 469.773 C 123.626 471.693 129.924 470.586 136.614 469.8 C 138.382 469.586 139.704 468.08 139.663 466.293 C 139.303 450.626 141.022 433.053 140.874 417.56 C 140.684 397.693 140.495 377.813 140.306 357.947 C 140.138 340.28 139.968 322.627 139.8 304.96 C 139.751 299.76 137.212 287.48 139.588 282.68 L 143.516 274.734 C 146.799 295.96 150.082 317.2 153.363 338.427 C 159.223 376.333 159.195 414.227 161.97 452.506 C 162.366 457.973 164.04 469.293 164.04 469.293 C 168.994 471.88 183.107 468.96 187.87 466.92 C 189.578 461.946 189.178 451.026 189.55 447.466 C 190.307 440.226 190.952 432.973 191.574 425.706 C 192.868 410.587 193.991 395.453 195.567 380.36 C 195.38 376.973 195.202 373.573 195.052 370.147" style="fill-opacity: 1; fill-rule: nonzero; stroke: none; fill: rgb(121, 30, 119);" id="path1124"/>
  <path d="M 146.375 93.627 C 145.252 89.902 143.407 86.675 139.475 86.507 C 135.95 86.355 134.256 89.357 130.751 89.758 C 128.227 90.047 124.05 90.067 121.668 90.946 C 118.016 92.294 116.519 95.079 115.862 98.875 C 115.078 103.399 114.836 108.015 115.143 112.597 C 115.308 115.054 115.795 117.791 117.819 119.231 C 120.346 121.029 124.059 119.798 126.196 117.562 C 127.028 116.693 127.718 115.685 128.178 114.577 C 128.704 113.311 128.927 111.942 129.399 110.657 C 130.291 108.225 132.258 106.047 134.815 105.497 C 138.108 104.789 143.716 108.714 146.022 106.181 C 148.639 103.306 147.424 97.111 146.375 93.627" style="fill:#192137;fill-opacity:1;fill-rule:nonzero;stroke:none" id="path1128"/>
  <path d="M 137.118 126.169 C 136.299 125.595 135.264 125.287 134.066 125.454 C 129.056 126.15 124.068 126.937 119.054 127.478 L 119.054 105.911 C 119.054 99.023 124.758 93.374 131.731 93.374 L 131.746 93.374 C 138.719 93.374 144.438 99.023 144.438 105.911 L 144.438 117.874 C 144.328 119.759 143.378 124.165 137.118 126.169" style="fill:#f4be0a;fill-opacity:1;fill-rule:nonzero;stroke:none" id="path1130"/>
  <path d="M 118.874 126.931 L 118.874 137.522 C 118.874 143.447 123.676 148.242 129.594 148.242 L 129.722 148.242 C 135.647 148.242 140.442 143.447 140.442 137.522 L 140.442 116.211 L 129.594 116.211 C 123.676 116.211 118.874 121.015 118.874 126.931" style="fill:#f4be0a;fill-opacity:1;fill-rule:nonzero;stroke:none" id="path1132"/>
  <path d="M 131.748 127.126 L 140.442 132.179 L 140.442 124.607 C 138.562 125.874 135.792 126.859 131.748 127.126" style="fill:#192137;fill-opacity:1;fill-rule:nonzero;stroke:none" id="path1134"/>
  <path d="M 125.29 114.573 C 122.959 115.902 119.979 115.113 118.632 112.81 C 117.287 110.507 118.086 107.563 120.416 106.234 C 122.747 104.905 125.728 105.694 127.074 107.997 C 128.419 110.299 127.62 113.243 125.29 114.573" style="fill:#192137;fill-opacity:1;fill-rule:nonzero;stroke:none" id="path1136"/>
  <path d="M 144.438 99.423 L 145.844 98.549 C 139.051 99.139 132.63 99.685 130.748 99.419 C 129.867 107.414 126.195 107.149 122.342 108.343 C 118.759 109.435 115.055 107.783 115.772 103.329 C 116.175 100.777 118.102 97.266 120.132 95.673 C 123.492 93.033 127.523 91.13 131.794 90.658 C 136.05 90.201 140.559 91.262 143.858 93.977 C 145.218 95.083 145.006 97.786 144.438 99.423" style="fill:#192137;fill-opacity:1;fill-rule:nonzero;stroke:none" id="path1138"/>
  <path d="M 134.42 109.961 L 134.443 109.961 C 134.938 109.961 135.342 109.555 135.342 109.062 C 135.342 108.567 134.938 108.162 134.443 108.162 L 134.42 108.162 C 133.926 108.162 133.522 108.567 133.522 109.062 C 133.522 109.555 133.926 109.961 134.42 109.961" style="fill:#192137;fill-opacity:1;fill-rule:nonzero;stroke:none" id="path1140"/>
  <path d="M 140.038 113.602 L 138.403 113.602 L 138.403 112.922 L 139.359 112.922 L 139.359 107.938 L 140.038 107.938 L 140.038 113.602" style="fill:#192137;fill-opacity:1;fill-rule:nonzero;stroke:none" id="path1144"/>
  <path d="M 142.771 109.961 L 142.794 109.961 C 143.287 109.961 143.692 109.555 143.692 109.062 C 143.692 108.567 143.287 108.162 142.794 108.162 L 142.771 108.162 C 142.276 108.162 141.872 108.567 141.872 109.062 C 141.872 109.555 142.276 109.961 142.771 109.961" style="fill:#192137;fill-opacity:1;fill-rule:nonzero;stroke:none" id="path1146"/>
  <path d="M 120.939 120.205 L 120.887 120.205 C 118.54 120.205 116.62 118.285 116.62 115.938 L 116.62 113.481 C 116.62 111.134 118.54 109.214 120.887 109.214 L 120.939 109.214 C 123.286 109.214 125.206 111.134 125.206 113.481 L 125.206 115.938 C 125.206 118.285 123.286 120.205 120.939 120.205" style="fill:#192137;fill-opacity:1;fill-rule:nonzero;stroke:none" id="path1148"/>
  <path d="M 126.428 114.151 C 124.098 115.481 121.118 114.693 119.771 112.39 C 118.426 110.087 119.224 107.143 121.555 105.813 C 123.886 104.483 126.867 105.273 128.212 107.575 C 129.559 109.878 128.76 112.822 126.428 114.151" style="fill:#f4be0a;fill-opacity:1;fill-rule:nonzero;stroke:none" id="path1150"/>
  <path d="M 130.751 99.423 L 130.751 103.897 C 130.751 105.409 129.51 106.635 127.978 106.635 C 126.447 106.635 125.206 105.409 125.206 103.897 L 125.206 99.61 L 130.751 99.423" style="fill:#192137;fill-opacity:1;fill-rule:nonzero;stroke:none" id="path1152"/>
  <path d="M 118.396 153.614 L 115.943 136.841 L 116.736 136.741 L 119.002 152.225 L 134.038 141.243 L 148.827 149.985 L 147.504 136.358 L 148.302 136.291 L 149.771 151.426 L 134.086 142.155 L 118.396 153.614" style="fill:#fafdfe;fill-opacity:1;fill-rule:nonzero;stroke:none" id="path1156"/>
  <path d="M 2.11 314.489 C 5.825 313.436 9.001 311.996 11.554 310.209 C 11.634 310.156 11.801 310.156 11.946 310.209 C 12.132 310.289 12.201 310.409 12.102 310.476 C 9.444 312.343 7.573 313.396 3.67 314.476 C 3.641 314.476 3.213 314.609 2.802 314.729 C 2.364 314.849 2.289 315.196 2.636 315.516 C 2.833 315.689 3.036 315.876 3.242 316.063 C 3.616 316.383 4.321 316.556 4.78 316.423 L 5.548 316.209 C 9.148 315.223 11.861 313.649 14.553 312.063 C 14.637 312.009 14.796 312.009 14.936 312.063 C 15.121 312.129 15.189 312.263 15.092 312.329 C 12.432 314.183 9.105 315.676 5.194 316.756 C 4.725 316.876 4.684 317.249 5.112 317.569 L 5.393 317.783 C 5.936 318.183 6.82 318.369 7.405 318.209 L 8.244 317.969 C 11.821 316.983 14.513 315.423 17.181 313.836 C 17.264 313.783 17.422 313.783 17.562 313.836 C 17.748 313.916 17.817 314.036 17.72 314.116 C 15.06 315.969 11.733 317.449 7.83 318.529 L 7.78 318.543 C 7.282 318.676 7.285 319.089 7.793 319.409 L 7.872 319.463 C 8.137 319.623 8.425 319.796 8.766 319.876 C 9.261 320.009 9.721 319.929 10.12 319.849 C 18.968 317.956 24.42 313.543 28.176 308.716 C 33.282 302.156 40.93 294.569 43.386 286.543 C 43.712 285.476 43.95 284.343 43.736 283.249 C 43.521 282.156 42.761 281.103 41.677 280.849 C 40.806 280.636 39.896 280.956 39.104 281.369 C 36.621 282.663 34.782 284.916 32.541 286.596 C 30.306 288.276 27.701 289.369 25.308 290.809 C 20.39 293.783 17.778 299.529 13.965 303.716 C 10.954 307.023 7.288 310.116 2.144 312.329 C 1.477 312.609 0.741 312.943 0.865 313.503 C 0.922 313.769 1.162 314.036 1.41 314.303 C 1.706 314.383 1.813 314.409 2.11 314.489" style="fill:#f4be0a;fill-opacity:1;fill-rule:nonzero;stroke:none" id="path1454"/>
  <path d="M 124.505 160.841 C 132.318 134.695 98.599 154.708 91.145 163.575 C 78.379 178.761 69.865 195.841 59.323 212.494 C 49.018 228.774 35.746 242.988 25.819 259.521 C 21.101 267.388 4.434 294.707 24.749 294.867 C 29.513 294.907 34.177 290.614 37.414 287.614 C 46.303 279.388 54.091 270.121 60.899 260.121 C 67.495 250.414 73.217 239.894 81.117 231.108 C 89.873 221.374 99.845 211.428 107.614 200.401 C 116.291 188.094 120.291 174.934 124.505 160.841" style="fill-opacity: 1; fill-rule: nonzero; stroke: none; fill: rgb(179, 89, 89);" id="path1456" transform="matrix(0.992115, -0.125333, 0.125333, 0.992115, -27.190729, 10.554958)"/>
  <path d="M 258.352 290.402 C 257.938 289.748 257.512 289.095 257.085 288.455 C 257.032 288.375 257.018 288.228 257.072 288.082 C 257.432 287.015 253.098 282.775 252.378 282.002 C 250.472 279.962 248.365 278.108 246.192 276.388 C 242.325 273.322 237.712 269.508 233.125 267.668 C 232.018 267.215 230.725 266.922 229.645 267.455 C 228.699 267.922 228.112 268.962 227.979 270.015 C 227.845 271.055 228.085 272.122 228.419 273.135 C 229.965 277.735 233.298 281.348 236.205 285.122 C 238.845 288.548 240.925 291.882 244.312 294.682 C 245.485 295.655 246.752 296.588 248.098 297.628 C 248.218 297.722 248.365 297.828 248.525 297.815 C 248.965 297.815 248.965 297.135 248.792 296.735 C 248.165 295.362 247.178 294.202 246.432 292.908 C 246.192 292.495 245.952 291.855 245.698 291.068 C 246.178 291.442 246.672 291.815 247.152 292.215 C 250.605 295.042 253.885 298.535 256.365 303.562 C 256.685 304.202 257.058 304.922 257.618 304.775 C 257.872 304.695 258.125 304.442 258.378 304.188 C 258.445 303.882 258.472 303.775 258.525 303.482 C 257.285 299.828 255.685 296.722 253.765 294.268 C 253.698 294.188 253.685 294.028 253.738 293.882 C 253.805 293.695 253.925 293.615 254.005 293.708 C 255.992 296.268 257.152 298.082 258.432 301.922 C 258.445 301.948 258.592 302.375 258.738 302.775 C 258.885 303.202 259.232 303.255 259.525 302.895 C 259.698 302.695 259.872 302.482 260.045 302.268 C 260.352 301.868 260.472 301.162 260.325 300.708 L 260.072 299.948 C 258.885 296.415 257.178 293.788 255.445 291.175 C 255.392 291.095 255.378 290.935 255.432 290.802 C 255.498 290.615 255.618 290.535 255.685 290.628 C 257.685 293.188 259.352 296.428 260.632 300.282 C 260.738 300.628 260.992 300.722 261.218 300.562 C 260.898 296.828 259.885 293.468 258.352 290.402" style="fill:#f4be0a;fill-opacity:1;fill-rule:nonzero;stroke:none" id="path1478"/>
  <path d="M 230.092 265.087 C 213.505 244.007 204.065 218.661 193.612 194.247 C 184.745 173.554 175.265 142.568 151.158 136.781 C 149.558 136.394 147.825 136.101 146.318 136.754 C 144.918 137.354 143.958 138.688 143.292 140.061 C 140.172 146.648 142.918 154.394 145.665 161.154 C 162.652 202.754 181.678 253.927 219.092 281.527 C 223.918 285.074 230.998 288.46 235.292 284.287 C 237.692 281.967 237.918 278.074 236.785 274.94 C 235.652 271.794 233.412 269.207 231.318 266.621 C 230.905 266.114 230.505 265.607 230.092 265.087" style="fill-opacity: 1; fill-rule: nonzero; stroke: none; fill: rgb(179, 89, 89);" id="path1480" transform="matrix(0.996834, -0.079516, 0.079516, 0.996834, -16.200474, 15.751221)"/>
  <path d="M 86.781 178.374 C 87.005 175.788 87.431 173.214 88.123 170.668 C 92.664 153.935 119.344 126.988 143.264 138.201 C 164.69 148.228 174.504 176.361 176.544 194.401 C 178.757 213.921 175.304 233.534 171.85 252.921 C 170.424 260.001 125.184 252.828 119.344 252.294 C 107.937 251.268 100.68 252.441 94.888 244.868 C 87.896 235.734 90.089 212.948 88.464 202.148 C 87.279 194.268 86.1 186.254 86.781 178.374" style="fill-opacity: 1; fill-rule: nonzero; stroke: none; fill: rgb(179, 89, 89);" id="path1482" transform="matrix(0.996412, -0.084635, 0.084635, 0.996412, -16.09717, 11.866809)"/>
  <path class="st18" d="M 132.534 110.482 C 132.039 112.292 130.847 113.663 129.708 114.971 C 128.568 116.269 127.384 117.667 126.927 119.487 C 126.469 121.306 127.039 123.664 128.516 124.277 C 130.038 124.908 131.679 123.372 132.219 121.534 C 132.759 119.697 132.504 117.667 132.324 115.729 C 132.144 113.782 132.054 111.689 132.534 110.482 Z" style="fill: rgb(142, 213, 231); stroke: rgb(142, 213, 231); stroke-miterlimit: 10;"/>
  <path class="st18" d="M 153.16 128.988 C 152.665 127.178 151.473 125.807 150.334 124.499 C 149.194 123.201 148.01 121.803 147.553 119.983 C 147.095 118.164 147.665 115.806 149.142 115.193 C 150.664 114.562 152.305 116.098 152.845 117.936 C 153.385 119.773 153.13 121.803 152.95 123.741 C 152.77 125.688 152.68 127.781 153.16 128.988 Z" style="fill: rgb(142, 213, 231); stroke: rgb(142, 213, 231); stroke-miterlimit: 10;" transform="matrix(-1, 0, 0, -1, 300.568909, 244.036819)"/>
  <path d="M 169.203 175.719 C 176.15 194.293 179.136 219.146 177.23 242.426 C 177.323 236.373 177.403 230.306 177.123 224.293 C 176.243 204.653 171.523 188.759 167.736 171.306 C 168.176 172.853 168.67 174.306 169.203 175.719" style="fill:#1a2037;fill-opacity:1;fill-rule:nonzero;stroke:none" id="path1484"/>
  <g id="Layer_3" transform="matrix(0.836553, 0, 0, 0.836553, 33.555695, -158.330078)" style="">
    <g>
      <g>
        <path class="st1" d="M325.97,301.02c1.27-0.26,3.01-0.9,4.16,0c0.04,0.03,1.02-0.56,0.9-0.49c0.72-0.4,1.43-0.82,2.15-1.23 c0.71-0.41,1.43-0.83,2.14-1.25c0.1-0.06,0.85-0.56,0.88-0.53c-1.15-0.89-2.89-0.26-4.16,0c-0.26,0.05-0.72,0.39-0.9,0.49 c-0.72,0.4-1.43,0.82-2.15,1.23c-0.71,0.41-1.43,0.83-2.14,1.25C326.61,300.63,326.24,300.97,325.97,301.02L325.97,301.02z" style="fill: rgb(140, 156, 50);"/>
      </g>
    </g>
  </g>
  <g id="Fish_tank" transform="matrix(0.836553, 0, 0, 0.836553, 33.555695, -158.330078)" style="">
    <g>
      <rect x="272.27" y="302.1" class="st20" width="256" height="149" style="fill: rgb(187, 230, 49); stroke: rgb(199, 227, 173); stroke-miterlimit: 10;"/>
      <path class="st21" d="M475.84,422.45c-2.02-18.64-10.73-36.49-24.2-49.54c13.19,8.48,20.12,23.71,26.35,38.1 c-4.34-17.98-13.22-34.84-25.58-48.59c8.28,2.93,13.66,10.91,17.41,18.86c3.75,7.95,6.61,16.54,12.44,23.12 c-4.99-19.56-10.02-39.46-9.08-59.62c1.3,7.39,2.6,14.78,3.9,22.17c1.86,10.59,3.88,21.56,10.03,30.38 c0.38-19.84,0.98-40.56,10.49-57.96c-5.04,20.36-10.11,41.39-6.83,62.11c4.62-14.86,13.52-28.37,25.34-38.48 c-10.81,11.04-18.36,25.23-21.45,40.37c6.24-8.15,13.61-16.96,23.81-18.09c-8.04,5.04-14.74,12.19-19.24,20.55 c3.42-3.58,8.52-5.5,13.46-5.05c-10.53,3.99-19.08,12.9-22.63,23.58c-0.25,0.76-0.55,1.62-1.27,1.97 c-0.65,0.32-1.43,0.13-2.13-0.08C482.69,425.11,478.73,423.95,475.84,422.45z" style="fill: rgb(183, 149, 186); stroke: rgb(183, 149, 185); stroke-miterlimit: 10;"/>
      <path class="st22" d="M373.5,431.97c-4.91-9.13-11.25-17.5-18.72-24.7c5.83,3.84,11.97,7.22,18.34,10.09 c-1.75-4.5-3.93-8.83-6.52-12.91c4.54,3.33,8.64,7.26,12.16,11.66c0.33-4.45,0.66-8.9,0.99-13.34c1.92,5.29,3.85,10.59,5.77,15.88 c1.75-5.36,3.89-10.59,6.39-15.65c-0.35,5.7-0.71,11.39-1.06,17.09c2.83-6.31,7.14-11.95,12.5-16.32 c-3.74,5.01-6.49,10.76-8.04,16.81c3.77-5.09,9.03-9.06,14.95-11.31c-4.19,4.15-7.7,8.97-10.36,14.23 c3.98-5.11,10.34-8.28,16.82-8.39c-4.36,1.86-8.11,5.11-10.58,9.16c3.9-3.73,9.87-5.16,15.04-3.58 c-8.2,3.47-17.02,7.48-21.21,15.34c-0.64,1.21-1.19,2.52-2.21,3.42c-1.93,1.71-4.92,1.43-7.32,0.49 C383.39,437.19,378.2,429.72,373.5,431.97z" style="fill: rgb(143, 148, 108); stroke: rgb(143, 148, 108); stroke-miterlimit: 10;"/>
      <path class="st23" d="M274.87,446.94l250.03-0.28v-30.97c0,0-18.82-6.27-25.34-6.19c-7.9,0.09-23.13,6.25-29.85,10.42 c-4.52,2.81-9.95,14.03-15.2,14.92c-4.56,0.77-12.17-6.86-16.61-8.17c-5.61-1.65-17.6-2.06-23.37-1.13 c-6.56,1.06-18.19,10.4-24.78,9.57c-4.82-0.6-11.46-9.38-16.05-10.98c-5.38-1.88-17.24-1.22-22.81,0 c-8.4,1.84-22.78,12.88-31.25,14.36c-6.95,1.21-21.31-3.33-27.31-7.04c-5.56-3.43-17.18-19.71-17.18-19.71L274.87,446.94z" style="fill: rgb(186, 168, 147); stroke: rgb(187, 170, 148); stroke-miterlimit: 10;"/>
      <rect x="272.27" y="304.38" class="st24" width="5" height="146.72" style="fill: rgb(228, 246, 207); stroke: rgb(228, 246, 207); stroke-miterlimit: 10;"/>
      <rect x="522.39" y="304.38" class="st25" width="5" height="146.72" style="fill: rgb(175, 204, 143); stroke: rgb(176, 204, 144); stroke-miterlimit: 10;"/>
      <rect x="268.51" y="292.93" class="st26" width="264" height="15" style="fill: rgb(189, 189, 189); stroke: rgb(190, 189, 189); stroke-miterlimit: 10;"/>
      <rect x="268.51" y="290.02" class="st27" width="264" height="5" style="fill: rgb(230, 230, 230); stroke: rgb(232, 231, 231); stroke-miterlimit: 10;"/>
      <rect x="268.51" y="304.38" class="st28" width="264" height="3.55" style="fill: rgb(179, 179, 179); stroke: rgb(179, 178, 178); stroke-miterlimit: 10;"/>
    </g>
  </g>
  <g id="Fish" transform="matrix(0.836553, 0, 0, 0.836553, 33.555695, -158.330078)" style="">
    <path class="st29" d="M327.91,318.58c2.13-3.16,5.16-5.71,8.64-7.27c1.19-0.53,2.76-0.88,3.65,0.07c0.92,0.98,0.4,2.54,0.14,3.86 c-0.55,2.82,0.36,5.69,0.62,8.55c0.42,4.64-0.83,9.69,1.43,13.77c0.79,1.42,2.01,2.84,1.69,4.44c-0.35,1.71-2.45,2.58-4.16,2.2 c-1.71-0.38-3.07-1.62-4.34-2.83c-1.4-1.34-2.8-2.73-3.76-4.41c-1.12-1.98-1.58-4.25-2.02-6.49c-0.51-2.59-1.02-5.19-1.53-7.78 C327.88,320.65,327.62,318.16,327.91,318.58z" style="fill: rgb(140, 156, 47); stroke: rgb(140, 156, 47); stroke-miterlimit: 10;"/>
    <path class="st30" d="M348.26,323.7c2.89-2.47,6.19-4.47,9.72-5.89c0.41-0.17,0.91-0.32,1.28-0.07c0.31,0.21,0.39,0.62,0.41,0.99 c0.07,1.68-0.79,3.24-1.39,4.81c-1.28,3.38-1.37,7.2-0.24,10.64c0.43,1.3,1.02,2.56,1.17,3.91c0.04,0.34,0.04,0.71-0.11,1.02 c-0.49,1.01-2,0.72-3.01,0.22c-2.76-1.36-5.35-3.05-7.64-5.16c-5.92,4.44-13.56,6.51-20.91,5.67s-14.33-4.59-19.09-10.26 c-0.29-0.34-0.58-0.73-0.59-1.18c0-0.4,0.22-0.75,0.45-1.08c4.23-6.13,11.56-9.82,18.99-10.25S342.2,319.28,348.26,323.7z" style="fill: rgb(181, 201, 54); stroke: rgb(183, 201, 54); stroke-miterlimit: 10;"/>
    <path class="st31" d="M396.78,318.1c2.42-3.68,5.87-6.65,9.84-8.46c1.35-0.62,3.14-1.02,4.15,0.09c1.04,1.15,0.46,2.96,0.16,4.49 c-0.63,3.28,0.41,6.62,0.7,9.95c0.48,5.41-0.95,11.28,1.63,16.03c0.9,1.65,2.29,3.31,1.93,5.16c-0.39,2-2.79,3-4.74,2.56 c-1.94-0.44-3.5-1.88-4.94-3.29c-1.6-1.56-3.19-3.18-4.28-5.14c-1.28-2.3-1.8-4.95-2.3-7.55c-0.58-3.02-1.16-6.04-1.74-9.06 C396.74,320.5,396.45,317.61,396.78,318.1z" style="fill: rgb(217, 193, 60); stroke: rgb(218, 193, 61); stroke-miterlimit: 10;"/>
    <path class="st32" d="M419.96,324.06c3.29-2.88,7.05-5.21,11.07-6.86c0.47-0.19,1.04-0.37,1.45-0.08c0.35,0.24,0.45,0.72,0.47,1.16 c0.08,1.96-0.9,3.77-1.58,5.6c-1.46,3.94-1.56,8.39-0.27,12.39c0.49,1.51,1.16,2.98,1.33,4.56c0.04,0.4,0.05,0.82-0.12,1.18 c-0.56,1.18-2.28,0.83-3.42,0.26c-3.14-1.58-6.09-3.56-8.7-6.01c-6.74,5.17-15.45,7.58-23.82,6.6 c-8.37-0.98-16.32-5.35-21.74-11.95c-0.33-0.4-0.67-0.85-0.67-1.38c0-0.46,0.25-0.88,0.51-1.25c4.82-7.13,13.16-11.43,21.63-11.94 C404.56,315.83,413.05,318.91,419.96,324.06z" style="fill: rgb(219, 239, 52); stroke: rgb(220, 241, 52); stroke-miterlimit: 10;"/>
    <path class="st31" d="M472.9,316.83c-1.72-2.43-4.17-4.39-6.98-5.58c-0.96-0.41-2.23-0.68-2.95,0.06 c-0.74,0.76-0.32,1.95-0.11,2.97c0.45,2.16-0.29,4.37-0.5,6.57c-0.34,3.57,0.67,7.44-1.16,10.58c-0.64,1.09-1.63,2.19-1.37,3.41 c0.28,1.32,1.98,1.98,3.36,1.69c1.38-0.29,2.48-1.24,3.5-2.17c1.13-1.03,2.26-2.1,3.04-3.39c0.91-1.52,1.28-3.27,1.63-4.98 c0.41-1.99,0.82-3.98,1.23-5.98C472.92,318.41,473.13,316.5,472.9,316.83z" style="fill: rgb(217, 193, 60); stroke: rgb(218, 193, 61); stroke-miterlimit: 10;"/>
    <path class="st33" d="M456.45,320.76c-2.34-1.9-5-3.44-7.85-4.53c-0.33-0.13-0.73-0.24-1.03-0.05c-0.25,0.16-0.32,0.48-0.33,0.76 c-0.06,1.29,0.64,2.49,1.12,3.7c1.04,2.6,1.1,5.54,0.19,8.18c-0.34,1-0.83,1.96-0.94,3.01c-0.03,0.26-0.03,0.54,0.09,0.78 c0.4,0.78,1.61,0.55,2.43,0.17c2.23-1.04,4.32-2.35,6.17-3.96c4.78,3.41,10.96,5,16.9,4.36c5.94-0.65,11.57-3.53,15.42-7.88 c0.23-0.26,0.47-0.56,0.48-0.91c0-0.3-0.18-0.58-0.36-0.83c-3.42-4.71-9.34-7.54-15.34-7.88 C467.38,315.33,461.36,317.36,456.45,320.76z" style="fill: rgb(151, 166, 47); stroke: rgb(151, 167, 47); stroke-miterlimit: 10;"/>
    <g id="Layer_6">
      <path class="st35" d="M312.19,324.56c1.35,1.63,2.71,3.26,4.06,4.89" style="fill: none; stroke: rgb(54, 59, 19); stroke-miterlimit: 10;"/>
      <path class="st35" d="M312.38,329.37c1.22-1.73,2.44-3.46,3.65-5.19" style="fill: none; stroke: rgb(54, 59, 19); stroke-miterlimit: 10;"/>
      <path class="st35" d="M378.9,325.38c1.58,1.69,3.15,3.39,4.73,5.08" style="fill: none; stroke: rgb(54, 59, 19); stroke-miterlimit: 10;"/>
      <path class="st35" d="M378.87,330.66c1.5-2.04,3-4.08,4.5-6.12" style="fill: none; stroke: rgb(54, 59, 19); stroke-miterlimit: 10;"/>
      <path class="st35" d="M479.8,320.92c1.51,1.68,3.03,3.36,4.54,5.04" style="fill: none; stroke: rgb(54, 59, 19); stroke-miterlimit: 10;"/>
      <path class="st35" d="M483.91,320.79c-1.35,1.92-2.71,3.84-4.06,5.76" style="fill: none; stroke: rgb(54, 59, 19); stroke-miterlimit: 10;"/>
    </g>
  </g>
</svg>