<?xml version="1.0" encoding="utf-8"?>
<svg viewBox="0 0 500 500" xmlns="http://www.w3.org/2000/svg">
  <path d="M 168.057 440.225 L 168.057 442.785 L 133.306 442.785 L 133.288 439.225 L 133.164 410.745 L 146.99 410.745 L 146.99 428.545 L 163.738 434.212 C 166 434.972 167.612 436.919 167.976 439.225 C 168.029 439.559 168.057 439.892 168.057 440.225" style="fill:#8459b3;fill-opacity:1;fill-rule:nonzero;stroke:none" id="path742"/>
  <path d="M 146.99 410.745 L 146.99 426.759 L 133.234 426.759 L 133.164 410.745 L 146.99 410.745" style="fill:#f4be0a;fill-opacity:1;fill-rule:nonzero;stroke:none" id="path744"/>
  <path d="M 168.057 440.225 L 168.057 442.785 L 133.306 442.785 L 133.288 439.225 L 167.976 439.225 C 168.029 439.559 168.057 439.892 168.057 440.225" style="fill:#192137;fill-opacity:1;fill-rule:nonzero;stroke:none" id="path746"/>
  <path d="M 108.112 442.199 L 108.112 444.759 L 73.361 444.759 L 73.344 441.199 L 73.219 412.705 L 87.047 412.705 L 87.047 430.519 L 103.793 436.172 C 106.055 436.945 107.667 438.892 108.032 441.199 C 108.085 441.532 108.112 441.852 108.112 442.199" style="fill:#8459b3;fill-opacity:1;fill-rule:nonzero;stroke:none" id="path748"/>
  <path d="M 87.047 412.705 L 87.047 428.732 L 73.289 428.732 L 73.219 412.705 L 87.047 412.705" style="fill:#f4be0a;fill-opacity:1;fill-rule:nonzero;stroke:none" id="path750"/>
  <path d="M 108.112 442.199 L 108.112 444.759 L 73.361 444.759 L 73.344 441.199 L 108.032 441.199 C 108.085 441.532 108.112 441.852 108.112 442.199" style="fill:#192137;fill-opacity:1;fill-rule:nonzero;stroke:none" id="path752"/>
  <path d="M 159.201 371.985 C 158.06 387.145 158.302 404.452 157.221 419.545 C 156.689 426.985 154.741 425.879 148.3 426.212 C 142.588 426.505 137.045 427.465 131.273 427.332 C 129.292 427.292 127.207 427.145 125.528 426.092 C 121.336 423.439 123.749 410.679 123.743 406.412 C 123.743 397.785 123.868 386.545 123.953 377.919 C 124.131 361.199 124.228 344.479 123.225 327.772 C 122.34 313.119 120.995 298.492 119.197 283.919 C 118.779 280.546 117.539 252.532 111.367 255.452 C 108.644 256.746 108.861 262.919 108.421 265.572 C 107.563 270.692 107.471 275.946 107.379 281.132 C 107.011 301.319 105.752 321.186 104.375 341.092 C 103.272 357.079 103.896 373.092 103.587 389.105 C 103.443 396.505 101.791 418.092 99.783 425.679 C 97.756 433.359 77.436 430.639 70.012 427.999 C 69.808 427.932 69.619 427.852 69.428 427.785 C 68.68 427.492 67.912 427.159 67.427 426.519 C 66.752 425.639 66.811 424.425 66.903 423.305 C 70.333 382.039 69.999 340.599 71.408 299.252 C 72.124 278.252 73.279 257.266 75.593 236.386 C 76.072 232.066 75.731 226.159 77.495 221.839 C 78.368 219.706 79.759 217.959 82.015 216.972 C 87.432 214.626 98.38 217.066 103.955 218.079 C 104.86 218.239 105.765 218.039 106.669 218.186 C 107.411 218.306 108.08 218.506 108.841 218.506 C 109.583 218.506 110.356 218.412 111.091 218.479 C 111.845 218.559 112.515 218.839 113.275 218.852 C 120.123 219.039 138.382 216.306 142.41 223.466 C 143.158 224.786 143.394 226.332 143.624 227.826 C 143.833 229.212 144.05 230.599 144.273 231.972 C 146.654 246.826 149.724 261.332 152.642 276.132 C 155.417 290.239 158.204 304.386 159.522 318.706 C 161.162 336.425 160.533 354.265 159.201 371.985" style="fill:#8b9fd8;fill-opacity:1;fill-rule:nonzero;stroke:none" id="path754"/>
  <path d="M 144.273 231.972 C 142.43 232.026 140.566 231.959 138.73 231.892 C 121.008 231.266 93.184 232.546 77.495 221.839 C 78.368 219.706 79.759 217.959 82.015 216.972 C 87.432 214.626 98.38 217.066 103.955 218.079 C 104.86 218.239 105.765 218.039 106.669 218.186 C 107.411 218.306 108.08 218.506 108.841 218.506 C 109.583 218.506 110.356 218.412 111.091 218.479 C 111.845 218.559 112.515 218.839 113.275 218.852 C 120.123 219.039 138.382 216.306 142.41 223.466 C 143.158 224.786 143.394 226.332 143.624 227.826 C 143.833 229.212 144.05 230.599 144.273 231.972" style="fill:#1a2037;fill-opacity:1;fill-rule:nonzero;stroke:none" id="path756"/>
  <path d="M 26.152 242.412 C 26.244 243.319 26.349 244.212 26.467 245.106 C 28.153 258.079 30.823 270.626 34.024 283.252 C 35.008 287.119 36.024 291.079 38.176 294.439 C 39.028 295.786 41.508 298.959 43.796 299.879 C 41.416 297.199 39.107 293.706 37.453 288.052 C 37.381 287.812 37.52 287.559 37.763 287.479 C 38.011 287.412 38.26 287.546 38.333 287.799 C 40.123 293.919 42.629 297.372 45.252 300.106 C 45.515 300.079 45.777 299.999 46.013 299.852 L 46.092 299.799 C 43.095 295.532 40.812 290.266 40.333 287.119 C 40.3 286.879 40.464 286.639 40.713 286.599 C 40.976 286.559 41.199 286.732 41.239 286.986 C 41.691 289.946 43.908 295.039 46.781 299.159 C 48.184 297.172 45.364 293.652 44.695 291.906 C 43.875 289.759 41.895 284.319 44.596 282.972 C 45.719 284.652 46.321 286.639 47.115 288.492 C 47.267 288.839 47.535 289.266 47.916 289.212 C 48.309 289.146 48.413 288.639 48.427 288.239 C 48.617 280.119 43.62 272.972 42.616 264.959 C 41.659 257.332 41.376 249.612 41.756 241.919 C 41.933 238.239 42.268 234.559 42.747 230.892 C 43.003 228.946 45.2 218.439 47.364 210.186 C 46.387 209.799 45.265 209.466 43.973 209.173 C 42.117 208.759 34.811 206.333 28.999 203.279 C 25.72 215.999 24.781 229.439 26.152 242.412" style="fill:#f4be0a;fill-opacity:1;fill-rule:nonzero;stroke:none" id="path758"/>
  <path d="M 118.205 103.466 L 118.205 132.813 C 118.205 134.213 117.963 135.559 117.519 136.826 C 115.863 141.573 111.328 145.013 106.012 145.013 C 99.297 145.013 93.807 139.519 93.807 132.813 L 93.807 103.466 L 118.205 103.466" style="fill:#f4be0a;fill-opacity:1;fill-rule:nonzero;stroke:none" id="path760"/>
  <path d="M 100.723 115.039 L 100.723 117.066 C 100.723 118.426 100.952 119.759 101.343 120.986 C 103.011 126.266 107.963 130.133 113.763 130.173 L 113.763 115.039 L 100.723 115.039" style="fill:#192137;fill-opacity:1;fill-rule:nonzero;stroke:none" id="path762"/>
  <path d="M 122.715 99.119 C 122.605 100.026 122.063 100.866 121.363 101.466 C 120.573 102.159 119.599 102.586 118.624 102.946 C 118.185 103.119 117.728 103.293 117.4 103.626 C 117.099 103.933 116.936 104.346 116.808 104.759 C 115.879 107.719 116.329 111.626 113.256 113.213 C 109.785 115.013 105.088 115.399 101.261 115.159 C 98.785 115.013 96.067 114.346 94.721 112.279 C 93.659 110.639 93.672 108.639 93.793 106.639 C 93.672 105.186 93.632 103.733 93.793 102.293 C 93.765 102.159 93.739 102.039 93.712 101.893 C 93.188 99.479 92.044 96.639 93.685 94.773 C 95.044 93.226 97.453 93.439 99.364 92.639 C 99.808 92.359 100.265 92.106 100.737 91.866 C 101.679 91.186 102.513 90.346 103.428 89.639 C 105.111 88.36 107.183 87.52 109.309 87.493 C 110.48 87.48 111.677 87.733 112.728 88.226 C 113.589 88.626 114.369 89.213 114.975 89.933 C 115.984 91.133 116.441 92.853 117.559 93.946 C 118.528 94.879 119.844 95.039 120.981 95.826 C 121.953 96.506 122.728 97.586 122.735 98.759 L 122.715 99.119" style="fill:#192137;fill-opacity:1;fill-rule:nonzero;stroke:none" id="path764"/>
  <path d="M 96.013 101.826 L 96.013 114.026 C 96.013 114.826 96.093 115.613 96.241 116.373 C 96.323 116.919 96.457 117.439 96.619 117.946 L 96.672 118.133 L 96.685 118.133 C 98.408 123.333 103.347 127.133 109.12 127.133 L 110.856 127.133 C 114.813 127.133 118.043 123.906 118.043 119.946 L 118.043 103.159 C 118.043 98.466 114.208 94.626 109.524 94.626 L 103.199 94.626 C 99.243 94.626 96.013 97.879 96.013 101.826" style="fill:#f4be0a;fill-opacity:1;fill-rule:nonzero;stroke:none" id="path766"/>
  <path d="M 114.824 112.506 L 111.852 112.493 L 111.855 111.493 L 113.815 111.493 L 113.815 105.439 L 114.824 105.439 L 114.824 112.506" style="fill:#192137;fill-opacity:1;fill-rule:nonzero;stroke:none" id="path768"/>
  <path d="M 116.845 108.306 L 116.845 108.306 C 117.308 108.306 117.687 107.919 117.687 107.466 C 117.687 106.999 117.308 106.626 116.845 106.626 C 116.383 106.626 116.004 106.999 116.004 107.466 C 116.004 107.919 116.383 108.306 116.845 108.306" style="fill:#192137;fill-opacity:1;fill-rule:nonzero;stroke:none" id="path770"/>
  <path d="M 108.097 108.306 L 108.097 108.306 C 108.56 108.306 108.939 107.919 108.939 107.466 C 108.939 106.999 108.56 106.626 108.097 106.626 C 107.635 106.626 107.257 106.999 107.257 107.466 C 107.257 107.919 107.635 108.306 108.097 108.306" style="fill:#192137;fill-opacity:1;fill-rule:nonzero;stroke:none" id="path772"/>
  <path d="M 113.117 115.626 C 109.496 115.626 106.233 113.439 104.864 110.079 L 102.211 104.933 L 101.105 101.786 C 100.845 99.439 102.427 97.213 104.865 96.759 C 106.113 96.533 107.403 96.906 108.449 97.626 L 114.284 101.626 C 115.411 102.399 116.679 102.919 118.005 103.173 C 118.592 102.519 118.543 102.573 119.129 101.919 C 118.089 98.386 116.585 94.933 113.071 93.319 C 110.984 92.359 108.556 92.319 106.301 92.239 C 105.604 92.226 104.285 92.479 103.659 92.213 C 103.232 92.026 102.972 92.039 102.865 92.053 C 102.092 92.853 101.213 93.399 100.288 93.733 C 98.627 94.346 97.211 95.479 96.284 96.986 C 94.844 99.319 94.388 102.133 95.016 104.813 L 96.013 109.053 L 100.724 110.879 L 100.724 122.413 C 100.724 127.199 104.412 131.373 109.196 131.519 C 114.145 131.666 118.205 127.693 118.205 122.786 L 118.427 113.239 C 117.791 114.053 113.117 115.626 113.117 115.626" style="fill:#192137;fill-opacity:1;fill-rule:nonzero;stroke:none" id="path774"/>
  <path d="M 99.351 111.199 L 99.351 113.173 C 99.351 114.666 98.153 115.879 96.66 115.879 C 95.543 115.879 94.533 115.426 93.807 114.679 L 93.807 108.106 C 94.304 107.693 94.924 107.453 95.623 107.453 C 96.66 107.453 97.588 107.879 98.261 108.546 C 98.933 109.226 99.351 110.159 99.351 111.199" style="fill:#192137;fill-opacity:1;fill-rule:nonzero;stroke:none" id="path776"/>
  <path d="M 100.723 115.039 L 96.78 115.039 C 94.309 115.039 92.305 113.039 92.305 110.559 L 92.305 109.933 C 92.305 108.106 93.789 106.626 95.621 106.626 L 96.536 106.626 C 98.848 106.626 100.723 108.493 100.723 110.813 L 100.723 115.039" style="fill:#f4be0a;fill-opacity:1;fill-rule:nonzero;stroke:none" id="path778"/>
  <path d="M 271.588 240.517 C 272.193 239.393 272.129 239.544 271.588 240.517" style="fill: rgb(174, 226, 249); fill-opacity: 1; fill-rule: nonzero; stroke: none;" id="path780"/>
  <path d="M 188.505 169.474 C 188.505 169.474 170.961 151.746 153.641 136.533 C 142.794 126.999 134.768 130.959 121.627 132.119 C 107.595 133.373 93.528 133.213 79.599 130.973 C 77.727 130.666 75.825 130.599 73.96 130.746 C 70.252 130.519 66.456 130.986 63.629 131.693 C 53.196 134.266 47.167 142.719 42.876 152.853 C 36.637 167.653 30.431 182.533 25.929 197.973 C 21.347 213.692 21.225 227.492 21.208 243.919 C 21.203 248.559 21.229 253.359 23.099 257.599 C 24.969 261.852 29.208 265.426 33.832 264.999 C 37.984 264.626 41.315 261.146 42.845 257.266 C 44.376 253.386 44.473 249.119 44.689 244.959 C 45.88 221.946 49.576 198.146 64.503 179.893 C 65.017 179.266 65.583 178.599 66.184 177.906 C 66.881 179.346 67.577 180.759 68.253 182.093 C 74.005 193.426 70.599 207.239 75.504 219.159 C 75.837 219.972 76.632 220.506 77.531 220.506 C 78.156 220.506 78.781 220.519 79.407 220.519 C 81.596 220.279 83.835 220.372 86.077 220.599 C 95.401 220.759 104.723 221.119 114.049 221.239 C 124.7 221.386 135.596 223.319 145.918 220.599 C 147.126 220.279 148.096 219.372 148.526 218.212 C 148.942 217.079 149.408 215.866 149.646 215.279 C 150.764 212.532 150.802 210.172 150.824 207.199 C 150.852 203.519 151.853 199.919 151.832 196.226 C 151.814 193.093 152.21 178.106 155.082 176.853 C 157.513 175.786 173.44 182.043 176.164 183.776 C 185.878 189.949 170.466 218.346 181.32 211.719 C 191.262 205.652 186.501 221.463 194.414 212.85 C 196.647 210.41 196.676 200.586 197.692 197.439 C 198.084 196.226 197.972 191.786 197.378 187.755 C 196.7 183.146 195.497 178.966 195.497 178.966" style="fill-opacity: 1; fill-rule: nonzero; stroke: none; fill: rgb(249, 174, 243);" id="path782"/>
  <path d="M 178.785 217.538 C 178.573 215.658 178.924 213.778 180.468 211.845 C 189.72 200.298 192.441 224.404 191.401 229.858 C 191.333 230.204 191.239 230.618 190.963 230.978 C 190.772 231.218 190.533 231.391 190.308 231.551 L 190.241 231.604 C 189.808 231.911 189.471 231.778 189.532 231.311 L 189.537 231.271 C 190.004 227.711 189.937 224.471 189.339 221.644 C 189.316 221.551 189.188 221.564 189.064 221.684 L 188.931 221.991 C 189.301 224.724 189.655 227.471 189.227 230.738 L 189.125 231.511 C 189.056 232.044 188.6 232.698 188.089 233.004 L 187.823 233.164 C 187.415 233.404 187.125 233.244 187.183 232.804 C 187.649 229.244 187.583 226.004 186.983 223.191 C 186.961 223.084 186.833 223.098 186.709 223.218 L 186.575 223.538 C 186.943 226.284 187.293 229.044 186.863 232.338 L 186.771 233.044 C 186.716 233.458 186.337 233.978 185.944 234.178 C 185.725 234.284 185.508 234.378 185.291 234.484 C 184.911 234.658 184.66 234.471 184.707 234.071 C 184.751 233.698 184.795 233.298 184.799 233.271 C 185.265 229.711 185.047 227.818 184.448 224.991 C 184.425 224.884 184.297 224.898 184.173 225.031 L 184.041 225.351 C 184.616 228.058 184.693 231.151 184.273 234.551 C 184.107 234.778 184.047 234.844 183.877 235.071 C 183.58 235.178 183.277 235.284 183.047 235.231 C 182.545 235.138 182.525 234.418 182.521 233.778 C 182.5 230.764 181.987 227.818 181.083 224.951 C 180.284 222.418 179.06 219.978 178.785 217.538" style="fill:#f4be0a;fill-opacity:1;fill-rule:nonzero;stroke:none" id="path846"/>
  <g id="Layer_14" transform="matrix(1, 0, 0, 1, 73.261003, -162.645496)">
    <path class="st3" d="M55.3,425.04c32.97-2.99,66.21,3.2,96.91,16.1c0.28,2.62-18.27,13.13-25.86,16.35 c-5.9,2.5-11.99,4.35-17.96,3.93c-5.78-0.41-11.24-2.93-16.61-5.42C77.61,449.42,62.23,443.25,55.3,425.04z" style="fill: rgb(107, 107, 107); stroke: rgb(107, 107, 107); stroke-miterlimit: 10;"/>
  </g>
  <g id="Layer_15" transform="matrix(1, 0, 0, 1, 73.261003, -162.645496)">
    <path class="st4" d="M54.53,432.33c1.23-8.67,3.76-17.29,8.76-24.79s12.64-13.82,22.03-16.61c10.86-3.23,22.93-1.54,34.02,1.42 c4.45,1.19,8.91,2.61,12.61,5.1c3.5,2.36,6.15,5.56,8.48,8.85c7.51,10.65,12.14,22.84,12.83,35.28c-0.03,0.44-0.06,0.88-0.09,1.35 c-1.53,0.16-3.06,0.33-5.48,0.3c2.52-12.56-1.81-26.16-11.45-35.91s-24.37-15.45-38.93-15.06c-6.56,0.18-13.15,1.57-18.6,4.7 c-5.03,2.89-8.88,7.12-11.97,11.65c-5.48,8.03-8.8,17.2-9.69,26.7C55.16,435.15,53.59,433.44,54.53,432.33z" style="fill: rgb(190, 189, 189); stroke: rgb(189, 189, 189); stroke-miterlimit: 10;"/>
  </g>
  <g id="Layer_18" transform="matrix(1, 0, 0, 1, 73.261003, -162.645496)">
    <path class="st5" d="M113.35,461.02c4.35-9.52,12.12-17.63,21.88-21.43c9.75-3.8,21.44-2.91,29.96,3.16 c2.25,1.6,4.29,3.54,6.82,4.63c2.53,1.09,5.81,1.11,7.72-0.88c2.21-2.3,1.61-6.17-0.08-8.88c-4.43-7.11-13.86-8.96-22.22-9.45 c-7.67-0.45-15.67-0.26-22.56,3.12c-7.93,3.9-13.29,11.44-18.98,18.2c-1.06,1.26-2.72,2.63-4.17,1.83 c-1.25-0.69-1.27-2.46-1.04-3.86c2.93-18,20.52-32.4,38.74-31.72c1.76,0.07,3.96,0.02,4.73-1.57c1.11-2.29-2.08-4.25-4.6-4.59 c-9.77-1.3-19.85,2.11-27.57,8.23s-13.2,14.77-16.58,24.02c-1.53,4.19-2.66,8.79-1.44,13.09 C105.18,459.22,109.48,462.91,113.35,461.02z" style="fill: rgb(142, 209, 227); stroke: rgb(142, 209, 227); stroke-miterlimit: 10;"/>
    <path class="st5" d="M84.34,438.54c0.28-9.47-5.76-18.14-13.2-23.99c-6.42-5.04-14.33-8.6-22.5-8.37s-16.45,4.79-19.67,12.29 c-0.57,1.34-0.99,2.79-0.8,4.24c0.58,4.4,6.33,6.17,10.63,5.04c4.29-1.13,7.95-4.05,12.23-5.21c6.04-1.65,12.79,0.54,17.28,4.9 S75.17,438.08,84.34,438.54z" style="fill: rgb(142, 209, 227); stroke: rgb(142, 209, 227); stroke-miterlimit: 10;"/>
    <path class="st5" d="M177.18,459.19c1.49,4.45,1.5,9.39,0.04,13.85c-1.23,3.76-3.51,7.67-2.19,11.4 c1.49,4.23,8.02,5.44,10.93,2.03c1.92-2.26,2.05-5.62,1.13-8.44c-0.92-2.82-2.72-5.25-4.4-7.69 C180.3,466.87,178.12,463.27,177.18,459.19z" style="fill: rgb(142, 209, 227); stroke: rgb(142, 209, 227); stroke-miterlimit: 10;"/>
    <path class="st5" d="M32.16,445.7c-6.06,4.69-10.7,11.2-13.15,18.47c-1.04,3.08-1.69,6.43-0.89,9.59c0.8,3.15,3.36,6.03,6.6,6.36 c3.39,0.34,6.51-2.13,8.19-5.09c1.38-2.43,2.04-5.27,1.89-8.06c-0.2-3.61-1.71-7-2.81-10.44S30.23,449.23,32.16,445.7z" style="fill: rgb(142, 209, 227); stroke: rgb(142, 209, 227); stroke-miterlimit: 10;"/>
  </g>
  <path class="st1" d="M 191.92 375.574 C 191.92 375.574 151.82 369.504 136.33 367.144 C 130.22 332.814 126.99 294.654 128.29 261.724 C 161.38 273.614 192.43 279.064 226.05 278.984 C 220.47 315.634 191.92 375.574 191.92 375.574 Z" style="fill: rgb(161, 161, 162); stroke: rgb(161, 161, 161); stroke-miterlimit: 10; fill-rule: nonzero;"/>
  <g id="Layer_20" transform="matrix(1, 0, 0, 1, -3.264431, -60.691743)">
    <path class="st18" d="M 94.346 176.779 C 91.926 178.086 89.208 179.823 88.591 183.08 C 88.493 183.599 88.459 184.162 88.605 184.662 C 89.036 186.112 90.78 186.175 91.677 185.125 C 92.573 184.074 92.837 182.437 93.063 180.911 C 93.283 179.392 93.562 177.748 94.346 176.779 Z" style="fill: rgb(142, 213, 231); stroke: rgb(142, 213, 231); stroke-miterlimit: 10;"/>
    <path class="st18" d="M 90.658 162.082 C 90.208 163.433 89.123 164.457 88.086 165.433 C 87.048 166.402 85.97 167.446 85.554 168.804 C 85.137 170.162 85.656 171.923 87 172.38 C 88.386 172.851 89.88 171.704 90.372 170.333 C 90.863 168.961 90.631 167.446 90.467 165.999 C 90.303 164.546 90.222 162.983 90.658 162.082 Z" style="fill: rgb(142, 213, 231); stroke: rgb(142, 213, 231); stroke-miterlimit: 10;"/>
    <path class="st18" d="M 107.754 170.993 C 107.187 171.481 106.459 171.774 105.96 172.33 C 105.462 172.887 105.319 173.9 105.953 174.301 C 106.43 174.604 107.11 174.361 107.44 173.9 C 107.769 173.438 107.812 172.831 107.759 172.267 C 107.704 171.747 107.617 171.125 107.754 170.993 Z" style="fill: rgb(142, 213, 231); stroke: rgb(142, 213, 231); stroke-miterlimit: 10;"/>
  </g>
  <g id="Fish_tank" transform="matrix(0.811075, 0, 0, 0.811075, 53.023496, -33.774892)" style="">
    <g>
      <rect x="256.41" y="269.48" class="st19" width="261.74" height="144.74" style="fill: rgb(208, 237, 239); stroke: rgb(209, 238, 239); stroke-miterlimit: 10;"/>
      <path class="st20" d="M464.98,388.92c2.5-5.42,5.05-11.52,3.1-17.16c-2.65-7.68-12.23-10.73-16.68-17.55 c-3.52-5.38-3.34-12.24-3.03-18.64c0.57-12.08,1.14-24.16,1.71-36.24c0.03-0.7,0.09-1.45,0.54-1.99c0.85-1.01,2.65-0.61,3.43,0.46 s0.82,2.48,0.78,3.79c-0.42,13.92-5.98,28.11-1.87,41.43c0.85,2.75,2.77,5.81,5.68,5.67c3.81-0.19,4.82-5.23,4.77-8.99 c-0.22-16.31,0.65-32.63,2.61-48.83c0.28-2.3,1.09-5.14,3.41-5.49c2.84-0.42,4.29,3.28,4.36,6.12c0.41,16.34-9.58,32.7-4.75,48.33 c0.85,2.74,3.43,5.86,6.04,4.59c1.03-0.5,1.64-1.57,2.12-2.6c5.17-10.95,4.37-24.88,12.93-33.52c1.06-1.07,2.5-2.09,3.97-1.73 c1.76,0.43,2.48,2.67,1.95,4.38s-1.91,3.01-3.14,4.31c-8.48,8.94-12.43,21.87-10.38,33.94c5.53,1.48,10.54-8.24,15.33-5.13 c1.97,1.28,2.15,4.26,0.9,6.23c-1.25,1.97-3.52,3.08-5.77,3.77c-5.46,1.67-11.5,1.38-16.8-0.73c-1.72-0.68-3.59-1.57-5.35-0.99 c-2.21,0.73-3.09,3.51-2.58,5.76c0.5,2.25,1.98,4.14,3.17,6.12C476.43,372.63,476.34,383.77,464.98,388.92z" style="fill: rgb(149, 154, 202); stroke: rgb(149, 154, 202); stroke-miterlimit: 10;"/>
      <path class="st21" d="M288.94,403.67c1.17-1.54-0.81-3.58-2.68-4.09c-1.88-0.51-4.18-0.66-5.15-2.33c2.24,0.65,4.52,1.15,6.82,1.5 c-2.14-3.08-4.28-6.17-6.42-9.25c2.18,2.16,4.59,4.09,7.18,5.76c-0.25-4.09-0.51-8.18-0.79-12.27c1.45,2.66,2.9,5.33,4.34,7.99 c1.15-4.44,2.3-8.87,3.44-13.31c0.43,3.64,1.01,7.26,1.74,10.85c2.57-2.24,4.85-4.8,6.79-7.59c-0.35,3.14-0.92,6.25-1.71,9.31 c3.06-1.39,6.04-2.97,8.9-4.74c-1.47,2.37-2.95,4.75-4.42,7.12c2.58-0.52,5.16-1.04,7.74-1.56c-2.07,1.3-4.14,2.6-6.21,3.9 c2.22-0.26,4.44-0.52,6.66-0.78c-1.19,0.94-2.37,1.87-3.56,2.81c1.2,0.02,2.41,0.05,3.61,0.07c-0.17,1.07-0.78,2.07-1.67,2.71 c0.74,0.01,1.47,0.02,2.21,0.04c0.19,1.86-2.25,2.72-4.14,2.93c-4.82,0.55-9.64,1.1-14.45,1.65 C294.06,404.75,290.61,405.03,288.94,403.67z" style="fill: rgb(105, 138, 86); stroke: rgb(105, 138, 86); stroke-miterlimit: 10;"/>
      <path class="st22" d="M438.69,393.33c1.17-1.54-0.81-3.58-2.68-4.09c-1.88-0.51-4.18-0.66-5.15-2.33c2.24,0.65,4.52,1.15,6.82,1.5 c-2.14-3.08-4.28-6.17-6.42-9.25c2.18,2.16,4.59,4.09,7.18,5.76c-0.25-4.09-0.51-8.18-0.79-12.27c1.45,2.66,2.9,5.33,4.34,7.99 c1.15-4.44,2.3-8.87,3.44-13.31c0.43,3.64,1.01,7.26,1.74,10.85c2.57-2.24,4.85-4.8,6.79-7.59c-0.35,3.14-0.92,6.25-1.71,9.31 c3.06-1.39,6.04-2.97,8.9-4.74c-1.47,2.37-2.95,4.75-4.42,7.12c2.58-0.52,5.16-1.04,7.74-1.56c-2.07,1.3-4.14,2.6-6.21,3.9 c2.22-0.26,4.44-0.52,6.66-0.78c-1.19,0.94-2.37,1.87-3.56,2.81c1.2,0.02,2.41,0.05,3.61,0.07c-0.17,1.07-0.78,2.07-1.67,2.71 c0.74,0.01,1.47,0.02,2.21,0.04c0.19,1.86-2.25,2.72-4.14,2.93c-4.82,0.55-9.64,1.1-14.45,1.65 C443.82,394.4,440.37,394.69,438.69,393.33z" style="fill: rgb(105, 138, 86);"/>
      <path class="st22" d="M476.14,384.45c1.17-1.54-0.81-3.58-2.68-4.09s-4.18-0.66-5.15-2.33c2.24,0.65,4.52,1.15,6.82,1.5 c-2.14-3.08-4.28-6.17-6.42-9.25c2.18,2.16,4.59,4.09,7.18,5.76c-0.25-4.09-0.51-8.18-0.79-12.27c1.45,2.66,2.9,5.33,4.34,7.99 c1.15-4.44,2.3-8.87,3.44-13.31c0.43,3.64,1.01,7.26,1.74,10.85c2.57-2.24,4.85-4.8,6.79-7.59c-0.35,3.14-0.92,6.25-1.71,9.31 c3.06-1.39,6.04-2.97,8.9-4.74c-1.47,2.37-2.95,4.75-4.42,7.12c2.58-0.52,5.16-1.04,7.74-1.56c-2.07,1.3-4.14,2.6-6.21,3.9 c2.22-0.26,4.44-0.52,6.66-0.78c-1.19,0.94-2.37,1.87-3.56,2.81c1.2,0.02,2.41,0.05,3.61,0.07c-0.17,1.07-0.78,2.07-1.67,2.71 c0.74,0.01,1.47,0.02,2.21,0.04c0.19,1.86-2.25,2.72-4.14,2.93c-4.82,0.55-9.64,1.1-14.45,1.65 C481.26,385.52,477.81,385.81,476.14,384.45z" style="fill: rgb(105, 138, 86);"/>
      <path class="st23" d="M339.6,397.2c-3.35-8.13-6.71-16.26-10.06-24.39c2.53,1.79,3.34,5.05,4.43,7.93 c1.09,2.87,3.22,5.94,6.33,5.98c-3.57-2.54-2.16-7.93-1.23-12.17c0.96-4.41,0.97-9.01,0.01-13.42c1.96,3.69,1.3,8.12,1,12.28 s0.05,8.89,3.27,11.59c-2.38-10.78,7.43-20.91,7-31.94c0.51,5.23-1.59,10.32-3,15.39c-1.41,5.07-2.02,10.92,1.06,15.21 c-1.97-4,1.74-8.26,4.6-11.7c4.06-4.89,6.86-10.79,8.07-17c-0.31,5.24-3.13,9.95-5.37,14.72c-2.23,4.76-3.94,10.3-1.97,15.18 c-0.33-3.45,3.36-5.73,6.19-7.79c4.32-3.13,7.63-7.59,9.35-12.59c-0.78,4.22-2.77,8.22-5.68,11.41c-1.5,1.65-3.28,3.14-4.21,5.16 c-0.93,2.02-0.63,4.84,1.35,5.9c-0.7-3.66,2.37-6.88,5.32-9.21c2.94-2.33,6.31-4.98,6.5-8.7c-0.39,2.86-0.83,5.87-2.62,8.17 c-1.28,1.64-3.13,2.76-4.53,4.3c-1.4,1.54-2.31,3.89-1.24,5.67c4.81-2.99,10.12-5.2,15.65-6.51c-4.28,2.5-8.17,5.64-11.49,9.28 c4.09-3.54,12.53,0.91,15.09-3.82c0.17,3-3.82,4.19-6.86,4.48c-3.03,0.28-7.01,1.78-6.52,4.75c1.82-1.66,4.68-1.04,7.16-0.99 c7.85,0.14,14.68-8.02,13.06-15.59c3.17,5.54,0.57,13.5-5.27,16.18c-2.85,1.31-6.11,1.45-9.02,2.63c-2.9,1.18-5.57,4.13-4.67,7.1 C360.73,401.05,349.87,398.3,339.6,397.2z" style="fill: rgb(196, 212, 90); stroke: rgb(198, 212, 90); stroke-miterlimit: 10;"/>
      <path class="st24" d="M433.6,345.85c-5.9-5.93-4.88-15.52-3.45-23.71c-2.86-0.83-4.59,3.06-4.86,5.99 c-0.54,5.9-0.48,12.34,3.14,17.07c1.44,1.88,3.37,3.38,4.65,5.37c1.28,1.99,1.74,4.82,0.15,6.58 c-7.14-4.04-12.21-11.44-13.35-19.48c-1.71-0.11-2.27,2.24-2.04,3.92c1.01,7.32,5.63,14.08,12.13,17.75 c1.01,0.57,2.1,1.11,2.74,2.06c1.89,2.78-1.92,6.52-5.27,5.96c-3.34-0.56-5.67-3.48-7.66-6.19c-1.46,0.27-1.79,2.26-1.25,3.62 c2.39,6,12.38,4.93,15.91,10.35c3.5,5.37-1.86,12.56-0.21,18.73c1.78,0.98,3.95,1.26,5.93,0.75c-2.61-5.41-5.07-12.32-1.17-16.91 c2.63-3.1,7.11-3.73,10.92-5.21c3.81-1.48,7.64-5.32,6.09-9.06c-0.68-0.49-1.63,0.03-2.24,0.61c-2.39,2.25-3.83,5.44-6.55,7.28 s-7.63,1.05-7.83-2.2c-0.1-1.62,1.05-3.04,2.31-4.08c3.58-2.97,8.32-4.15,12.34-6.5c4.02-2.36,7.54-6.93,6.03-11.3 c-2.62,2.69-5.25,5.37-7.87,8.06c-1.91,1.96-3.94,3.98-6.56,4.79c-2.63,0.81-6.02-0.1-7-2.63c-0.82-2.12,0.31-4.56,2.02-6.08 c1.71-1.52,3.9-2.37,5.94-3.41c4.72-2.42,9.16-6.91,8.6-12.12c-5.88,2.31-7.73,11.41-14.04,11.84c-0.9,0.06-1.9-0.12-2.49-0.8 c-0.84-0.96-0.53-2.44-0.06-3.62c1.24-3.05,3.32-5.76,5.95-7.76c1.34-1.02,2.99-2.16,2.96-3.83c-0.04-1.74-2.12-2.9-3.86-2.57 s-3.08,1.68-4.11,3.09c-3.12,4.27-4.41,9.81-3.5,14.99C434.56,347.36,433.06,346.11,433.6,345.85z" style="fill: rgb(134, 189, 104); stroke: rgb(135, 190, 105); stroke-miterlimit: 10;"/>
      <path class="st25" d="M256.41,410.5L514,410.17c0,0-16.07-29.01-26.05-31.63c-10.97-2.88-32.1,12.22-43.41,13.18 c-9,0.76-27.1-3.42-36.06-2.31c-8.8,1.1-24.86,10.53-33.73,10.87c-8.22,0.31-23.84-7.3-32.06-7.25 c-10.91,0.08-31.57,8.96-42.41,10.21c-10.93,1.27-43.87-3.54-43.87-3.54V410.5z" style="fill: rgb(157, 131, 112); stroke: rgb(156, 130, 112); stroke-miterlimit: 10;"/>
      <rect x="256.41" y="269.48" class="st26" width="4.69" height="141" style="fill: rgb(162, 215, 224); stroke: rgb(162, 215, 224); stroke-miterlimit: 10;"/>
      <rect x="511.65" y="269.48" class="st27" width="4.69" height="141" style="fill: rgb(234, 245, 246); stroke: rgb(234, 245, 245); stroke-miterlimit: 10;"/>
      <rect x="249.01" y="253.23" class="st28" width="277" height="16.26" style="fill: rgb(197, 196, 196); stroke: rgb(197, 196, 196); stroke-miterlimit: 10;"/>
    </g>
  </g>
  <g id="g-2" transform="matrix(0.811075, 0, 0, 0.811075, 53.023496, -33.774892)" style="">
    <g>
      <path class="st31" d="M320.1,299.52c3.07-1.72,5.71-4.7,9.22-4.81c0.83-0.03,1.9,0.42,1.78,1.24c-0.08,0.54-0.67,0.84-1,1.28 c-0.54,0.72-0.35,1.73-0.22,2.62c0.13,0.89,0.1,1.98-0.66,2.46c-0.39,0.25-0.87,0.27-1.33,0.25c-1.58-0.06-3.14-0.5-4.53-1.26 C322.36,300.75,321.45,300.03,320.1,299.52z" style="fill: rgb(240, 178, 58); stroke: rgb(242, 180, 58); stroke-miterlimit: 10;"/>
      <path class="st31" d="M323.56,315.63c1.52,0.9,2.97,1.94,4.31,3.09c0.56,0.48,1.11,0.99,1.79,1.26s1.54,0.25,2.07-0.26 c0.66-0.64,0.55-1.71,0.31-2.59s-0.57-1.84-0.22-2.68c0.35-0.84,1.33-1.44,1.27-2.35c-0.04-0.62-0.6-1.11-1.21-1.25 c-0.61-0.14-1.24,0-1.84,0.17c-1.36,0.4-2.65,1.02-3.83,1.81c-0.62,0.42-1.21,0.91-1.56,1.56 C324.31,315.05,324.25,315.91,323.56,315.63z" style="fill: rgb(240, 178, 58); stroke: rgb(242, 180, 58); stroke-miterlimit: 10;"/>
      <path class="st32" d="M336.61,312.56c1.65-0.14,2.8,1.51,3.86,2.78c1.07,1.27,3.2,2.26,4.22,0.95c0.65-0.84,0.32-2.04,0.03-3.06 c-0.92-3.34-0.98-6.92-0.16-10.28c0.33-1.35,0.48-3.29-0.87-3.63c-0.43-0.1-0.88,0.02-1.27,0.2c-2.31,1.06-3.82,4.03-6.35,3.86 c-1.06-0.07-1.99-0.72-2.9-1.27c-4.17-2.55-9.28-3.51-14.09-2.67s-9.28,3.5-12.33,7.32c-0.34,0.43-0.69,0.93-0.65,1.48 c0.04,0.65,0.57,1.14,1.07,1.55c3.53,2.98,7.26,6.05,11.77,7.04C325.21,318.21,330.88,313.06,336.61,312.56z" style="fill: rgb(247, 220, 76); stroke: rgb(247, 221, 76); stroke-miterlimit: 10;"/>
      <circle class="st33" cx="311.93" cy="307.11" r="1" style="stroke: rgb(46, 45, 40); stroke-miterlimit: 10;"/>
      <circle class="st34" cx="298.84" cy="285.59" r="3.5" style="fill: rgb(255, 249, 249); stroke: rgb(254, 255, 249); stroke-miterlimit: 10;"/>
      <circle class="st34" cx="310.81" cy="293.21" r="3" style="fill: rgb(255, 249, 249); stroke: rgb(254, 255, 249); stroke-miterlimit: 10;"/>
      <path class="st31" d="M382.26,326.98c-3.67-2.11-6.83-5.79-11.04-5.93c-0.99-0.03-2.28,0.52-2.13,1.53 c0.1,0.67,0.8,1.04,1.19,1.58c0.65,0.89,0.42,2.13,0.26,3.22s-0.12,2.44,0.79,3.03c0.46,0.3,1.05,0.33,1.59,0.31 c1.89-0.08,3.76-0.61,5.42-1.55C379.56,328.5,380.65,327.61,382.26,326.98z" style="fill: rgb(240, 178, 58); stroke: rgb(242, 180, 58); stroke-miterlimit: 10;"/>
      <path class="st31" d="M378.12,346.83c-1.82,1.11-3.55,2.39-5.15,3.81c-0.67,0.59-1.33,1.22-2.15,1.55 c-0.82,0.33-1.84,0.31-2.47-0.33c-0.79-0.78-0.66-2.11-0.37-3.19c0.29-1.09,0.69-2.26,0.27-3.3c-0.42-1.03-1.59-1.78-1.52-2.9 c0.05-0.76,0.72-1.37,1.45-1.54c0.72-0.17,1.48-0.01,2.2,0.21c1.63,0.5,3.18,1.25,4.58,2.23c0.74,0.52,1.45,1.12,1.87,1.92 C377.23,346.12,377.29,347.18,378.12,346.83z" style="fill: rgb(240, 178, 58); stroke: rgb(242, 180, 58); stroke-miterlimit: 10;"/>
      <path class="st35" d="M362.51,343.06c-1.98-0.18-3.35,1.86-4.62,3.43c-1.28,1.56-3.83,2.78-5.04,1.17 c-0.78-1.03-0.38-2.51-0.04-3.77c1.11-4.12,1.17-8.52,0.19-12.67c-0.4-1.67-0.57-4.06,1.04-4.47c0.51-0.13,1.05,0.03,1.52,0.25 c2.76,1.3,4.57,4.97,7.6,4.76c1.27-0.09,2.38-0.88,3.47-1.57c4.99-3.14,11.1-4.33,16.86-3.29c5.76,1.04,11.11,4.31,14.76,9.02 c0.41,0.53,0.82,1.14,0.78,1.82c-0.05,0.8-0.68,1.4-1.28,1.92c-4.23,3.67-8.68,7.46-14.08,8.68 C376.14,350.02,369.36,343.67,362.51,343.06z" style="fill: rgb(244, 124, 77); stroke: rgb(245, 125, 79); stroke-miterlimit: 10;"/>
      <ellipse class="st33" cx="392.04" cy="336.34" rx="1.2" ry="1.23" style="stroke: rgb(46, 45, 40); stroke-miterlimit: 10;"/>
      <ellipse class="st34" cx="407.7" cy="309.82" rx="4.19" ry="4.31" style="fill: rgb(255, 249, 249); stroke: rgb(254, 255, 249); stroke-miterlimit: 10;"/>
      <ellipse class="st34" cx="393.38" cy="319.21" rx="3.59" ry="3.7" style="fill: rgb(255, 249, 249); stroke: rgb(254, 255, 249); stroke-miterlimit: 10;"/>
      <path class="st36" d="M312.45,312.76c2.98,1.69,6.13,3.42,9.56,3.42c4.03,0,7.61-2.37,11.41-3.71c1.61-0.57,3.47-0.93,4.96-0.1 c-0.26-0.68-0.39-1.41-0.39-2.13c-1.38,0.58-2.89,0.76-4.37,0.93c-7.2,0.85-14.47,1.7-21.68,1 C312.6,312.58,313.28,312.98,312.45,312.76z" style="fill: rgb(243, 173, 77); stroke: rgb(247, 221, 76); stroke-miterlimit: 10;"/>
      <path class="st37" d="M366.53,341.26c4.25,0.57,8.41,1.74,12.68,2.16s8.8,0.01,12.41-2.31c-0.65,2-2.44,3.48-4.41,4.18 s-4.67,0.7-6.22,0.58C379.28,345.74,369.07,341.17,366.53,341.26z" style="fill: rgb(245, 203, 84);"/>
    </g>
  </g>
</svg>