<?xml version="1.0" encoding="utf-8"?>
<svg viewBox="0 0 500 500" xmlns="http://www.w3.org/2000/svg">
  <path d="M 188.302 417.827 L 188.302 420.387 L 153.551 420.387 L 153.533 416.827 L 153.409 388.347 L 167.235 388.347 L 167.235 406.147 L 183.983 411.814 C 186.245 412.574 187.857 414.521 188.221 416.827 C 188.274 417.161 188.302 417.494 188.302 417.827" style="fill:#8459b3;fill-opacity:1;fill-rule:nonzero;stroke:none" id="path742"/>
  <path d="M 167.235 388.347 L 167.235 404.361 L 153.479 404.361 L 153.409 388.347 L 167.235 388.347" style="fill:#f4be0a;fill-opacity:1;fill-rule:nonzero;stroke:none" id="path744"/>
  <path d="M 188.302 417.827 L 188.302 420.387 L 153.551 420.387 L 153.533 416.827 L 188.221 416.827 C 188.274 417.161 188.302 417.494 188.302 417.827" style="fill:#192137;fill-opacity:1;fill-rule:nonzero;stroke:none" id="path746"/>
  <path d="M 128.357 419.801 L 128.357 422.361 L 93.606 422.361 L 93.589 418.801 L 93.464 390.307 L 107.292 390.307 L 107.292 408.121 L 124.038 413.774 C 126.3 414.547 127.912 416.494 128.277 418.801 C 128.33 419.134 128.357 419.454 128.357 419.801" style="fill:#8459b3;fill-opacity:1;fill-rule:nonzero;stroke:none" id="path748"/>
  <path d="M 107.292 390.307 L 107.292 406.334 L 93.534 406.334 L 93.464 390.307 L 107.292 390.307" style="fill:#f4be0a;fill-opacity:1;fill-rule:nonzero;stroke:none" id="path750"/>
  <path d="M 128.357 419.801 L 128.357 422.361 L 93.606 422.361 L 93.589 418.801 L 128.277 418.801 C 128.33 419.134 128.357 419.454 128.357 419.801" style="fill:#192137;fill-opacity:1;fill-rule:nonzero;stroke:none" id="path752"/>
  <path d="M 179.446 349.587 C 178.305 364.747 178.547 382.054 177.466 397.147 C 176.934 404.587 174.986 403.481 168.545 403.814 C 162.833 404.107 157.29 405.067 151.518 404.934 C 149.537 404.894 147.452 404.747 145.773 403.694 C 141.581 401.041 143.994 388.281 143.988 384.014 C 143.988 375.387 144.113 364.147 144.198 355.521 C 144.376 338.801 144.473 322.081 143.47 305.374 C 142.585 290.721 141.24 276.094 139.442 261.521 C 139.024 258.148 137.784 230.134 131.612 233.054 C 128.889 234.348 129.106 240.521 128.666 243.174 C 127.808 248.294 127.716 253.548 127.624 258.734 C 127.256 278.921 125.997 298.788 124.62 318.694 C 123.517 334.681 124.141 350.694 123.832 366.707 C 123.688 374.107 122.036 395.694 120.028 403.281 C 118.001 410.961 97.681 408.241 90.257 405.601 C 90.053 405.534 89.864 405.454 89.673 405.387 C 88.925 405.094 88.157 404.761 87.672 404.121 C 86.997 403.241 87.056 402.027 87.148 400.907 C 90.578 359.641 90.244 318.201 91.653 276.854 C 92.369 255.854 93.524 234.868 95.838 213.988 C 96.317 209.668 95.976 203.761 97.74 199.441 C 98.613 197.308 100.004 195.561 102.26 194.574 C 107.677 192.228 118.625 194.668 124.2 195.681 C 125.105 195.841 126.01 195.641 126.914 195.788 C 127.656 195.908 128.325 196.108 129.086 196.108 C 129.828 196.108 130.601 196.014 131.336 196.081 C 132.09 196.161 132.76 196.441 133.52 196.454 C 140.368 196.641 158.627 193.908 162.655 201.068 C 163.403 202.388 163.639 203.934 163.869 205.428 C 164.078 206.814 164.295 208.201 164.518 209.574 C 166.899 224.428 169.969 238.934 172.887 253.734 C 175.662 267.841 178.449 281.988 179.767 296.308 C 181.407 314.027 180.778 331.867 179.446 349.587" style="fill:#8b9fd8;fill-opacity:1;fill-rule:nonzero;stroke:none" id="path754"/>
  <path d="M 164.518 209.574 C 162.675 209.628 160.811 209.561 158.975 209.494 C 141.253 208.868 113.429 210.148 97.74 199.441 C 98.613 197.308 100.004 195.561 102.26 194.574 C 107.677 192.228 118.625 194.668 124.2 195.681 C 125.105 195.841 126.01 195.641 126.914 195.788 C 127.656 195.908 128.325 196.108 129.086 196.108 C 129.828 196.108 130.601 196.014 131.336 196.081 C 132.09 196.161 132.76 196.441 133.52 196.454 C 140.368 196.641 158.627 193.908 162.655 201.068 C 163.403 202.388 163.639 203.934 163.869 205.428 C 164.078 206.814 164.295 208.201 164.518 209.574" style="fill:#1a2037;fill-opacity:1;fill-rule:nonzero;stroke:none" id="path756"/>
  <path d="M 46.397 220.014 C 46.489 220.921 46.594 221.814 46.712 222.708 C 48.398 235.681 51.068 248.228 54.269 260.854 C 55.253 264.721 56.269 268.681 58.421 272.041 C 59.273 273.388 61.753 276.561 64.041 277.481 C 61.661 274.801 59.352 271.308 57.698 265.654 C 57.626 265.414 57.765 265.161 58.008 265.081 C 58.256 265.014 58.505 265.148 58.578 265.401 C 60.368 271.521 62.874 274.974 65.497 277.708 C 65.76 277.681 66.022 277.601 66.258 277.454 L 66.337 277.401 C 63.34 273.134 61.057 267.868 60.578 264.721 C 60.545 264.481 60.709 264.241 60.958 264.201 C 61.221 264.161 61.444 264.334 61.484 264.588 C 61.936 267.548 64.153 272.641 67.026 276.761 C 68.429 274.774 65.609 271.254 64.94 269.508 C 64.12 267.361 62.14 261.921 64.841 260.574 C 65.964 262.254 66.566 264.241 67.36 266.094 C 67.512 266.441 67.78 266.868 68.161 266.814 C 68.554 266.748 68.658 266.241 68.672 265.841 C 68.862 257.721 63.865 250.574 62.861 242.561 C 61.904 234.934 61.621 227.214 62.001 219.521 C 62.178 215.841 62.513 212.161 62.992 208.494 C 63.248 206.548 65.445 196.041 67.609 187.788 C 66.632 187.401 65.51 187.068 64.218 186.775 C 62.362 186.361 55.056 183.935 49.244 180.881 C 45.965 193.601 45.026 207.041 46.397 220.014" style="fill:#f4be0a;fill-opacity:1;fill-rule:nonzero;stroke:none" id="path758"/>
  <path d="M 138.45 81.068 L 138.45 110.415 C 138.45 111.815 138.208 113.161 137.764 114.428 C 136.108 119.175 131.573 122.615 126.257 122.615 C 119.542 122.615 114.052 117.121 114.052 110.415 L 114.052 81.068 L 138.45 81.068" style="fill:#f4be0a;fill-opacity:1;fill-rule:nonzero;stroke:none" id="path760"/>
  <path d="M 120.968 92.641 L 120.968 94.668 C 120.968 96.028 121.197 97.361 121.588 98.588 C 123.256 103.868 128.208 107.735 134.008 107.775 L 134.008 92.641 L 120.968 92.641" style="fill:#192137;fill-opacity:1;fill-rule:nonzero;stroke:none" id="path762"/>
  <path d="M 142.96 76.721 C 142.85 77.628 142.308 78.468 141.608 79.068 C 140.818 79.761 139.844 80.188 138.869 80.548 C 138.43 80.721 137.973 80.895 137.645 81.228 C 137.344 81.535 137.181 81.948 137.053 82.361 C 136.124 85.321 136.574 89.228 133.501 90.815 C 130.03 92.615 125.333 93.001 121.506 92.761 C 119.03 92.615 116.312 91.948 114.966 89.881 C 113.904 88.241 113.917 86.241 114.038 84.241 C 113.917 82.788 113.877 81.335 114.038 79.895 C 114.01 79.761 113.984 79.641 113.957 79.495 C 113.433 77.081 112.289 74.241 113.93 72.375 C 115.289 70.828 117.698 71.041 119.609 70.241 C 120.053 69.961 120.51 69.708 120.982 69.468 C 121.924 68.788 122.758 67.948 123.673 67.241 C 125.356 65.962 127.428 65.122 129.554 65.095 C 130.725 65.082 131.922 65.335 132.973 65.828 C 133.834 66.228 134.614 66.815 135.22 67.535 C 136.229 68.735 136.686 70.455 137.804 71.548 C 138.773 72.481 140.089 72.641 141.226 73.428 C 142.198 74.108 142.973 75.188 142.98 76.361 L 142.96 76.721" style="fill:#192137;fill-opacity:1;fill-rule:nonzero;stroke:none" id="path764"/>
  <path d="M 116.258 79.428 L 116.258 91.628 C 116.258 92.428 116.338 93.215 116.486 93.975 C 116.568 94.521 116.702 95.041 116.864 95.548 L 116.917 95.735 L 116.93 95.735 C 118.653 100.935 123.592 104.735 129.365 104.735 L 131.101 104.735 C 135.058 104.735 138.288 101.508 138.288 97.548 L 138.288 80.761 C 138.288 76.068 134.453 72.228 129.769 72.228 L 123.444 72.228 C 119.488 72.228 116.258 75.481 116.258 79.428" style="fill:#f4be0a;fill-opacity:1;fill-rule:nonzero;stroke:none" id="path766"/>
  <path d="M 135.069 90.108 L 132.097 90.095 L 132.1 89.095 L 134.06 89.095 L 134.06 83.041 L 135.069 83.041 L 135.069 90.108" style="fill:#192137;fill-opacity:1;fill-rule:nonzero;stroke:none" id="path768"/>
  <path d="M 137.09 85.908 L 137.09 85.908 C 137.553 85.908 137.932 85.521 137.932 85.068 C 137.932 84.601 137.553 84.228 137.09 84.228 C 136.628 84.228 136.249 84.601 136.249 85.068 C 136.249 85.521 136.628 85.908 137.09 85.908" style="fill:#192137;fill-opacity:1;fill-rule:nonzero;stroke:none" id="path770"/>
  <path d="M 128.342 85.908 L 128.342 85.908 C 128.805 85.908 129.184 85.521 129.184 85.068 C 129.184 84.601 128.805 84.228 128.342 84.228 C 127.88 84.228 127.502 84.601 127.502 85.068 C 127.502 85.521 127.88 85.908 128.342 85.908" style="fill:#192137;fill-opacity:1;fill-rule:nonzero;stroke:none" id="path772"/>
  <path d="M 133.362 93.228 C 129.741 93.228 126.478 91.041 125.109 87.681 L 122.456 82.535 L 121.35 79.388 C 121.09 77.041 122.672 74.815 125.11 74.361 C 126.358 74.135 127.648 74.508 128.694 75.228 L 134.529 79.228 C 135.656 80.001 136.924 80.521 138.25 80.775 C 138.837 80.121 138.788 80.175 139.374 79.521 C 138.334 75.988 136.83 72.535 133.316 70.921 C 131.229 69.961 128.801 69.921 126.546 69.841 C 125.849 69.828 124.53 70.081 123.904 69.815 C 123.477 69.628 123.217 69.641 123.11 69.655 C 122.337 70.455 121.458 71.001 120.533 71.335 C 118.872 71.948 117.456 73.081 116.529 74.588 C 115.089 76.921 114.633 79.735 115.261 82.415 L 116.258 86.655 L 120.969 88.481 L 120.969 100.015 C 120.969 104.801 124.657 108.975 129.441 109.121 C 134.39 109.268 138.45 105.295 138.45 100.388 L 138.672 90.841 C 138.036 91.655 133.362 93.228 133.362 93.228" style="fill:#192137;fill-opacity:1;fill-rule:nonzero;stroke:none" id="path774"/>
  <path d="M 119.596 88.801 L 119.596 90.775 C 119.596 92.268 118.398 93.481 116.905 93.481 C 115.788 93.481 114.778 93.028 114.052 92.281 L 114.052 85.708 C 114.549 85.295 115.169 85.055 115.868 85.055 C 116.905 85.055 117.833 85.481 118.506 86.148 C 119.178 86.828 119.596 87.761 119.596 88.801" style="fill:#192137;fill-opacity:1;fill-rule:nonzero;stroke:none" id="path776"/>
  <path d="M 120.968 92.641 L 117.025 92.641 C 114.554 92.641 112.55 90.641 112.55 88.161 L 112.55 87.535 C 112.55 85.708 114.034 84.228 115.866 84.228 L 116.781 84.228 C 119.093 84.228 120.968 86.095 120.968 88.415 L 120.968 92.641" style="fill:#f4be0a;fill-opacity:1;fill-rule:nonzero;stroke:none" id="path778"/>
  <path d="M 238.559 120.921 C 239.305 119.535 239.226 119.721 238.559 120.921" style="fill:#aee2f9;fill-opacity:1;fill-rule:nonzero;stroke:none" id="path780"/>
  <path d="M 208.75 147.076 C 208.75 147.076 191.206 129.348 173.886 114.135 C 163.039 104.601 155.013 108.561 141.872 109.721 C 127.84 110.975 113.773 110.815 99.844 108.575 C 97.972 108.268 96.07 108.201 94.205 108.348 C 90.497 108.121 86.701 108.588 83.874 109.295 C 73.441 111.868 67.412 120.321 63.121 130.455 C 56.882 145.255 50.676 160.135 46.174 175.575 C 41.592 191.294 41.47 205.094 41.453 221.521 C 41.448 226.161 41.474 230.961 43.344 235.201 C 45.214 239.454 49.453 243.028 54.077 242.601 C 58.229 242.228 61.56 238.748 63.09 234.868 C 64.621 230.988 64.718 226.721 64.934 222.561 C 66.125 199.548 69.821 175.748 84.748 157.495 C 85.262 156.868 85.828 156.201 86.429 155.508 C 87.126 156.948 87.822 158.361 88.498 159.695 C 94.25 171.028 90.844 184.841 95.749 196.761 C 96.082 197.574 96.877 198.108 97.776 198.108 C 98.401 198.108 99.026 198.121 99.652 198.121 C 101.841 197.881 104.08 197.974 106.322 198.201 C 115.646 198.361 124.968 198.721 134.294 198.841 C 144.945 198.988 155.841 200.921 166.163 198.201 C 167.371 197.881 168.341 196.974 168.771 195.814 C 169.187 194.681 169.653 193.468 169.891 192.881 C 171.009 190.134 171.047 187.774 171.069 184.801 C 171.097 181.121 172.098 177.521 172.077 173.828 C 172.059 170.695 172.455 155.708 175.327 154.455 C 177.758 153.388 193.685 159.645 196.409 161.378 C 206.123 167.551 190.711 195.948 201.565 189.321 C 211.507 183.254 206.746 199.065 214.659 190.452 C 216.892 188.012 216.921 178.188 217.937 175.041 C 218.329 173.828 218.217 169.388 217.623 165.357 C 216.945 160.748 215.742 156.568 215.742 156.568" style="fill-opacity: 1; fill-rule: nonzero; stroke: none; fill: rgb(249, 174, 243);" id="path782"/>
  <path d="M 199.03 195.14 C 198.818 193.26 199.169 191.38 200.713 189.447 C 209.965 177.9 212.686 202.006 211.646 207.46 C 211.578 207.806 211.484 208.22 211.208 208.58 C 211.017 208.82 210.778 208.993 210.553 209.153 L 210.486 209.206 C 210.053 209.513 209.716 209.38 209.777 208.913 L 209.782 208.873 C 210.249 205.313 210.182 202.073 209.584 199.246 C 209.561 199.153 209.433 199.166 209.309 199.286 L 209.176 199.593 C 209.546 202.326 209.9 205.073 209.472 208.34 L 209.37 209.113 C 209.301 209.646 208.845 210.3 208.334 210.606 L 208.068 210.766 C 207.66 211.006 207.37 210.846 207.428 210.406 C 207.894 206.846 207.828 203.606 207.228 200.793 C 207.206 200.686 207.078 200.7 206.954 200.82 L 206.82 201.14 C 207.188 203.886 207.538 206.646 207.108 209.94 L 207.016 210.646 C 206.961 211.06 206.582 211.58 206.189 211.78 C 205.97 211.886 205.753 211.98 205.536 212.086 C 205.156 212.26 204.905 212.073 204.952 211.673 C 204.996 211.3 205.04 210.9 205.044 210.873 C 205.51 207.313 205.292 205.42 204.693 202.593 C 204.67 202.486 204.542 202.5 204.418 202.633 L 204.286 202.953 C 204.861 205.66 204.938 208.753 204.518 212.153 C 204.352 212.38 204.292 212.446 204.122 212.673 C 203.825 212.78 203.522 212.886 203.292 212.833 C 202.79 212.74 202.77 212.02 202.766 211.38 C 202.745 208.366 202.232 205.42 201.328 202.553 C 200.529 200.02 199.305 197.58 199.03 195.14" style="fill:#f4be0a;fill-opacity:1;fill-rule:nonzero;stroke:none" id="path846"/>
  <g id="Layer_14" transform="matrix(1, 0, 0, 1, 93.505394, -185.043472)">
    <path class="st3" d="M55.3,425.04c32.97-2.99,66.21,3.2,96.91,16.1c0.28,2.62-18.27,13.13-25.86,16.35 c-5.9,2.5-11.99,4.35-17.96,3.93c-5.78-0.41-11.24-2.93-16.61-5.42C77.61,449.42,62.23,443.25,55.3,425.04z" style="fill: rgb(107, 107, 107); stroke: rgb(107, 107, 107); stroke-miterlimit: 10;"/>
  </g>
  <g id="Layer_15" transform="matrix(1, 0, 0, 1, 93.505394, -185.043472)">
    <path class="st4" d="M54.53,432.33c1.23-8.67,3.76-17.29,8.76-24.79s12.64-13.82,22.03-16.61c10.86-3.23,22.93-1.54,34.02,1.42 c4.45,1.19,8.91,2.61,12.61,5.1c3.5,2.36,6.15,5.56,8.48,8.85c7.51,10.65,12.14,22.84,12.83,35.28c-0.03,0.44-0.06,0.88-0.09,1.35 c-1.53,0.16-3.06,0.33-5.48,0.3c2.52-12.56-1.81-26.16-11.45-35.91s-24.37-15.45-38.93-15.06c-6.56,0.18-13.15,1.57-18.6,4.7 c-5.03,2.89-8.88,7.12-11.97,11.65c-5.48,8.03-8.8,17.2-9.69,26.7C55.16,435.15,53.59,433.44,54.53,432.33z" style="fill: rgb(190, 189, 189); stroke: rgb(189, 189, 189); stroke-miterlimit: 10;"/>
  </g>
  <g id="Layer_18" transform="matrix(1, 0, 0, 1, 93.505394, -185.043472)">
    <path class="st5" d="M113.35,461.02c4.35-9.52,12.12-17.63,21.88-21.43c9.75-3.8,21.44-2.91,29.96,3.16 c2.25,1.6,4.29,3.54,6.82,4.63c2.53,1.09,5.81,1.11,7.72-0.88c2.21-2.3,1.61-6.17-0.08-8.88c-4.43-7.11-13.86-8.96-22.22-9.45 c-7.67-0.45-15.67-0.26-22.56,3.12c-7.93,3.9-13.29,11.44-18.98,18.2c-1.06,1.26-2.72,2.63-4.17,1.83 c-1.25-0.69-1.27-2.46-1.04-3.86c2.93-18,20.52-32.4,38.74-31.72c1.76,0.07,3.96,0.02,4.73-1.57c1.11-2.29-2.08-4.25-4.6-4.59 c-9.77-1.3-19.85,2.11-27.57,8.23s-13.2,14.77-16.58,24.02c-1.53,4.19-2.66,8.79-1.44,13.09 C105.18,459.22,109.48,462.91,113.35,461.02z" style="fill: rgb(142, 209, 227); stroke: rgb(142, 209, 227); stroke-miterlimit: 10;"/>
    <path class="st5" d="M84.34,438.54c0.28-9.47-5.76-18.14-13.2-23.99c-6.42-5.04-14.33-8.6-22.5-8.37s-16.45,4.79-19.67,12.29 c-0.57,1.34-0.99,2.79-0.8,4.24c0.58,4.4,6.33,6.17,10.63,5.04c4.29-1.13,7.95-4.05,12.23-5.21c6.04-1.65,12.79,0.54,17.28,4.9 S75.17,438.08,84.34,438.54z" style="fill: rgb(142, 209, 227); stroke: rgb(142, 209, 227); stroke-miterlimit: 10;"/>
    <path class="st5" d="M177.18,459.19c1.49,4.45,1.5,9.39,0.04,13.85c-1.23,3.76-3.51,7.67-2.19,11.4 c1.49,4.23,8.02,5.44,10.93,2.03c1.92-2.26,2.05-5.62,1.13-8.44c-0.92-2.82-2.72-5.25-4.4-7.69 C180.3,466.87,178.12,463.27,177.18,459.19z" style="fill: rgb(142, 209, 227); stroke: rgb(142, 209, 227); stroke-miterlimit: 10;"/>
    <path class="st5" d="M32.16,445.7c-6.06,4.69-10.7,11.2-13.15,18.47c-1.04,3.08-1.69,6.43-0.89,9.59c0.8,3.15,3.36,6.03,6.6,6.36 c3.39,0.34,6.51-2.13,8.19-5.09c1.38-2.43,2.04-5.27,1.89-8.06c-0.2-3.61-1.71-7-2.81-10.44S30.23,449.23,32.16,445.7z" style="fill: rgb(142, 209, 227); stroke: rgb(142, 209, 227); stroke-miterlimit: 10;"/>
  </g>
  <path class="st1" d="M 212.165 353.176 C 212.165 353.176 172.065 347.106 156.575 344.746 C 150.465 310.416 147.235 272.256 148.535 239.326 C 181.625 251.216 212.675 256.666 246.295 256.586 C 240.715 293.236 212.165 353.176 212.165 353.176 Z" style="fill: rgb(161, 161, 162); stroke: rgb(161, 161, 161); stroke-miterlimit: 10;"/>
  <g id="Layer_20" transform="matrix(1, 0, 0, 1, 16.979973, -83.089706)">
    <path class="st18" d="M 94.346 176.779 C 91.926 178.086 89.208 179.823 88.591 183.08 C 88.493 183.599 88.459 184.162 88.605 184.662 C 89.036 186.112 90.78 186.175 91.677 185.125 C 92.573 184.074 92.837 182.437 93.063 180.911 C 93.283 179.392 93.562 177.748 94.346 176.779 Z" style="fill: rgb(142, 213, 231); stroke: rgb(142, 213, 231); stroke-miterlimit: 10;"/>
    <path class="st18" d="M 90.658 162.082 C 90.208 163.433 89.123 164.457 88.086 165.433 C 87.048 166.402 85.97 167.446 85.554 168.804 C 85.137 170.162 85.656 171.923 87 172.38 C 88.386 172.851 89.88 171.704 90.372 170.333 C 90.863 168.961 90.631 167.446 90.467 165.999 C 90.303 164.546 90.222 162.983 90.658 162.082 Z" style="fill: rgb(142, 213, 231); stroke: rgb(142, 213, 231); stroke-miterlimit: 10;"/>
    <path class="st18" d="M 107.754 170.993 C 107.187 171.481 106.459 171.774 105.96 172.33 C 105.462 172.887 105.319 173.9 105.953 174.301 C 106.43 174.604 107.11 174.361 107.44 173.9 C 107.769 173.438 107.812 172.831 107.759 172.267 C 107.704 171.747 107.617 171.125 107.754 170.993 Z" style="fill: rgb(142, 213, 231); stroke: rgb(142, 213, 231); stroke-miterlimit: 10;"/>
  </g>
  <g id="Fish_tank" transform="matrix(1, 0, 0, 1, -30.91667, -217.261429)">
    <g>
      <rect x="256.41" y="269.48" class="st19" width="261.74" height="144.74" style="fill: rgb(208, 237, 239); stroke: rgb(209, 238, 239); stroke-miterlimit: 10;"/>
      <path class="st20" d="M464.98,388.92c2.5-5.42,5.05-11.52,3.1-17.16c-2.65-7.68-12.23-10.73-16.68-17.55 c-3.52-5.38-3.34-12.24-3.03-18.64c0.57-12.08,1.14-24.16,1.71-36.24c0.03-0.7,0.09-1.45,0.54-1.99c0.85-1.01,2.65-0.61,3.43,0.46 s0.82,2.48,0.78,3.79c-0.42,13.92-5.98,28.11-1.87,41.43c0.85,2.75,2.77,5.81,5.68,5.67c3.81-0.19,4.82-5.23,4.77-8.99 c-0.22-16.31,0.65-32.63,2.61-48.83c0.28-2.3,1.09-5.14,3.41-5.49c2.84-0.42,4.29,3.28,4.36,6.12c0.41,16.34-9.58,32.7-4.75,48.33 c0.85,2.74,3.43,5.86,6.04,4.59c1.03-0.5,1.64-1.57,2.12-2.6c5.17-10.95,4.37-24.88,12.93-33.52c1.06-1.07,2.5-2.09,3.97-1.73 c1.76,0.43,2.48,2.67,1.95,4.38s-1.91,3.01-3.14,4.31c-8.48,8.94-12.43,21.87-10.38,33.94c5.53,1.48,10.54-8.24,15.33-5.13 c1.97,1.28,2.15,4.26,0.9,6.23c-1.25,1.97-3.52,3.08-5.77,3.77c-5.46,1.67-11.5,1.38-16.8-0.73c-1.72-0.68-3.59-1.57-5.35-0.99 c-2.21,0.73-3.09,3.51-2.58,5.76c0.5,2.25,1.98,4.14,3.17,6.12C476.43,372.63,476.34,383.77,464.98,388.92z" style="fill: rgb(149, 154, 202); stroke: rgb(149, 154, 202); stroke-miterlimit: 10;"/>
      <path class="st21" d="M288.94,403.67c1.17-1.54-0.81-3.58-2.68-4.09c-1.88-0.51-4.18-0.66-5.15-2.33c2.24,0.65,4.52,1.15,6.82,1.5 c-2.14-3.08-4.28-6.17-6.42-9.25c2.18,2.16,4.59,4.09,7.18,5.76c-0.25-4.09-0.51-8.18-0.79-12.27c1.45,2.66,2.9,5.33,4.34,7.99 c1.15-4.44,2.3-8.87,3.44-13.31c0.43,3.64,1.01,7.26,1.74,10.85c2.57-2.24,4.85-4.8,6.79-7.59c-0.35,3.14-0.92,6.25-1.71,9.31 c3.06-1.39,6.04-2.97,8.9-4.74c-1.47,2.37-2.95,4.75-4.42,7.12c2.58-0.52,5.16-1.04,7.74-1.56c-2.07,1.3-4.14,2.6-6.21,3.9 c2.22-0.26,4.44-0.52,6.66-0.78c-1.19,0.94-2.37,1.87-3.56,2.81c1.2,0.02,2.41,0.05,3.61,0.07c-0.17,1.07-0.78,2.07-1.67,2.71 c0.74,0.01,1.47,0.02,2.21,0.04c0.19,1.86-2.25,2.72-4.14,2.93c-4.82,0.55-9.64,1.1-14.45,1.65 C294.06,404.75,290.61,405.03,288.94,403.67z" style="fill: rgb(105, 138, 86); stroke: rgb(105, 138, 86); stroke-miterlimit: 10;"/>
      <path class="st22" d="M438.69,393.33c1.17-1.54-0.81-3.58-2.68-4.09c-1.88-0.51-4.18-0.66-5.15-2.33c2.24,0.65,4.52,1.15,6.82,1.5 c-2.14-3.08-4.28-6.17-6.42-9.25c2.18,2.16,4.59,4.09,7.18,5.76c-0.25-4.09-0.51-8.18-0.79-12.27c1.45,2.66,2.9,5.33,4.34,7.99 c1.15-4.44,2.3-8.87,3.44-13.31c0.43,3.64,1.01,7.26,1.74,10.85c2.57-2.24,4.85-4.8,6.79-7.59c-0.35,3.14-0.92,6.25-1.71,9.31 c3.06-1.39,6.04-2.97,8.9-4.74c-1.47,2.37-2.95,4.75-4.42,7.12c2.58-0.52,5.16-1.04,7.74-1.56c-2.07,1.3-4.14,2.6-6.21,3.9 c2.22-0.26,4.44-0.52,6.66-0.78c-1.19,0.94-2.37,1.87-3.56,2.81c1.2,0.02,2.41,0.05,3.61,0.07c-0.17,1.07-0.78,2.07-1.67,2.71 c0.74,0.01,1.47,0.02,2.21,0.04c0.19,1.86-2.25,2.72-4.14,2.93c-4.82,0.55-9.64,1.1-14.45,1.65 C443.82,394.4,440.37,394.69,438.69,393.33z" style="fill: rgb(105, 138, 86);"/>
      <path class="st22" d="M476.14,384.45c1.17-1.54-0.81-3.58-2.68-4.09s-4.18-0.66-5.15-2.33c2.24,0.65,4.52,1.15,6.82,1.5 c-2.14-3.08-4.28-6.17-6.42-9.25c2.18,2.16,4.59,4.09,7.18,5.76c-0.25-4.09-0.51-8.18-0.79-12.27c1.45,2.66,2.9,5.33,4.34,7.99 c1.15-4.44,2.3-8.87,3.44-13.31c0.43,3.64,1.01,7.26,1.74,10.85c2.57-2.24,4.85-4.8,6.79-7.59c-0.35,3.14-0.92,6.25-1.71,9.31 c3.06-1.39,6.04-2.97,8.9-4.74c-1.47,2.37-2.95,4.75-4.42,7.12c2.58-0.52,5.16-1.04,7.74-1.56c-2.07,1.3-4.14,2.6-6.21,3.9 c2.22-0.26,4.44-0.52,6.66-0.78c-1.19,0.94-2.37,1.87-3.56,2.81c1.2,0.02,2.41,0.05,3.61,0.07c-0.17,1.07-0.78,2.07-1.67,2.71 c0.74,0.01,1.47,0.02,2.21,0.04c0.19,1.86-2.25,2.72-4.14,2.93c-4.82,0.55-9.64,1.1-14.45,1.65 C481.26,385.52,477.81,385.81,476.14,384.45z" style="fill: rgb(105, 138, 86);"/>
      <path class="st23" d="M339.6,397.2c-3.35-8.13-6.71-16.26-10.06-24.39c2.53,1.79,3.34,5.05,4.43,7.93 c1.09,2.87,3.22,5.94,6.33,5.98c-3.57-2.54-2.16-7.93-1.23-12.17c0.96-4.41,0.97-9.01,0.01-13.42c1.96,3.69,1.3,8.12,1,12.28 s0.05,8.89,3.27,11.59c-2.38-10.78,7.43-20.91,7-31.94c0.51,5.23-1.59,10.32-3,15.39c-1.41,5.07-2.02,10.92,1.06,15.21 c-1.97-4,1.74-8.26,4.6-11.7c4.06-4.89,6.86-10.79,8.07-17c-0.31,5.24-3.13,9.95-5.37,14.72c-2.23,4.76-3.94,10.3-1.97,15.18 c-0.33-3.45,3.36-5.73,6.19-7.79c4.32-3.13,7.63-7.59,9.35-12.59c-0.78,4.22-2.77,8.22-5.68,11.41c-1.5,1.65-3.28,3.14-4.21,5.16 c-0.93,2.02-0.63,4.84,1.35,5.9c-0.7-3.66,2.37-6.88,5.32-9.21c2.94-2.33,6.31-4.98,6.5-8.7c-0.39,2.86-0.83,5.87-2.62,8.17 c-1.28,1.64-3.13,2.76-4.53,4.3c-1.4,1.54-2.31,3.89-1.24,5.67c4.81-2.99,10.12-5.2,15.65-6.51c-4.28,2.5-8.17,5.64-11.49,9.28 c4.09-3.54,12.53,0.91,15.09-3.82c0.17,3-3.82,4.19-6.86,4.48c-3.03,0.28-7.01,1.78-6.52,4.75c1.82-1.66,4.68-1.04,7.16-0.99 c7.85,0.14,14.68-8.02,13.06-15.59c3.17,5.54,0.57,13.5-5.27,16.18c-2.85,1.31-6.11,1.45-9.02,2.63c-2.9,1.18-5.57,4.13-4.67,7.1 C360.73,401.05,349.87,398.3,339.6,397.2z" style="fill: rgb(196, 212, 90); stroke: rgb(198, 212, 90); stroke-miterlimit: 10;"/>
      <path class="st24" d="M433.6,345.85c-5.9-5.93-4.88-15.52-3.45-23.71c-2.86-0.83-4.59,3.06-4.86,5.99 c-0.54,5.9-0.48,12.34,3.14,17.07c1.44,1.88,3.37,3.38,4.65,5.37c1.28,1.99,1.74,4.82,0.15,6.58 c-7.14-4.04-12.21-11.44-13.35-19.48c-1.71-0.11-2.27,2.24-2.04,3.92c1.01,7.32,5.63,14.08,12.13,17.75 c1.01,0.57,2.1,1.11,2.74,2.06c1.89,2.78-1.92,6.52-5.27,5.96c-3.34-0.56-5.67-3.48-7.66-6.19c-1.46,0.27-1.79,2.26-1.25,3.62 c2.39,6,12.38,4.93,15.91,10.35c3.5,5.37-1.86,12.56-0.21,18.73c1.78,0.98,3.95,1.26,5.93,0.75c-2.61-5.41-5.07-12.32-1.17-16.91 c2.63-3.1,7.11-3.73,10.92-5.21c3.81-1.48,7.64-5.32,6.09-9.06c-0.68-0.49-1.63,0.03-2.24,0.61c-2.39,2.25-3.83,5.44-6.55,7.28 s-7.63,1.05-7.83-2.2c-0.1-1.62,1.05-3.04,2.31-4.08c3.58-2.97,8.32-4.15,12.34-6.5c4.02-2.36,7.54-6.93,6.03-11.3 c-2.62,2.69-5.25,5.37-7.87,8.06c-1.91,1.96-3.94,3.98-6.56,4.79c-2.63,0.81-6.02-0.1-7-2.63c-0.82-2.12,0.31-4.56,2.02-6.08 c1.71-1.52,3.9-2.37,5.94-3.41c4.72-2.42,9.16-6.91,8.6-12.12c-5.88,2.31-7.73,11.41-14.04,11.84c-0.9,0.06-1.9-0.12-2.49-0.8 c-0.84-0.96-0.53-2.44-0.06-3.62c1.24-3.05,3.32-5.76,5.95-7.76c1.34-1.02,2.99-2.16,2.96-3.83c-0.04-1.74-2.12-2.9-3.86-2.57 s-3.08,1.68-4.11,3.09c-3.12,4.27-4.41,9.81-3.5,14.99C434.56,347.36,433.06,346.11,433.6,345.85z" style="fill: rgb(134, 189, 104); stroke: rgb(135, 190, 105); stroke-miterlimit: 10;"/>
      <path class="st25" d="M256.41,410.5L514,410.17c0,0-16.07-29.01-26.05-31.63c-10.97-2.88-32.1,12.22-43.41,13.18 c-9,0.76-27.1-3.42-36.06-2.31c-8.8,1.1-24.86,10.53-33.73,10.87c-8.22,0.31-23.84-7.3-32.06-7.25 c-10.91,0.08-31.57,8.96-42.41,10.21c-10.93,1.27-43.87-3.54-43.87-3.54V410.5z" style="fill: rgb(157, 131, 112); stroke: rgb(156, 130, 112); stroke-miterlimit: 10;"/>
      <rect x="256.41" y="269.48" class="st26" width="4.69" height="141" style="fill: rgb(162, 215, 224); stroke: rgb(162, 215, 224); stroke-miterlimit: 10;"/>
      <rect x="511.65" y="269.48" class="st27" width="4.69" height="141" style="fill: rgb(234, 245, 246); stroke: rgb(234, 245, 245); stroke-miterlimit: 10;"/>
      <rect x="249.01" y="253.23" class="st28" width="277" height="16.26" style="fill: rgb(197, 196, 196); stroke: rgb(197, 196, 196); stroke-miterlimit: 10;"/>
    </g>
  </g>
  <g id="g-2" transform="matrix(1, 0, 0, 1, -30.91667, -217.261429)">
    <g>
      <path class="st31" d="M320.1,299.52c3.07-1.72,5.71-4.7,9.22-4.81c0.83-0.03,1.9,0.42,1.78,1.24c-0.08,0.54-0.67,0.84-1,1.28 c-0.54,0.72-0.35,1.73-0.22,2.62c0.13,0.89,0.1,1.98-0.66,2.46c-0.39,0.25-0.87,0.27-1.33,0.25c-1.58-0.06-3.14-0.5-4.53-1.26 C322.36,300.75,321.45,300.03,320.1,299.52z" style="fill: rgb(240, 178, 58); stroke: rgb(242, 180, 58); stroke-miterlimit: 10;"/>
      <path class="st31" d="M323.56,315.63c1.52,0.9,2.97,1.94,4.31,3.09c0.56,0.48,1.11,0.99,1.79,1.26s1.54,0.25,2.07-0.26 c0.66-0.64,0.55-1.71,0.31-2.59s-0.57-1.84-0.22-2.68c0.35-0.84,1.33-1.44,1.27-2.35c-0.04-0.62-0.6-1.11-1.21-1.25 c-0.61-0.14-1.24,0-1.84,0.17c-1.36,0.4-2.65,1.02-3.83,1.81c-0.62,0.42-1.21,0.91-1.56,1.56 C324.31,315.05,324.25,315.91,323.56,315.63z" style="fill: rgb(240, 178, 58); stroke: rgb(242, 180, 58); stroke-miterlimit: 10;"/>
      <path class="st32" d="M336.61,312.56c1.65-0.14,2.8,1.51,3.86,2.78c1.07,1.27,3.2,2.26,4.22,0.95c0.65-0.84,0.32-2.04,0.03-3.06 c-0.92-3.34-0.98-6.92-0.16-10.28c0.33-1.35,0.48-3.29-0.87-3.63c-0.43-0.1-0.88,0.02-1.27,0.2c-2.31,1.06-3.82,4.03-6.35,3.86 c-1.06-0.07-1.99-0.72-2.9-1.27c-4.17-2.55-9.28-3.51-14.09-2.67s-9.28,3.5-12.33,7.32c-0.34,0.43-0.69,0.93-0.65,1.48 c0.04,0.65,0.57,1.14,1.07,1.55c3.53,2.98,7.26,6.05,11.77,7.04C325.21,318.21,330.88,313.06,336.61,312.56z" style="fill: rgb(247, 220, 76); stroke: rgb(247, 221, 76); stroke-miterlimit: 10;"/>
      <circle class="st33" cx="311.93" cy="307.11" r="1" style="stroke: rgb(46, 45, 40); stroke-miterlimit: 10;"/>
      <circle class="st34" cx="298.84" cy="285.59" r="3.5" style="fill: rgb(255, 249, 249); stroke: rgb(254, 255, 249); stroke-miterlimit: 10;"/>
      <circle class="st34" cx="310.81" cy="293.21" r="3" style="fill: rgb(255, 249, 249); stroke: rgb(254, 255, 249); stroke-miterlimit: 10;"/>
      <path class="st31" d="M382.26,326.98c-3.67-2.11-6.83-5.79-11.04-5.93c-0.99-0.03-2.28,0.52-2.13,1.53 c0.1,0.67,0.8,1.04,1.19,1.58c0.65,0.89,0.42,2.13,0.26,3.22s-0.12,2.44,0.79,3.03c0.46,0.3,1.05,0.33,1.59,0.31 c1.89-0.08,3.76-0.61,5.42-1.55C379.56,328.5,380.65,327.61,382.26,326.98z" style="fill: rgb(240, 178, 58); stroke: rgb(242, 180, 58); stroke-miterlimit: 10;"/>
      <path class="st31" d="M378.12,346.83c-1.82,1.11-3.55,2.39-5.15,3.81c-0.67,0.59-1.33,1.22-2.15,1.55 c-0.82,0.33-1.84,0.31-2.47-0.33c-0.79-0.78-0.66-2.11-0.37-3.19c0.29-1.09,0.69-2.26,0.27-3.3c-0.42-1.03-1.59-1.78-1.52-2.9 c0.05-0.76,0.72-1.37,1.45-1.54c0.72-0.17,1.48-0.01,2.2,0.21c1.63,0.5,3.18,1.25,4.58,2.23c0.74,0.52,1.45,1.12,1.87,1.92 C377.23,346.12,377.29,347.18,378.12,346.83z" style="fill: rgb(240, 178, 58); stroke: rgb(242, 180, 58); stroke-miterlimit: 10;"/>
      <path class="st35" d="M362.51,343.06c-1.98-0.18-3.35,1.86-4.62,3.43c-1.28,1.56-3.83,2.78-5.04,1.17 c-0.78-1.03-0.38-2.51-0.04-3.77c1.11-4.12,1.17-8.52,0.19-12.67c-0.4-1.67-0.57-4.06,1.04-4.47c0.51-0.13,1.05,0.03,1.52,0.25 c2.76,1.3,4.57,4.97,7.6,4.76c1.27-0.09,2.38-0.88,3.47-1.57c4.99-3.14,11.1-4.33,16.86-3.29c5.76,1.04,11.11,4.31,14.76,9.02 c0.41,0.53,0.82,1.14,0.78,1.82c-0.05,0.8-0.68,1.4-1.28,1.92c-4.23,3.67-8.68,7.46-14.08,8.68 C376.14,350.02,369.36,343.67,362.51,343.06z" style="fill: rgb(244, 124, 77); stroke: rgb(245, 125, 79); stroke-miterlimit: 10;"/>
      <ellipse class="st33" cx="392.04" cy="336.34" rx="1.2" ry="1.23" style="stroke: rgb(46, 45, 40); stroke-miterlimit: 10;"/>
      <ellipse class="st34" cx="407.7" cy="309.82" rx="4.19" ry="4.31" style="fill: rgb(255, 249, 249); stroke: rgb(254, 255, 249); stroke-miterlimit: 10;"/>
      <ellipse class="st34" cx="393.38" cy="319.21" rx="3.59" ry="3.7" style="fill: rgb(255, 249, 249); stroke: rgb(254, 255, 249); stroke-miterlimit: 10;"/>
      <path class="st36" d="M312.45,312.76c2.98,1.69,6.13,3.42,9.56,3.42c4.03,0,7.61-2.37,11.41-3.71c1.61-0.57,3.47-0.93,4.96-0.1 c-0.26-0.68-0.39-1.41-0.39-2.13c-1.38,0.58-2.89,0.76-4.37,0.93c-7.2,0.85-14.47,1.7-21.68,1 C312.6,312.58,313.28,312.98,312.45,312.76z" style="fill: rgb(243, 173, 77); stroke: rgb(247, 221, 76); stroke-miterlimit: 10;"/>
      <path class="st37" d="M366.53,341.26c4.25,0.57,8.41,1.74,12.68,2.16s8.8,0.01,12.41-2.31c-0.65,2-2.44,3.48-4.41,4.18 s-4.67,0.7-6.22,0.58C379.28,345.74,369.07,341.17,366.53,341.26z" style="fill: rgb(245, 203, 84);"/>
    </g>
  </g>
</svg>