<?xml version="1.0" encoding="utf-8"?>
<svg viewBox="0 0 500 500" xmlns="http://www.w3.org/2000/svg">
  <path d="M 233.276 120.509 L 233.276 109.162 L 227.204 107.749 L 223.778 106.962 L 222.54 120.096 C 222.296 122.696 224.338 124.936 226.948 124.936 L 228.848 124.936 C 231.293 124.936 233.276 122.962 233.276 120.509" style="fill:#f4be0a;fill-opacity:1;fill-rule:nonzero;stroke:none" id="path14"/>
  <path d="M 224.413 112.376 L 224.413 112.376 C 221.046 112.376 218.316 109.656 218.316 106.282 L 218.316 101.682 L 224.413 101.682 L 224.413 112.376" style="fill:#192137;fill-opacity:1;fill-rule:nonzero;stroke:none" id="path912"/>
  <path d="M 225.18 105.682 L 225.18 107.242 C 225.18 108.296 225.356 109.322 225.657 110.269 C 226.746 113.722 229.674 116.402 233.276 117.136 L 233.276 107.082 L 227.204 105.682 L 225.18 105.682" style="fill:#192137;fill-opacity:1;fill-rule:nonzero;stroke:none" id="path914"/>
  <path d="M 242.581 101.202 C 242.778 101.962 242.902 102.722 242.968 103.469 C 243.433 109.056 241.237 113.949 236.116 115.282 C 233.144 116.069 230.104 115.402 227.61 113.696 C 225.258 112.096 223.404 109.549 222.589 106.442 C 222.378 105.629 221.966 103.776 221.917 102.962 L 221.91 102.896 C 221.544 97.389 224.732 92.362 229.772 91.042 C 232.464 90.336 235.206 90.816 237.556 92.162 L 237.748 92.282 C 240.36 93.856 241.705 97.856 242.581 101.202" style="fill:#f4be0a;fill-opacity:1;fill-rule:nonzero;stroke:none" id="path916"/>
  <path d="M 239.161 106.589 L 236.41 106.589 L 236.41 105.856 L 238.428 105.856 L 238.428 100.416 L 239.161 100.416 L 239.161 106.589" style="fill:#192137;fill-opacity:1;fill-rule:nonzero;stroke:none" id="path918"/>
  <path d="M 235.049 109.016 C 234.661 109.016 234.289 108.922 233.965 108.736 C 233.353 108.376 233.021 107.722 233.077 106.989 L 233.852 107.042 C 233.82 107.482 234.005 107.856 234.361 108.069 C 234.752 108.296 235.44 108.362 236.197 107.869 L 236.624 108.522 C 236.118 108.856 235.569 109.016 235.049 109.016" style="fill:#192137;fill-opacity:1;fill-rule:nonzero;stroke:none" id="path920"/>
  <path d="M 241.129 103.789 L 241.129 103.789 C 241.486 103.789 241.778 103.496 241.778 103.136 C 241.778 102.789 241.486 102.496 241.129 102.496 C 240.773 102.496 240.481 102.789 240.481 103.136 C 240.481 103.496 240.773 103.789 241.129 103.789" style="fill:#192137;fill-opacity:1;fill-rule:nonzero;stroke:none" id="path922"/>
  <path d="M 233.605 103.136 L 233.605 103.136 C 233.961 103.136 234.253 102.856 234.253 102.496 C 234.253 102.136 233.961 101.842 233.605 101.842 C 233.248 101.842 232.956 102.136 232.956 102.496 C 232.956 102.856 233.248 103.136 233.605 103.136" style="fill:#192137;fill-opacity:1;fill-rule:nonzero;stroke:none" id="path924"/>
  <path d="M 243.532 94.562 C 244.621 92.749 243.109 91.029 240.908 90.656 C 238.285 90.216 229.13 90.496 226.466 90.416 C 221.965 90.416 218.316 94.056 218.316 98.562 L 218.316 103.976 L 222.185 101.882 C 222.19 102.589 222.298 103.296 222.46 104.002 C 223.322 104.042 224.174 104.269 224.93 104.709 C 225.646 105.136 226.07 105.589 226.506 106.162 C 226.652 105.949 226.801 105.749 226.924 105.522 C 227.816 103.936 228.18 101.056 228.366 99.242 C 228.449 98.522 228.522 97.722 229 97.162 C 230.745 95.082 240.7 97.482 242.9 95.349 C 243.168 95.082 243.376 94.816 243.532 94.562" style="fill:#192137;fill-opacity:1;fill-rule:nonzero;stroke:none" id="path926"/>
  <path d="M 218.66 106.229 C 218.66 108.482 220.485 110.309 222.736 110.309 C 224.988 110.309 226.812 108.482 226.812 106.229 C 226.812 103.976 224.988 102.149 222.736 102.149 C 220.485 102.149 218.66 103.976 218.66 106.229" style="fill:#192137;fill-opacity:1;fill-rule:nonzero;stroke:none" id="path928"/>
  <path d="M 219.697 105.082 C 219.697 107.336 221.522 109.162 223.774 109.162 C 226.025 109.162 227.85 107.336 227.85 105.082 C 227.85 102.829 226.025 101.002 223.774 101.002 C 221.522 101.002 219.697 102.829 219.697 105.082" style="fill:#f4be0a;fill-opacity:1;fill-rule:nonzero;stroke:none" id="path930"/>
  <path d="M 225.481 87.042 C 224.657 85.789 223.317 84.936 221.884 84.496 C 218.953 83.589 215.553 84.442 213.396 86.629 C 211.238 88.802 210.418 92.216 211.349 95.136 C 211.521 95.682 211.756 96.216 212.142 96.629 C 213.572 98.149 217.194 99.362 219.077 98.456 C 220.364 98.056 217.572 96.962 218.92 96.922 C 221.318 96.829 223.733 95.749 225.146 93.802 C 226.558 91.869 226.8 89.056 225.481 87.042" style="fill:#192137;fill-opacity:1;fill-rule:nonzero;stroke:none" id="path932"/>
  <path d="M 242.558 409.401 C 242.541 408.548 242.525 407.641 242.516 406.735 C 242.508 405.215 240.744 385.922 240.765 384.588 L 242.358 378.388 C 248.274 378.788 253.897 381.295 256.585 386.495 C 257.029 387.668 269.19 399.721 273.438 403.001 C 274.477 403.801 273.99 405.468 274.589 406.601 C 274.98 407.348 275.252 408.135 275.426 408.961 C 264.926 408.561 253.061 409.321 242.558 409.401" style="fill:#8459b3;fill-opacity:1;fill-rule:nonzero;stroke:none" id="path934"/>
  <path d="M 275.865 410.081 L 241.794 410.255 C 241.766 409.175 241.738 407.948 241.725 406.721 L 274.75 406.548 C 275.409 407.628 275.79 408.828 275.865 410.081" style="fill:#192137;fill-opacity:1;fill-rule:nonzero;stroke:none" id="path936"/>
  <path d="M 229.61 268.855 C 229.774 270.362 229.933 271.855 230.082 273.362 C 232.085 288.722 233.845 304.108 235.233 319.535 C 236.918 338.268 236.426 346.522 238.225 365.228 C 238.437 366.228 238.933 377.908 239.162 378.882 C 239.604 380.748 239.676 384.802 240.292 388.815 C 240.965 393.188 244.624 396.468 249.038 396.668 L 249.233 396.681 C 254.465 396.921 258.858 392.788 258.93 387.548 C 259.286 361.522 260.669 311.095 260.776 271.469 C 250.393 270.522 240.006 269.615 229.61 268.855" style="fill:#f4be0a;fill-opacity:1;fill-rule:nonzero;stroke:none" id="path938"/>
  <path d="M 202.477 408.721 C 202.458 407.868 202.442 406.975 202.433 406.068 C 202.425 404.535 200.661 385.255 200.682 383.908 L 202.276 377.722 C 208.193 378.108 213.814 380.615 216.504 385.828 C 216.946 386.988 229.108 399.055 233.356 402.321 C 234.394 403.135 233.908 404.788 234.508 405.935 C 234.897 406.668 235.17 407.455 235.344 408.281 C 224.845 407.881 212.978 408.655 202.477 408.721" style="fill:#8459b3;fill-opacity:1;fill-rule:nonzero;stroke:none" id="path940"/>
  <path d="M 235.782 409.415 L 201.713 409.588 C 201.685 408.495 201.656 407.281 201.642 406.041 L 234.668 405.881 C 235.328 406.961 235.709 408.161 235.782 409.415" style="fill:#192137;fill-opacity:1;fill-rule:nonzero;stroke:none" id="path942"/>
  <path d="M 189.528 268.175 C 189.692 269.682 189.852 271.189 190.001 272.695 C 192.002 288.042 193.764 303.428 195.152 318.855 C 196.837 337.602 196.344 345.855 198.144 364.548 C 198.356 365.548 198.852 377.228 199.08 378.202 C 199.521 380.082 199.593 384.135 200.21 388.135 C 200.882 392.508 204.542 395.788 208.956 395.988 L 209.15 396.001 C 214.384 396.241 218.777 392.108 218.848 386.868 C 219.204 360.855 220.588 310.415 220.694 270.802 C 210.312 269.842 199.925 268.949 189.528 268.175" style="fill:#f4be0a;fill-opacity:1;fill-rule:nonzero;stroke:none" id="path944"/>
  <path d="M 253.598 182.522 C 248.04 168.202 234.5 172.695 221.076 172.669 C 201.89 172.629 180.926 191.909 183.266 216.255 L 191.198 316.588 C 222.052 319.775 253.881 316.802 265.056 314.028 C 265.998 292.455 264.714 244.589 260.262 218.429 C 258.556 208.389 258.84 207.202 257.133 197.162 C 256.757 194.962 254.245 184.189 253.598 182.522" style="fill:#1a2037;fill-opacity:1;fill-rule:nonzero;stroke:none" id="path946"/>
  <path d="M 295.757 143.696 C 295.677 143.936 295.557 144.162 295.37 144.336 C 294.983 144.736 294.383 144.829 293.837 144.869 C 291.543 145.069 289.21 144.856 286.997 144.229 C 286.53 144.096 286.024 143.922 285.757 143.509 C 285.517 143.122 285.544 142.642 285.57 142.189 C 285.957 137.096 284.544 128.869 291.303 128.176 C 296.957 127.589 295.49 134.522 295.823 138.256 C 295.957 139.802 296.09 141.349 295.917 142.896 C 295.89 143.162 295.85 143.442 295.757 143.696" style="fill:#f4be0a;fill-opacity:1;fill-rule:nonzero;stroke:none" id="path948"/>
  <path d="M 295.877 119.829 C 296.037 119.616 296.21 119.402 296.437 119.189 C 297.65 118.042 298.85 117.256 300.463 116.802 C 301.023 116.642 301.57 116.629 302.077 116.682 L 307.53 110.962 C 307.89 110.589 307.863 110.002 307.503 109.642 C 307.237 109.536 306.93 109.589 306.717 109.802 L 299.583 116.936 L 299.343 117.029 L 299.09 116.936 C 298.943 116.789 298.943 116.562 299.09 116.429 L 306.037 109.469 C 306.197 109.322 306.077 109.056 305.85 109.069 C 305.343 109.096 304.85 109.296 304.45 109.656 C 301.21 112.616 297.917 115.509 294.637 118.416 C 294.063 118.936 293.477 119.509 292.877 120.082 C 293.61 120.056 294.81 120.042 295.877 119.829" style="fill:#f4be0a;fill-opacity:1;fill-rule:nonzero;stroke:none" id="path950"/>
  <path d="M 300.13 133.122 L 290.97 133.122 C 289.703 133.122 288.677 132.096 288.677 130.842 L 288.677 106.442 C 288.677 105.176 289.703 104.149 290.97 104.149 L 300.13 104.149 C 301.397 104.149 302.423 105.176 302.423 106.442 L 302.423 130.842 C 302.423 132.096 301.397 133.122 300.13 133.122" style="fill:#192137;fill-opacity:1;fill-rule:nonzero;stroke:none" id="path952"/>
  <path d="M 299.757 126.602 L 291.343 126.602 C 291.103 126.602 290.917 126.416 290.917 126.189 L 290.917 107.962 C 290.917 107.722 291.103 107.536 291.343 107.536 L 299.757 107.536 C 299.997 107.536 300.183 107.722 300.183 107.962 L 300.183 126.189 C 300.183 126.416 299.997 126.602 299.757 126.602" style="fill:#aee2f9;fill-opacity:1;fill-rule:nonzero;stroke:none" id="path954"/>
  <path d="M 294.61 115.762 C 294.757 116.256 289.65 119.802 289.023 120.269 C 285.984 122.536 283.53 125.402 284.584 129.549 C 284.89 130.789 285.69 132.096 286.957 132.309 C 287.784 132.456 288.637 132.082 289.237 131.482 C 289.837 130.896 290.197 130.109 290.463 129.309 C 291.157 127.269 290.93 125.482 290.703 123.576 C 291.463 122.522 292.237 121.469 292.997 120.429 C 294.01 119.056 295.063 117.402 294.61 115.762" style="fill:#f4be0a;fill-opacity:1;fill-rule:nonzero;stroke:none" id="path956"/>
  <path d="M 302.943 120.669 L 302.943 120.669 C 302.663 120.669 302.423 120.429 302.423 120.149 L 302.423 117.056 C 302.423 116.762 302.663 116.536 302.943 116.536 C 303.237 116.536 303.463 116.762 303.463 117.056 L 303.463 120.149 C 303.463 120.429 303.237 120.669 302.943 120.669" style="fill:#f4be0a;fill-opacity:1;fill-rule:nonzero;stroke:none" id="path958"/>
  <path d="M 298.13 144.776 C 298.117 142.162 297.89 139.669 297.237 137.656 C 296.663 135.909 294.93 134.762 293.13 134.376 C 291.343 134.002 289.477 134.256 287.664 134.509 C 286.85 134.616 285.997 134.749 285.41 135.309 C 284.997 135.696 284.77 136.242 284.584 136.776 C 281.704 144.589 282.69 153.482 279.429 161.149 C 279.197 161.695 278.826 162.122 278.284 162.295 C 274.574 152.855 269.64 142.402 264.746 133.176 C 261.705 127.442 258.618 122.189 252.029 120.936 C 245.15 119.629 238.36 121.976 231.492 121.976 C 219.281 121.976 207.97 119.589 195.717 121.496 C 185.629 123.056 179.481 128.389 171.31 134.496 C 164.293 139.736 156.865 145.536 154.304 153.922 C 152.133 161.015 153.944 168.855 157.544 175.335 C 161.152 181.829 166.409 187.215 171.601 192.509 C 172.457 193.375 173.306 194.255 174.154 195.122 C 175.365 196.349 176.574 197.589 177.777 198.815 C 179.849 200.922 182.042 203.122 184.872 203.975 C 187.709 204.829 191.338 203.815 192.378 201.055 C 193.453 198.189 191.416 195.189 189.605 192.722 C 188.289 190.922 187.03 189.082 185.842 187.215 C 181.802 180.882 178.477 174.095 175.952 167.015 C 175.222 164.989 174.55 162.842 174.749 160.695 C 175.145 156.335 180.296 154.402 183.598 152.415 C 187.022 150.375 191.105 146.976 194.762 146.896 C 196.622 156.029 196.701 165.869 197.542 175.175 C 197.698 176.895 197.91 178.762 199.113 179.989 C 200.16 181.082 201.724 181.442 203.202 181.735 C 212.841 183.722 222.752 184.509 232.585 184.269 C 239.6 184.109 251.814 185.882 252 176.535 C 252.097 171.655 252.193 166.775 252.29 161.895 C 252.313 160.722 252.662 159.189 253.834 159.109 C 254.773 159.055 255.396 160.029 255.8 160.882 C 260.985 171.762 268.282 185.242 281.536 187.909 C 284.81 188.575 288.49 187.949 290.903 185.615 C 292.77 183.815 293.677 181.229 294.343 178.722 C 296.263 171.509 297.29 164.122 297.557 156.682 C 297.677 153.375 298.17 148.922 298.13 144.776" style="fill:#8459b3;fill-opacity:1;fill-rule:nonzero;stroke:none" id="path960"/>
  <path d="M 235.952 121.709 C 235.937 121.856 235.916 122.002 235.873 122.149 C 233.964 129.789 232.061 137.416 230.15 145.056 C 230.002 145.669 229.577 146.202 228.976 146.402 C 227.788 146.789 227.094 145.682 226.649 144.736 C 224.328 139.789 218.428 122.429 218.428 122.429 C 218.498 122.042 218.612 121.696 218.768 121.376 L 235.952 121.709" style="fill:#aee2f9;fill-opacity:1;fill-rule:nonzero;stroke:none" id="path962"/>
  <path d="M 214.958 197.882 C 211.386 196.922 207.625 196.562 203.918 196.855 C 203.728 196.869 203.56 196.735 203.544 196.549 C 203.53 196.375 203.67 196.215 203.861 196.202 C 207.414 195.935 211.017 196.229 214.462 197.082 C 214.746 197.162 214.978 196.869 214.812 196.642 L 214.784 196.602 C 214.44 196.162 213.31 195.722 212.818 195.562 C 209.366 194.415 205.473 193.869 201.708 193.869 C 200.589 193.869 199.482 193.922 198.401 194.029 C 194.034 194.429 183.201 195.762 183.42 201.762 C 183.544 205.215 187.286 207.962 190.656 207.242 C 195.636 206.175 200.368 203.629 205.297 202.295 L 205.465 202.255 C 206.962 201.895 208.517 201.775 210.056 201.709 C 211.062 201.669 212.506 202.069 213.429 201.549 C 213.678 201.415 213.59 201.055 213.304 201.015 C 210.361 200.589 206.982 200.349 204.158 200.855 C 203.97 200.895 203.788 200.775 203.753 200.602 C 203.717 200.429 203.84 200.255 204.028 200.215 C 207.206 199.655 211.037 199.989 214.217 200.495 C 214.349 200.522 214.482 200.455 214.545 200.349 C 214.646 200.175 214.736 199.989 214.816 199.802 C 214.885 199.629 214.781 199.442 214.593 199.402 C 211.49 198.722 207.969 198.549 203.932 198.855 C 203.741 198.869 203.574 198.735 203.558 198.562 C 203.542 198.389 203.685 198.229 203.876 198.215 C 207.994 197.895 211.594 198.069 214.773 198.775 C 214.958 198.815 215.14 198.695 215.161 198.522 L 215.188 198.189 C 215.194 198.055 215.102 197.922 214.958 197.882" style="fill:#f4be0a;fill-opacity:1;fill-rule:nonzero;stroke:none" id="path964"/>
  <path d="M 192.378 201.055 C 191.338 203.815 187.709 204.829 184.872 203.975 C 182.042 203.122 179.849 200.922 177.777 198.815 C 176.574 197.589 175.365 196.349 174.154 195.122 C 175.068 194.722 176.093 194.535 177.062 194.269 C 180.281 193.389 183.132 189.909 185.842 187.215 C 187.03 189.082 188.289 190.922 189.605 192.722 C 191.416 195.189 193.453 198.189 192.378 201.055" style="fill:#f4be0a;fill-opacity:1;fill-rule:nonzero;stroke:none" id="path966"/>
</svg>