<?xml version="1.0" encoding="utf-8"?>
<svg viewBox="0 0 500 500" xmlns="http://www.w3.org/2000/svg" xmlns:bx="https://boxy-svg.com">
  <g id="Study-online" stroke="none" stroke-width="1" fill="none" fill-rule="evenodd" transform="matrix(1.133155, 0, 0, 1.133155, -828.240008, -440.84849)" style="" bx:origin="0.587 0.92">
    <g id="Interior-/-Sofa-/-Sofa-2" transform="matrix(0.174177, 0, 0, 0.395613, 745.714111, 513.362854)" style="">
      <g id="Sofa" transform="translate(48.000000, 22.000000)">
        <path d="M195.00986,273 L917.409896,273 L968.659823,60.1980524 C978.156242,20.7666508 1016.29181,-4.80354843 1056.37591,1.38372318 C1058.1854,1.66303162 1059.98249,2.01749115 1061.76252,2.44618252 C1097.21161,10.9835244 1119.02789,46.6415684 1110.49054,82.0906529 L1052.75993,321.801948 C1043.26351,361.233349 1005.12795,386.803548 965.043847,380.616277 C963.234354,380.336968 961.437262,379.982509 959.657233,379.553817 C938.086303,374.358806 921.563298,359.121599 913.855682,340.000001 L198.564077,340 C190.856458,359.121599 174.333454,374.358806 152.762523,379.553817 C150.982494,379.982509 149.185402,380.336968 147.375909,380.616277 C107.291809,386.803548 69.1562417,361.233349 59.6598228,321.801948 L1.92921277,82.0906529 C-6.60812911,46.6415684 15.2081488,10.9835244 50.6572334,2.44618252 C52.4372624,2.01749115 54.2343539,1.66303162 56.0438474,1.38372318 C96.1279474,-4.80354843 134.263514,20.7666508 143.759933,60.1980524 L195.00986,273 Z" id="Combined-Shape" fill="#E1E5F0" fill-rule="nonzero"/>
        <g id="completed" transform="translate(151.000000, 1.000000)">
          <path d="M100,0 L710,0 C765.228475,-1.01453063e-14 810,44.771525 810,100 L810,272 L0,272 L0,100 C-6.76353751e-15,44.771525 44.771525,1.01453063e-14 100,0 Z" id="Mask" transform="matrix(1, 0, 0, 1, 0, 0)" fill="#F2F6FB" fill-rule="nonzero"/>
        </g>
        <path d="M126.498523,395 L98.9259819,442.757042 C94.6457751,450.170577 85.1661238,452.710642 77.7525881,448.430435 C70.3390525,444.150229 67.7989875,434.670577 72.0791944,427.257042 L94.0690033,389.169575 C87.6367524,384.136021 83.5025881,376.300803 83.5025881,367.5 C83.5025881,352.312169 95.8147575,340 111.002588,340 L999.002588,340 C1014.19042,340 1026.50259,352.312169 1026.50259,367.5 C1026.50259,375.761032 1022.85999,383.171288 1017.09333,388.212227 L1039.63586,427.257042 C1043.91607,434.670577 1041.376,444.150229 1033.96247,448.430435 C1026.54893,452.710642 1017.06928,450.170577 1012.78907,442.757042 L985.216532,395 L126.498523,395 Z" id="Combined-Shape" fill="#D8DEED" fill-rule="nonzero"/>
      </g>
    </g>
    <g id="Characters-in-moshion-/-Woman-in-moshion-/-10" transform="matrix(0.397665, 0, 0, 0.397665, 685.56665, 308.892303)" style="">
      <g id="Woman" transform="translate(261.000000, 368.000000)">
        <path d="M 152.253 316.148 C 97.571 342.946 70.676 322.304 57.505 334.03 L 53.54 335.998 C 33.702 309.451 25.793 273.504 29.815 228.157 C 20.29 225.823 12.125 223.435 8.398 221.686 C 0.943 218.188 -1.045 210.535 2.436 198.725 C 5.358 187.378 11.225 174.22 20.035 159.252 C 30.506 141.462 45.166 140.943 54.62 142.13 C 62.911 135.978 103.188 135.279 110.737 136.811 C 122.612 139.309 140.223 142.809 149.816 157.147 C 152.896 161.616 154.318 165.96 155.055 169.066 C 155.055 169.066 156.477 173.411 157.479 178.144 C 159.783 188.969 157.244 266.758 152.253 316.148 Z" id="T-shirt" fill="#FFCB3D" fill-rule="nonzero" style="" transform="matrix(0.998919, -0.046475, 0.046475, 0.998919, -10.883134, 4.027017)"/>
        <rect id="Shadow-Book" fill="#474961" fill-rule="nonzero" transform="translate(231.363592, 182.720563) rotate(-42.000000) translate(-231.363592, -182.720563) " x="158.863592" y="177.220563" width="145" height="11" rx="5.5"/>
        <path d="M243.357543,166.978677 L186.006896,125.552222 C182.443386,122.97817 177.616762,123.033132 174.112792,125.687665 L113.429296,171.660179 C109.027084,174.995201 108.161955,181.267468 111.496977,185.669681 C112.055649,186.407125 112.713955,187.063474 113.45306,187.619948 L177.644886,235.950109 L243.761424,182.883747 C248.068537,179.426778 248.757714,173.132748 245.300746,168.825635 C244.738848,168.125554 244.085241,167.50432 243.357543,166.978677 Z" id="Book" fill="#474BFF" fill-rule="nonzero" transform="translate(178.437550, 178.585185) rotate(-3.000000) translate(-178.437550, -178.585185) "/>
        <path d="M 318.363 630.465 C 316.296 633.584 294.726 660.099 295.651 660.952 C 294.137 659.565 192.68 663.349 192.68 663.349 C 185.606 630.515 150.705 603.072 117.132 602.912 L 72.634 602.752 C 55.936 602.379 40.038 595.018 28.978 582.454 C 17.946 569.918 12.624 553.219 14.393 536.629 C 24.805 439.726 35.347 353.012 35.347 353.012 L 39.14 322.951 C 39.376 321.085 111.767 306.75 42.811 319.724 L 77.699 319.724 C 79.751 319.724 81.424 321.378 81.433 323.43 L 81.837 411.294 L 85.346 539.617 L 152.883 539.617 C 152.938 538.629 152.938 537.616 153.045 536.629 C 163.452 439.726 173.998 353.012 173.998 353.012 L 177.79 322.951 C 178.025 321.085 179.596 319.724 181.461 319.724 L 216.346 319.724 C 218.401 319.724 220.07 321.378 220.079 323.43 L 220.483 411.294 L 223.994 539.617 C 249.44 539.617 268.153 539.617 268.153 539.617 C 296.302 539.617 327.095 561.354 330.85 590.51 C 332.765 605.367 326.329 618.489 318.363 630.465" style="fill: rgb(143, 155, 214); fill-opacity: 1; fill-rule: nonzero; stroke: none;" id="path1038" transform="matrix(-0.999989, -0.004593, 0.004593, -0.999989, 343.002607, 978.482138)"/>
        <path d="M 78.54 100.283 C 75.549 96.409 72.87 92.767 71.447 89.77 C 69.338 85.407 70.437 72.685 74.425 67.609 C 78.414 62.534 110.043 39.06 110.442 39.032 C 113.812 38.495 132.803 36.265 143.57 49.747 C 144.551 50.881 145.44 52.122 146.25 53.669 C 148.004 57.256 148.982 61.197 148.962 65.208 L 148.807 83.063 C 148.733 84.872 148.559 86.689 148.278 88.413 C 146.264 101.184 142.294 111.787 137.76 118.62 C 134.411 123.766 130.616 126.838 127.131 127.182 C 126.141 127.352 120.747 127.629 114.33 126.173 C 113.911 126.065 114.021 126.154 111.411 125.229 L 111.945 136.995 C 120.602 138.805 131.811 141.304 140.828 147.877 C 127.955 154.726 113.699 157.808 98.06 157.123 C 91.333 156.828 84.24 155.926 76.781 154.416 C 71.245 147.863 64.5 144.005 60.734 143.382 C 59.018 143.099 56.691 142.627 53.966 142.315 C 54.014 142.274 54.061 142.234 54.109 142.193 C 57.399 139.484 66.855 137.801 77.176 136.886 L 77.819 100.056 L 78.54 100.283 Z M 162.891 243.598 C 163.123 243.597 163.355 243.583 163.585 243.557 C 163.362 243.568 163.139 243.567 162.916 243.554 C 162.908 243.569 162.899 243.583 162.891 243.598 Z M 176.268 232.668 L 180.51 235.491 L 184.449 231.985 C 184.579 231.888 184.705 231.784 184.827 231.674 L 187.182 229.553 L 243.442 179.492 C 244.225 178.795 244.873 178.003 245.383 177.149 L 262.396 161.83 C 270.1 158.022 276.078 156.518 278.073 159.323 C 278.073 159.323 248.248 191.667 232.496 208.643 C 228.375 219.445 222.266 233.26 214.171 250.088 C 194.005 259.516 175.716 268.262 159.305 276.324 C 160.362 265.785 160.983 255.762 161.284 246.406 C 141.692 279.966 111.408 308.327 70.432 331.488 C 18.03 361.107 9.488 260.125 8.128 221.139 C 8.321 221.235 8.518 221.328 8.718 221.418 C 19.465 226.229 69.301 237.318 78.535 235.818 C 78.8 235.786 71.686 234.991 71.933 234.9 L 69.172 290.531 L 135.874 218.563 C 135.886 218.547 135.898 218.532 135.91 218.516 L 164.846 181.48 C 167.056 178.651 171.141 178.15 173.97 180.36 C 174.856 181.052 175.514 181.929 175.932 182.893 L 176.769 181.652 C 178.776 178.676 182.816 177.891 185.792 179.898 C 187.754 181.222 188.764 183.429 188.649 185.632 C 190.21 185.483 191.829 185.894 193.179 186.912 L 193.197 186.925 C 195.941 188.993 196.489 192.893 194.422 195.636 C 194.367 195.709 194.31 195.781 194.252 195.851 L 193.827 196.367 C 195.872 195.881 198.115 196.396 199.768 197.937 C 202.393 200.385 202.537 204.498 200.088 207.124 L 176.268 232.668 Z" id="Skin" fill="#F2A98A" fill-rule="nonzero" style=""/>
        <path d="M161.001851,245.66692 C161.400778,244.976165 161.795197,244.283217 162.185108,243.588076 C164.044352,243.691551 165.934332,242.999486 167.303587,241.53114 L175.719878,232.505773 L180.204559,235.490609 L184.144095,231.98512 C184.27348,231.887766 184.399693,231.7839 184.522305,231.6735 L186.877252,229.553095 L243.137088,179.491825 C243.919911,178.795251 244.567473,178.003295 245.077844,177.149047 L262.090905,161.830418 C269.795266,158.021674 275.772389,156.518088 277.767885,159.323349 C277.767885,159.323349 247.970296,191.636422 232.212763,208.619085 C228.096323,219.478772 221.999909,233.407455 214.050169,250.00179 C193.811007,259.463083 175.460952,268.237284 159,276.324394 C160.08443,265.507048 160.710488,255.233561 161.001851,245.66692 Z" id="Shadow-Arm" fill="#8C2A00" fill-rule="nonzero" opacity="0.2"/>
        <polygon id="Shadow" fill="#482D1F" fill-rule="nonzero" transform="translate(104.866731, 128.750970) rotate(-4.000000) translate(-104.866731, -128.750970) " points="111.641443 125.727911 98.0920195 120.064855 111.294755 137.437085"/>
        <path d="M128.490621,39.9307362 C133.964829,41.7467538 139.620254,45.0378846 143.679829,50.9201259 C144.579829,52.1201259 145.379829,53.4201259 146.079829,55.0201259 C146.741203,56.6515166 147.247052,58.3412295 147.580231,60.0635494 L95.816025,74.152166 L104.677218,40.566327 C114.442973,39.8340357 122.380774,39.6221721 128.490621,39.9307362 Z" id="Hair" fill="#482D1F" fill-rule="nonzero" transform="translate(121.698128, 56.972845) rotate(-4.000000) translate(-121.698128, -56.972845) "/>
        <path d="M132.176451,43.8215348 C113.270832,59.9107393 101.211641,70.4430086 95.9988755,75.4183426 C95.8022253,75.6639006 95.6040579,75.9182369 95.404507,76.1807624 C95.2535511,75.2620924 94.6280374,72.2639438 92.5459898,69.2657952 C92.3459898,69.0657952 90.6459898,66.8657952 88.0459898,65.7657952 C83.3459898,63.9657952 77.1459898,66.0657952 73.7459898,70.3657952 C70.1459898,74.7657952 70.1459898,80.6657952 72.0459898,85.1657952 C73.9459898,89.6657952 77.6459898,91.7657952 78.9459898,92.3657952 L84.2459898,93.7657952 L84.8056496,93.5571085 C80.2724632,101.636593 76.1468449,108.903894 73.8046686,109.287345 C69.5459132,109.984569 63.71098,100.585985 59.452531,95.9330845 C56.746355,92.976241 50.4127812,83.4776386 49.2073797,70.7814874 C48.8786338,66.5862374 47.5636503,52.3444678 56.9876987,41.8563429 C60.2751574,38.2130995 64.0009439,36.4466785 65.5350913,35.6738693 C70.7344892,33.3531148 90.0853508,33.171439 104.927003,33.3965207 C102.415854,28.836213 101.335868,19.6739174 101.687045,5.90963388 C101.698596,5.45689626 101.863463,5.02148282 102.15467,4.67463532 C102.864913,3.82868719 104.126456,3.7186767 104.972404,4.42892004 C116.598873,14.1903009 123.942124,21.2050019 127.002157,25.473023 C129.728857,21.7393455 137.206972,17.6907768 149.436504,13.327317 C149.86629,13.1739704 150.335593,13.1722064 150.766521,13.3223179 C151.809619,13.6856765 152.360658,14.8258355 151.997291,15.8689314 C145.809593,33.6320458 141.399753,42.8826182 138.767771,43.6206488 C137.321162,44.0262906 135.124055,44.0932526 132.176451,43.8215348 Z" id="Kerchief" fill="#DE3190" fill-rule="nonzero" transform="translate(100.532665, 56.642346) rotate(-4.000000) translate(-100.532665, -56.642346) "/>
        <path d="M143.950007,86.5470485 C144.165568,85.3290447 145.299864,84.3475293 146.510892,84.4633343 C147.315919,84.5072856 147.956312,85.0639701 148.35324,86.4396328 C148.896657,89.9101801 145.412842,94.5645365 144.169033,92.5463841 C143.280298,91.305356 143.676543,88.3705664 143.950007,86.5470485 Z M122.000005,85.3382109 C122.215567,84.1202071 123.349863,83.1386917 124.560891,83.2544968 C125.365918,83.298448 126.00631,83.8551325 126.403239,85.2307953 C126.946655,88.7013425 123.462841,93.3556989 122.219032,91.3375465 C121.330297,90.0965184 121.726542,87.1617288 122.000005,85.3382109 Z" id="Eyes" fill="#482D1F" fill-rule="nonzero"/>
        <path d="M 135.905 93.965 L 136.005 103.965 C 136.005 104.002 135.852 104.155 135.805 104.155 C 135.258 104.155 134.699 104.119 133.826 104.034 C 133.657 104.018 133.479 104 133.224 103.974 C 132.903 103.941 132.727 103.923 132.558 103.906 C 131.981 103.848 131.502 103.803 130.991 103.758 C 130.441 103.71 129.956 104.118 129.908 104.668 C 129.861 105.218 130.268 105.703 130.818 105.751 C 131.319 105.794 131.789 105.839 132.358 105.896 C 132.525 105.913 132.7 105.931 133.022 105.964 C 133.28 105.99 133.46 106.008 133.633 106.025 C 134.565 106.115 135.18 106.155 135.805 106.155 C 136.957 106.155 138.005 105.107 138.005 103.955 L 137.905 93.945 C 137.899 93.392 137.447 92.949 136.895 92.955 C 136.342 92.96 135.899 93.412 135.905 93.965 Z" id="Nose" fill="#482D1F" fill-rule="nonzero" transform="matrix(0.997564, -0.069756, 0.069756, 0.997564, -6.618254, 9.586648)"/>
        <path d="M106.900542,80.8228786 L101.040182,79.0257015 C100.24816,78.7828149 99.8029987,77.9438565 100.045885,77.1518352 C100.288772,76.359814 101.12773,75.9146523 101.919751,76.1575388 L108.220984,78.0899169 C110.728234,74.068036 115.191545,71.3916201 120.279967,71.3916201 C128.12241,71.3916201 134.479967,77.7491767 134.479967,85.5916201 C134.479967,85.7789337 134.47634,85.9654001 134.469152,86.1509531 L137.490952,86.5220513 C138.856252,80.1051524 144.555979,75.2916201 151.379967,75.2916201 C159.22241,75.2916201 165.579967,81.6491767 165.579967,89.4916201 C165.579967,97.3340636 159.22241,103.69162 151.379967,103.69162 C143.54245,103.69162 137.187955,97.342049 137.179974,89.5063987 L134.038012,89.1205437 C132.469002,95.2557916 126.904184,99.7916201 120.279967,99.7916201 C112.437523,99.7916201 106.079967,93.4340636 106.079967,85.5916201 C106.079967,83.9187065 106.369257,82.3133603 106.900542,80.8228786 Z M110.125054,80.8611187 C109.454477,82.2981844 109.079967,83.9011664 109.079967,85.5916201 C109.079967,91.7772093 114.094377,96.7916201 120.279967,96.7916201 C126.465556,96.7916201 131.479967,91.7772093 131.479967,85.5916201 C131.479967,79.406031 126.465556,74.3916201 120.279967,74.3916201 C116.032887,74.3916201 112.337937,76.7555719 110.439131,80.2394631 C110.431783,80.2701558 110.423429,80.3008154 110.414048,80.3314051 C110.352502,80.5320979 110.252684,80.7105194 110.125054,80.8611187 Z M140.211924,88.6391461 C140.190747,88.9205308 140.179967,89.2048166 140.179967,89.4916201 C140.179967,95.6772093 145.194377,100.69162 151.379967,100.69162 C157.565556,100.69162 162.579967,95.6772093 162.579967,89.4916201 C162.579967,83.306031 157.565556,78.2916201 151.379967,78.2916201 C145.685454,78.2916201 140.98354,82.5414439 140.272858,88.0424595 C140.283578,88.150762 140.282602,88.2619181 140.268782,88.3744571 C140.257561,88.4658248 140.238346,88.5542594 140.211924,88.6391461 Z" id="Glasses" fill="#482D1F" fill-rule="nonzero" transform="translate(132.779767, 87.541620) rotate(-4.000000) translate(-132.779767, -87.541620) "/>
        <path d="M88.0708404,213.123486 C88.0708404,213.123486 84.855253,229.715441 76.855253,234.115441" id="Path" stroke="#482D1F" stroke-width="3" stroke-linecap="round" stroke-linejoin="round" transform="translate(82.463047, 223.619463) rotate(-14.000000) translate(-82.463047, -223.619463) "/>
      </g>
    </g>
    <g id="Active-objects-/-Books" transform="matrix(0.343886, 0, 0, 0.343886, 945.889709, 605.422241)" style="">
      <g id="Books" transform="translate(50.000000, 106.000000)">
        <path d="M39,128 L222,128 C226.418278,128 230,131.581722 230,136 L230,152 C230,156.418278 226.418278,160 222,160 L39,160 C34.581722,160 31,156.418278 31,152 L31,136 C31,131.581722 34.581722,128 39,128 Z M29,0 L212,0 C216.418278,-8.11624501e-16 220,3.581722 220,8 L220,24 C220,28.418278 216.418278,32 212,32 L29,32 C24.581722,32 21,28.418278 21,24 L21,8 C21,3.581722 24.581722,8.11624501e-16 29,0 Z M8,64 L191,64 C195.418278,64 199,67.581722 199,72 L199,88 C199,92.418278 195.418278,96 191,96 L8,96 C3.581722,96 5.41083001e-16,92.418278 0,88 L0,72 C-5.41083001e-16,67.581722 3.581722,64 8,64 Z" id="Blue-Books" fill="#474BFF" fill-rule="nonzero"/>
        <path d="M57,96 L240,96 C244.418278,96 248,99.581722 248,104 L248,120 C248,124.418278 244.418278,128 240,128 L57,128 C52.581722,128 49,124.418278 49,120 L49,104 C49,99.581722 52.581722,96 57,96 Z M63,32 L246,32 C250.418278,32 254,35.581722 254,40 L254,56 C254,60.418278 250.418278,64 246,64 L63,64 C58.581722,64 55,60.418278 55,56 L55,40 C55,35.581722 58.581722,32 63,32 Z" id="Black-Books" fill="#474961" fill-rule="nonzero"/>
        <path d="M38.5,12 L220,12 L220,21 L38.5,21 C36.0147186,21 34,18.9852814 34,16.5 C34,14.0147186 36.0147186,12 38.5,12 Z M55,44 L233,44 L233,53 L55,53 L55,44 Z M21,76 L199,76 L199,85 L21,85 L21,76 Z M49,108 L227,108 L227,117 L49,117 L49,108 Z M52,140 L230,140 L230,149 L52,149 L52,140 Z" id="Paper" fill="#D8DEED" fill-rule="nonzero"/>
      </g>
    </g>
    <text style="font-size: 36; font-family: Roboto; white-space: pre;" transform="matrix(1, 0, 0, 1, 752.390863, 617.514385)">https://boxy-svg.com/app</text>
    <g id="g-1" transform="matrix(0.343886, 0, 0, 0.343886, 1040.712524, 605.20575)" style="">
      <g id="g-2" transform="translate(50.000000, 106.000000)">
        <path d="M39,128 L222,128 C226.418278,128 230,131.581722 230,136 L230,152 C230,156.418278 226.418278,160 222,160 L39,160 C34.581722,160 31,156.418278 31,152 L31,136 C31,131.581722 34.581722,128 39,128 Z M29,0 L212,0 C216.418278,-8.11624501e-16 220,3.581722 220,8 L220,24 C220,28.418278 216.418278,32 212,32 L29,32 C24.581722,32 21,28.418278 21,24 L21,8 C21,3.581722 24.581722,8.11624501e-16 29,0 Z M8,64 L191,64 C195.418278,64 199,67.581722 199,72 L199,88 C199,92.418278 195.418278,96 191,96 L8,96 C3.581722,96 5.41083001e-16,92.418278 0,88 L0,72 C-5.41083001e-16,67.581722 3.581722,64 8,64 Z" id="path-2" fill="#474BFF" fill-rule="nonzero"/>
        <path d="M57,96 L240,96 C244.418278,96 248,99.581722 248,104 L248,120 C248,124.418278 244.418278,128 240,128 L57,128 C52.581722,128 49,124.418278 49,120 L49,104 C49,99.581722 52.581722,96 57,96 Z M63,32 L246,32 C250.418278,32 254,35.581722 254,40 L254,56 C254,60.418278 250.418278,64 246,64 L63,64 C58.581722,64 55,60.418278 55,56 L55,40 C55,35.581722 58.581722,32 63,32 Z" id="path-3" fill="#474961" fill-rule="nonzero"/>
        <path d="M38.5,12 L220,12 L220,21 L38.5,21 C36.0147186,21 34,18.9852814 34,16.5 C34,14.0147186 36.0147186,12 38.5,12 Z M55,44 L233,44 L233,53 L55,53 L55,44 Z M21,76 L199,76 L199,85 L21,85 L21,76 Z M49,108 L227,108 L227,117 L49,117 L49,108 Z M52,140 L230,140 L230,149 L52,149 L52,140 Z" id="path-4" fill="#D8DEED" fill-rule="nonzero"/>
      </g>
    </g>
  </g>
  <g id="Fish_tank" transform="matrix(0.665097, 0, 0, 0.665097, 101.815768, -22.342495)" style="">
    <g>
      <rect x="260.11" y="297.37" class="st19" width="285" height="164" style="fill: rgb(193, 232, 236); stroke: rgb(194, 232, 236); stroke-miterlimit: 10;"/>
      <rect x="260.35" y="298.42" class="st20" width="0.48" height="161.9" style="fill: rgb(237, 246, 247); stroke: rgb(237, 246, 247); stroke-miterlimit: 10; stroke-width: 4px;"/>
      <rect x="259.545" y="288.753" class="st22" width="285.996" height="8.235" style="fill: rgb(232, 232, 232); stroke: rgb(232, 233, 233); stroke-miterlimit: 10;"/>
      <g>
        <g>
          <path class="st24" d="M493.07,441.39c-1.77-10.92,2.58-20.13,6.7-29.94c2.11-5.03,3.91-10.11,4.49-15.56 c0.65-6.12,0.02-12.3-0.21-18.44c-0.08-2.17-4.94-4.13-5.02-6.23c0.22,5.84,0.81,11.73,0.3,17.57 c-0.51,5.77-2.36,11.13-4.59,16.43c-4.12,9.82-8.47,19.02-6.7,29.94C488.43,437.47,492.7,439.13,493.07,441.39L493.07,441.39z" style="fill: rgb(137, 99, 166);"/>
        </g>
      </g>
      <g>
        <g>
          <path class="st24" d="M508.55,436.89c1.88-14.45,11.3-26.94,11.9-41.62c0.56-13.64-11.23-23.01-11.9-36.31 c-0.11-2.19-4.91-4.11-5.02-6.23c0.67,13.31,12.46,22.66,11.9,36.31c-0.6,14.68-10.02,27.17-11.9,41.62 C503.29,432.53,508.79,435.11,508.55,436.89L508.55,436.89z" style="fill: rgb(137, 99, 166);"/>
        </g>
      </g>
      <g>
        <g>
          <path class="st24" d="M479.56,442.15c-1.32-1.12-2.63-2.24-3.88-3.43c-0.5-0.46-0.99-0.94-1.46-1.42 c-2.35-2.56-2.21-2.33,0.43,0.68c-0.15-1.68-2.15-3.93-2.67-5.74c-1.47-5.05-0.81-10.42,0.35-15.45 c1.77-7.69,5.11-14.99,6.3-22.83c1.18-7.77-0.51-15.05-2.54-22.51c-0.65-2.38-4.38-3.9-5.02-6.23 c2.81,10.35,3.86,19.33,0.87,29.8c-2.39,8.37-6.16,16.82-5.81,25.71c0.45,11.08,10.49,20.92,18.45,27.65 C482.59,446.7,481.56,443.85,479.56,442.15L479.56,442.15z" style="fill: rgb(137, 99, 166);"/>
        </g>
      </g>
      <g>
        <g>
          <path class="st24" d="M489.3,370.43c0.31,0.39,0.63,0.77,0.94,1.16c-1.25-1.57-2.5-3.14-3.75-4.71 c9.56,14-5.02,30.71-8.49,44.45c-1.9,7.5-2.01,15.48,2.08,22.3c2.75,4.59,6.6,9.09,10.49,12.76c-1.91-1.81-3.09-4.41-5.02-6.23 c-1.6-1.63-1.63-1.52-0.09,0.32c-0.51-0.8-0.98-1.63-1.39-2.48c-0.79-1.64-1.39-3.37-1.79-5.15c-0.8-3.6-0.72-7.34-0.17-10.97 c1.09-7.11,4.02-13.58,6.99-20.06c2.84-6.18,6.06-13.01,5.58-20.01c-0.42-6.03-4.26-10.13-7.87-14.58 c-0.09-0.11-1.82-2.32-0.94-1.08C486.93,367.63,488.16,369.02,489.3,370.43L489.3,370.43z" style="fill: rgb(137, 99, 166);"/>
        </g>
      </g>
      <path class="st25" d="M335.16,444.76c-1.14-5.8,1.26-11.71,4.29-16.78c3.03-5.07,6.79-9.79,8.82-15.34 c2.59-7.07,2.09-15.21-1.36-21.9c2.4,5.18,0.8,11.46-2.4,16.19c-3.19,4.73-7.78,8.31-12,12.14c5.37-7.47,7.46-17.22,5.64-26.24 c-1.12-5.55-3.66-11.07-2.64-16.64c-2.05,5.21-3.28,10.75-3.62,16.35c-0.26,4.27-0.02,8.59-0.75,12.8s-2.63,8.47-6.19,10.84 c-2.64-9.59-3.75-19.59-3.28-29.52c0.24-5.03,0.45-11.05-3.65-13.97c2.14,9.91,1.29,20.46-2.44,29.9 c-2.37,6.01-5.77,13.18-1.92,18.37c-10.13-7.7-12.05-22.24-10.59-34.88c0.58-5.07,0.64-11.78-4.19-13.43 c1.66,4.49,3.34,9.11,3.3,13.9c-0.04,6.51-3.24,12.64-3.65,19.13c-0.37,5.88,1.69,11.88,5.59,16.3 c-4.57-6.14-9.15-12.28-13.72-18.41c-3.58-4.8-7.29-11.15-4.32-16.35c-2.17,7.57-4.32,15.8-1.44,23.12 c2.62,6.66,8.81,11.08,14.11,15.88c5.3,4.81,10.27,11.37,9.11,18.43c-0.16,0.97-0.43,1.98-0.11,2.91s1.58,1.59,2.31,0.94" style="fill: rgb(125, 166, 74); stroke: rgb(124, 166, 75); stroke-miterlimit: 10;"/>
      <path class="st26" d="M390.69,446.03c0.6-4.83,0.95-10.44-2.55-13.82c-2.44-2.36-6.05-2.9-9.36-3.66 c-3.31-0.77-6.91-2.21-8.2-5.36c-0.15-0.37-0.26-0.77-0.16-1.15c0.14-0.53,0.64-0.88,1.14-1.12c2.27-1.11,5.12-0.9,7.21,0.52 c1.36,0.93,2.36,2.3,3.65,3.33c1.29,1.03,3.12,1.69,4.58,0.92c1.43-2.31-1.09-4.94-2.98-6.9c-1.89-1.97-3.34-4.37-4.21-6.96 c-0.21-0.61-0.38-1.3-0.12-1.9c0.34-0.8,1.32-1.12,2.19-1.13c4.02-0.04,6.56,4.34,7.47,8.26c0.32,1.39,0.58,2.86,1.44,4.01 s2.55,1.82,3.75,1.05c1.41-0.9,1.25-2.97,0.93-4.61c-0.54-2.73-1.08-5.46-1.62-8.19c-0.54-2.72-0.57-6.4,2.06-7.3 c2.58-0.88,4.91,2.12,5.21,4.83c0.56,5.09-2.48,9.85-3.33,14.9c-0.1,0.58-0.16,1.2,0.08,1.74c0.72,1.63,3.29,1.07,4.45-0.28 c1.65-1.92,2.01-4.59,2.31-7.11c0.29-2.51,0.66-5.19,2.32-7.1s5.1-2.46,6.59-0.42c1.16,1.58,0.61,3.9-0.58,5.46 c-1.19,1.56-2.89,2.64-4.3,4.01c-1.62,1.58-2.85,3.55-3.54,5.71c-0.27,0.85-0.41,1.92,0.25,2.52c0.36,0.32,0.86,0.42,1.35,0.43 c2.27,0.05,4.26-1.45,5.84-3.08c1.58-1.63,3-3.5,5.01-4.55s4.87-0.95,6.13,0.93c1.57,2.34-0.39,5.57-2.83,6.97 c-4.32,2.48-10.17,2.11-13.64,5.68C403.41,436.58,404.53,442.96,390.69,446.03z" style="fill: rgb(99, 194, 152); stroke: rgb(100, 195, 153); stroke-miterlimit: 10;"/>
      <path class="st27" d="M288.65,452.27c0.23-8.16-1.38-16.37-4.66-23.84c-2.5-5.69-5.96-10.96-7.87-16.87 c-1.98-6.11-2.21-12.78-0.66-19.02c0.59,7.16,3.37,13.92,6.12,20.56c0.78,1.88,1.58,3.81,2.96,5.31s3.46,2.52,5.53,2.07 c-10.86-14.86,1.7-37.62-7.36-53.65c4.37,9.53,6.75,19.96,6.94,30.44c0.12,6.81-0.03,14.97,5.66,18.71 c-1.98-4.01,0.34-8.7,2.42-12.66c4.18-7.94,7.64-16.43,8.47-25.36c0.83-8.93-1.21-18.41-7.01-25.25 c12.85,13.11,16.81,34.15,9.62,51.04c-0.87,2.04-1.89,4.07-2.09,6.27c-0.2,2.21,0.68,4.69,2.69,5.62 c-0.69-3.76,2.47-6.95,4.69-10.06c3.99-5.6,5.36-12.99,3.63-19.65c3.66,6.01,4.26,13.78,1.57,20.28 c-1.56,3.77-4.21,7.45-3.67,11.49c1.22-2.92,4.35-4.44,6.74-6.51c3.72-3.21,5.85-8.18,5.6-13.09c1.79,6.61,0.59,13.97-3.21,19.67 c-2.72,4.08-6.91,8.02-6.28,12.89c4.22-2.93,8.48-5.82,12.77-8.65c0.7,3.81-1.98,7.46-5.05,9.83s-6.7,4.06-9.3,6.94 c-2.6,2.88-3.8,7.63-1.25,10.55" style="fill: rgb(153, 210, 118); stroke: rgb(152, 209, 119); stroke-miterlimit: 10;"/>
      <g>
        <g>
          <path class="st28" d="M504.56,445.38c-6.4-12.01,0.71-23.49,5.37-34.69c2.19-5.25,3.91-10.9,3.74-16.65 c-0.18-5.99-2.42-11.61-4.62-17.1c-0.95-2.38-4.08-3.88-5.02-6.23c2.11,5.28,4.28,10.67,4.58,16.41c0.32,6-1.43,11.85-3.7,17.33 c-4.65,11.21-11.78,22.67-5.37,34.69C500.78,441.47,503.33,443.08,504.56,445.38L504.56,445.38z" style="fill: rgb(210, 137, 195);"/>
        </g>
      </g>
      <g>
        <g>
          <path class="st28" d="M495.54,442.15c-2.57-1.47-5.04-3.07-7.31-4.97c-1.31-1.1-3.07-2.53-4.04-3.87 c3.11,4.33,0.58,0.04,0.2-0.71c-2.52-5.01-3.35-10.65-2.26-16.16c2.63-13.25,10.94-23.98,6.44-38 c-0.77-2.39-4.26-3.88-5.02-6.23c2.86,8.89,0.82,17.15-2.28,25.67c-2.81,7.71-6.04,15.11-3.83,23.43 c2.91,10.97,13.6,21.63,23.12,27.07C498.43,447.16,497.72,443.39,495.54,442.15L495.54,442.15z" style="fill: rgb(210, 137, 195);"/>
        </g>
      </g>
      <g>
        <g>
          <path class="st28" d="M496.56,444.38c-5.02-8.47-5.41-17.22-2.98-26.62c2.43-9.39,6.43-17.93,4.48-27.83 c-0.46-2.34-4.57-3.94-5.02-6.23c1.95,9.9-2.05,18.44-4.48,27.83c-2.43,9.39-2.04,18.15,2.98,26.62 C492.9,440.43,495.22,442.12,496.56,444.38L496.56,444.38z" style="fill: rgb(210, 137, 195);"/>
        </g>
      </g>
      <g>
        <g>
          <path class="st28" d="M515.03,391.19c8.41,17.78-10.9,33.24-4.5,50.95c0.86,2.39,4.17,3.88,5.02,6.23 c-6.4-17.72,12.91-33.18,4.5-50.95C518.93,395.07,516.13,393.52,515.03,391.19L515.03,391.19z" style="fill: rgb(210, 137, 195);"/>
        </g>
      </g>
      <path class="st29" d="M263.4,458.25l277.82,0.34l0.26-17.84c0,0-13.78-21.96-57.97-5.25c-5.6,2.12-14.31,11.79-20.2,12.85 c-10.18,1.84-30.06-8.5-40.4-8.92c-8.2-0.33-24.58,6.51-32.53,4.46c-14.82-3.83-27.3-23.02-60.59-8.92 c-13.01,5.51-10.64,17.04-43.02,13.12c-6-0.73-23.35-6.3-23.35-6.3L263.4,458.25z" style="fill: rgb(152, 133, 121); stroke: rgb(152, 133, 121); stroke-miterlimit: 10;"/>
    </g>
  </g>
  <g id="Fish" transform="matrix(0.665097, 0, 0, 0.665097, 109.206927, -22.342495)" style="">
    <g>
      <path class="st30" d="M390.27,356.18c0.83-4.57,0.35-9.37-1.37-13.69c3.06,0.45,5.83,2.2,7.88,4.52s3.41,5.17,4.37,8.11" style="fill: rgb(250, 156, 81); stroke: rgb(250, 156, 81); stroke-dasharray: 0px, 0px, 0px, 0px, 0px, 0px; stroke-miterlimit: 10;"/>
      <path class="st30" d="M388.07,376.96c0.55,3.82-0.87,7.87-3.68,10.52c1.49,1.09,3.57,0.87,5.31,0.25 c4.91-1.73,8.69-6.35,9.42-11.51" style="fill: rgb(250, 156, 81); stroke: rgb(250, 156, 81); stroke-dasharray: 0px, 0px, 0px, 0px, 0px, 0px; stroke-miterlimit: 10;"/>
      <path class="st31" d="M379.15,361.02c-4.06-4.62-9.22-8.25-14.94-10.51c1.48,4.55,2.96,9.09,4.45,13.64 c0.17,0.53,0.35,1.08,0.32,1.65c-0.03,0.48-0.2,0.94-0.38,1.38c-1.69,4.35-3.38,8.69-5.07,13.04c2.89,0.56,5.92-0.28,8.46-1.78 s4.65-3.61,6.54-5.88c0.05,0,0.1,0,0,0c6.54,6.17,15.67,9.49,24.65,8.97s17.66-4.9,23.43-11.79c0.68-0.81,1.35-1.73,1.35-2.79 c0.01-1.24-0.89-2.29-1.78-3.15c-6.23-6.08-14.69-9.81-23.38-10.32C394.12,352.97,385.28,355.69,379.15,361.02z" style="fill: rgb(249, 106, 38); stroke: rgb(251, 107, 39); stroke-dasharray: 0px, 0px, 0px, 0px, 0px, 0px; stroke-miterlimit: 10;"/>
      <path class="st32" d="M421.93,372.05c-5.56,4.63-12.68,7.35-19.91,7.62c-7.23,0.27-14.53-1.91-20.43-6.11 C394.17,380.03,410.12,379.38,421.93,372.05z" style="fill: rgb(243, 207, 42); stroke: rgb(246, 215, 45); stroke-dasharray: 0px, 0px, 0px, 0px, 0px, 0px; stroke-miterlimit: 10;"/>
      <circle class="st33" cx="417.37" cy="364.55" r="1.5" style="stroke: rgb(0, 0, 0); stroke-dasharray: 0px, 0px, 0px, 0px, 0px, 0px; stroke-miterlimit: 10;"/>
      <circle class="st34" cx="427.23" cy="343.83" r="3.38" style="fill: rgb(255, 255, 255); stroke: rgb(255, 255, 255); stroke-dasharray: 0px, 0px, 0px, 0px, 0px, 0px; stroke-miterlimit: 10;"/>
      <circle class="st34" cx="437.73" cy="327.83" r="3.38" style="fill: rgb(255, 255, 255); stroke: rgb(255, 255, 255); stroke-dasharray: 0px, 0px, 0px, 0px, 0px, 0px; stroke-miterlimit: 10;"/>
    </g>
    <path class="st30" d="M481.13,337.52c0.67-3.68,0.28-7.55-1.11-11.03c2.48,0.36,4.72,1.78,6.38,3.65c1.66,1.87,2.76,4.17,3.53,6.54 " style="fill: rgb(250, 156, 81); stroke: rgb(250, 156, 81); stroke-dasharray: 0px, 0px, 0px, 0px, 0px, 0px; stroke-miterlimit: 10;"/>
    <path class="st30" d="M479.35,354.27c0.45,3.08-0.7,6.34-2.98,8.48c1.2,0.88,2.89,0.7,4.3,0.21c3.98-1.4,7.03-5.12,7.62-9.28" style="fill: rgb(250, 156, 81); stroke: rgb(250, 156, 81); stroke-dasharray: 0px, 0px, 0px, 0px, 0px, 0px; stroke-miterlimit: 10;"/>
    <path class="st31" d="M472.13,341.42c-3.28-3.72-7.46-6.65-12.09-8.47c1.2,3.66,2.4,7.33,3.6,10.99c0.14,0.43,0.28,0.87,0.26,1.33 c-0.02,0.39-0.16,0.76-0.3,1.12c-1.37,3.5-2.73,7.01-4.1,10.51c2.34,0.45,4.79-0.23,6.85-1.43c2.05-1.21,3.76-2.91,5.29-4.74 c0.04,0,0.08,0,0,0c5.29,4.97,12.68,7.65,19.94,7.23c7.26-0.42,14.29-3.95,18.96-9.5c0.55-0.65,1.09-1.4,1.1-2.25 c0.01-1-0.72-1.84-1.44-2.54c-5.04-4.9-11.89-7.91-18.91-8.32S477.1,337.13,472.13,341.42z" style="fill: rgb(249, 106, 38); stroke: rgb(251, 107, 39); stroke-dasharray: 0px, 0px, 0px, 0px, 0px, 0px; stroke-miterlimit: 10;"/>
    <path class="st32" d="M506.75,350.31c-4.5,3.73-10.26,5.93-16.11,6.14c-5.85,0.22-11.76-1.54-16.53-4.92 C484.29,356.74,497.19,356.22,506.75,350.31z" style="fill: rgb(243, 207, 42); stroke: rgb(246, 215, 45); stroke-dasharray: 0px, 0px, 0px, 0px, 0px, 0px; stroke-miterlimit: 10;"/>
    <ellipse class="st33" cx="503.06" cy="344.26" rx="1.21" ry="1.21" style="stroke: rgb(0, 0, 0); stroke-dasharray: 0px, 0px, 0px, 0px, 0px, 0px; stroke-miterlimit: 10;"/>
    <ellipse class="st34" cx="511.04" cy="327.57" rx="2.73" ry="2.72" style="fill: rgb(255, 255, 255); stroke: rgb(255, 255, 255); stroke-dasharray: 0px, 0px, 0px, 0px, 0px, 0px; stroke-miterlimit: 10;"/>
    <ellipse class="st34" cx="519.53" cy="314.67" rx="2.73" ry="2.72" style="fill: rgb(255, 255, 255); stroke: rgb(255, 255, 255); stroke-dasharray: 0px, 0px, 0px, 0px, 0px, 0px; stroke-miterlimit: 10;"/>
    <path class="st30" d="M324.09,373.15c-0.66-3.68-0.28-7.55,1.09-11.03c-2.45,0.36-4.66,1.78-6.3,3.65 c-1.63,1.87-2.73,4.17-3.49,6.54" style="fill: rgb(250, 156, 81); stroke: rgb(250, 156, 81); stroke-dasharray: 0px, 0px, 0px, 0px, 0px, 0px; stroke-miterlimit: 10;"/>
    <path class="st30" d="M325.85,389.9c-0.44,3.08,0.69,6.34,2.94,8.48c-1.19,0.88-2.85,0.7-4.25,0.21c-3.93-1.4-6.94-5.12-7.52-9.28" style="fill: rgb(250, 156, 81); stroke: rgb(250, 156, 81); stroke-dasharray: 0px, 0px, 0px, 0px, 0px, 0px; stroke-miterlimit: 10;"/>
    <path class="st31" d="M332.98,377.05c3.24-3.72,7.37-6.65,11.94-8.47c-1.18,3.66-2.37,7.33-3.55,10.99 c-0.14,0.43-0.28,0.87-0.26,1.33c0.02,0.39,0.16,0.76,0.3,1.12c1.35,3.5,2.7,7.01,4.05,10.51c-2.31,0.45-4.73-0.23-6.76-1.43 c-2.03-1.21-3.72-2.91-5.23-4.74c-0.04,0-0.08,0,0,0c-5.23,4.97-12.53,7.65-19.7,7.23c-7.17-0.42-14.11-3.95-18.73-9.5 c-0.54-0.65-1.08-1.4-1.08-2.25c-0.01-1,0.71-1.84,1.42-2.54c4.98-4.9,11.74-7.91,18.68-8.32 C321.01,370.56,328.08,372.76,332.98,377.05z" style="fill: rgb(249, 106, 38); stroke: rgb(251, 107, 39); stroke-dasharray: 0px, 0px, 0px, 0px, 0px, 0px; stroke-miterlimit: 10;"/>
    <path class="st32" d="M298.79,385.94c4.45,3.73,10.13,5.93,15.91,6.14s11.61-1.54,16.32-4.92 C320.97,392.37,308.23,391.85,298.79,385.94z" style="fill: rgb(243, 207, 42); stroke: rgb(246, 215, 45); stroke-dasharray: 0px, 0px, 0px, 0px, 0px, 0px; stroke-miterlimit: 10;"/>
    <ellipse class="st33" cx="302.44" cy="379.89" rx="1.2" ry="1.21" style="stroke: rgb(0, 0, 0); stroke-dasharray: 0px, 0px, 0px, 0px, 0px, 0px; stroke-miterlimit: 10;"/>
    <ellipse class="st34" cx="294.55" cy="363.19" rx="2.7" ry="2.72" style="fill: rgb(255, 255, 255); stroke: rgb(255, 255, 255); stroke-dasharray: 0px, 0px, 0px, 0px, 0px, 0px; stroke-miterlimit: 10;"/>
    <ellipse class="st34" cx="286.16" cy="350.3" rx="2.7" ry="2.72" style="fill: rgb(255, 255, 255); stroke: rgb(255, 255, 255); stroke-dasharray: 0px, 0px, 0px, 0px, 0px, 0px; stroke-miterlimit: 10;"/>
  </g>
  <path d="M 181.471 367.477 C 181.277 365.596 182.78 363.977 184.672 364.023 L 206.405 364.563 C 206.593 364.563 206.768 364.656 206.889 364.795 L 212.201 371.115 C 212.622 371.609 213.435 371.254 213.344 370.607 L 212.615 365.472 C 212.56 365.072 212.874 364.717 213.277 364.732 L 219.491 364.887 C 219.823 364.902 220.096 365.148 220.123 365.488 L 221.946 387.09 C 221.975 387.429 221.734 387.737 221.395 387.784 L 195.776 391.715 C 195.377 391.777 195.017 391.468 195.026 391.068 L 195.248 380.829 C 195.253 380.644 195.172 380.459 195.026 380.336 L 183.118 369.944 C 182.197 369.45 181.573 368.541 181.471 367.477" style="fill: rgb(248, 153, 15); fill-opacity: 1; fill-rule: nonzero; stroke: none;" id="path1092" transform="matrix(-1, 0, 0, -1, 403.402474, 755.745011)"/>
  <path d="M 118.847 368.71 C 118.653 366.829 120.156 365.21 122.048 365.256 L 143.782 365.796 C 143.969 365.796 144.143 365.889 144.263 366.027 L 149.577 372.348 C 149.998 372.842 150.812 372.487 150.72 371.839 L 149.991 366.705 C 149.935 366.305 150.25 365.95 150.652 365.965 L 156.868 366.12 C 157.2 366.135 157.473 366.381 157.501 366.721 L 159.323 388.322 C 159.351 388.661 159.111 388.97 158.773 389.016 L 133.153 392.948 C 132.754 393.009 132.394 392.701 132.404 392.3 L 132.626 382.062 C 132.63 381.877 132.548 381.692 132.402 381.569 L 120.494 371.177 C 119.573 370.683 118.949 369.774 118.847 368.71" style="fill: rgb(248, 153, 15); fill-opacity: 1; fill-rule: nonzero; stroke: none;" id="path1094" transform="matrix(-1, 0, 0, -1, 278.15534, 758.210831)"/>
</svg>