<?xml version="1.0" encoding="utf-8"?>
<svg viewBox="0 0 500 500" xmlns="http://www.w3.org/2000/svg">
  <g id="Geo-location" stroke="none" stroke-width="1" fill="none" fill-rule="evenodd" transform="matrix(1, 0, 0, 1, -462.079169, -217.661914)">
    <title>Geo location</title>
    <desc>Created with Sketch.</desc>
    <g id="g-1" stroke="none" stroke-width="1" fill="none" fill-rule="evenodd" transform="matrix(1, 0, 0, 1, 0.000008, -75.738371)">
      <g id="Group" transform="translate(-39.000000, 33.000000)">
        <g id="g10" transform="matrix(1.333333, 0, 0, -1.333333, 22.183872, 1677.635142)">
          <g id="g12" transform="scale(0.1)">
            <path d="M 7005.942 8762.967 C 7003.932 8764.567 7001.902 8766.167 6999.862 8767.867 C 6998.872 8768.067 6997.882 8768.167 6996.882 8768.367 L 7005.942 8762.967" style="fill:#f4be0a;fill-opacity:1;fill-rule:nonzero;stroke:none" id="path1384"/>
            <path d="M 7032.921 8724.819 C 7058.153 8750.213 7073.336 8786.579 7093.169 8816.75 C 7095.898 8820.909 7098.602 8825.067 7101.288 8829.137 C 7111.447 8844.533 7121.589 8860.017 7131.714 8875.501 C 7105.683 8892.755 7079.04 8907.973 7051.556 8918.945 C 7046.438 8907.177 7040.98 8895.674 7034.944 8884.614 C 7027.633 8871.165 7019.548 8858.425 7010.443 8846.48 C 6987.643 8816.75 6971.908 8780.12 6950.603 8748.797 L 6949.804 8747.647 C 6942.561 8737.649 6933.788 8729.155 6924.836 8721.014 C 6919.021 8715.617 6908.352 8711.281 6905.291 8703.141 C 6904.484 8700.841 6906.813 8698.806 6908.751 8699.956 C 6928.559 8711.547 6950.051 8726.677 6964.554 8744.373 C 6965.506 8745.524 6967.138 8745.612 6968.252 8744.55 C 6969.34 8743.489 6969.417 8741.719 6968.482 8740.48 C 6952.168 8720.66 6927.463 8703.937 6905.784 8691.727 C 6904.883 8691.196 6904.356 8690.134 6904.518 8689.073 C 6904.798 8687.303 6905.164 8685.622 6905.623 8683.764 C 6906.048 8682.26 6907.578 8681.463 6908.93 8682.083 C 6930.982 8692.789 6953.026 8709.069 6975.793 8731.367 C 6976.881 8732.428 6978.522 8732.251 6979.499 8731.101 C 6980.485 8729.951 6980.4 8728.181 6979.312 8727.12 C 6956.061 8704.38 6933.516 8687.745 6910.97 8676.774 C 6909.627 8676.154 6909.108 8674.473 6909.873 8673.057 C 6910.324 8672.261 6910.8 8671.465 6911.319 8670.669 C 6911.948 8669.695 6913.155 8669.253 6914.201 8669.695 C 6940.444 8680.667 6964.894 8696.859 6985.756 8717.298 C 6986.844 8718.36 6988.494 8718.271 6989.488 8717.033 C 6990.474 8715.882 6990.389 8714.024 6989.301 8712.963 C 6969.281 8693.408 6946.081 8677.57 6921.121 8666.421 C 6919.08 8665.537 6919.114 8662.351 6921.265 8661.555 L 6921.605 8661.466 C 6925.847 8660.051 6934.799 8662.617 6938.557 8663.944 C 6965.047 8672.969 6991.172 8688.453 7013.818 8707.3 C 7020.5 8712.874 7026.91 8718.714 7032.921 8724.819" style="fill: rgb(244, 190, 10); fill-opacity: 1; fill-rule: nonzero; stroke: none;" id="path-1" transform="matrix(0, 1, -1, 0, 15808.100342, 1771.897705)"/>
            <path d="M 7032.002 8836.267 C 7015.842 8811.567 6999.692 8786.767 6983.532 8761.967 C 6979.452 8755.667 6974.632 8748.967 6967.332 8747.367 C 6945.442 8742.567 6874.162 8789.667 6853.622 8799.567 C 6806.522 8822.267 6759.422 8844.967 6712.332 8867.767 C 6598.832 8922.467 6516.943 8992.067 6437.493 9088.767 C 6316.953 9235.566 6218.763 9420.966 6221.203 9608.165 C 6221.583 9640.665 6225.103 9674.065 6240.983 9701.165 C 6255.983 9726.565 6296.453 9754.765 6329.403 9748.265 C 6333.473 9747.465 6337.423 9746.165 6341.303 9744.465 C 6378.863 9728.265 6407.293 9674.165 6422.903 9641.565 C 6475.583 9531.966 6490.783 9409.366 6537.263 9300.066 C 6581.652 9195.566 6660.852 9103.567 6754.422 9040.167 C 6841.062 8981.367 6947.962 8943.167 7028.362 8877.567 C 7034.512 8872.567 7040.681 8866.267 7041.221 8858.367 C 7041.691 8851.467 7037.772 8845.167 7034.012 8839.367 C 7033.342 8838.367 7032.672 8837.367 7032.002 8836.267" style="fill:#fde0ec;fill-opacity:1;fill-rule:nonzero;stroke:none" id="path1388"/>
            <path d="M 6065.834 9850.765 C 6031.534 9798.465 5937.444 9790.965 5916.474 9733.365 C 5908.444 9711.265 5914.264 9686.365 5927.844 9666.765 C 5941.424 9647.165 5962.044 9632.165 5984.144 9620.365 C 6030.064 9595.965 6091.244 9584.765 6135.883 9611.665 C 6165.483 9629.465 6182.443 9662.165 6181.463 9694.065 C 6180.753 9717.365 6171.533 9741.165 6179.653 9763.265 C 6187.073 9783.365 6207.153 9797.265 6222.743 9813.265 C 6255.233 9846.565 6269.543 9893.565 6260.373 9936.865 C 6252.333 9974.865 6181.683 10078.864 6129.233 10034.465 C 6069.044 9983.665 6103.084 9907.565 6065.834 9850.765" style="fill:#192137;fill-opacity:1;fill-rule:nonzero;stroke:none" id="path1414"/>
            <path d="M 6356.393 9842.265 L 6361.353 9687.165 L 6259.493 9683.965 L 6258.773 9685.865 L 6266.673 9813.265 L 6266.823 9814.865 L 6269.423 9857.265 L 6269.543 9859.465 L 6300.863 9853.265 L 6300.963 9853.265 L 6304.663 9852.565 L 6356.393 9842.265" style="fill:#f4be0a;fill-opacity:1;fill-rule:nonzero;stroke:none" id="path1416"/>
            <path d="M 6357.023 9823.465 L 6359.103 9758.565 C 6336.423 9768.765 6318.443 9788.065 6310.143 9811.865 C 6307.753 9818.665 6306.013 9826.065 6305.293 9833.665 L 6357.023 9823.465" style="fill:#192137;fill-opacity:1;fill-rule:nonzero;stroke:none" id="path1418"/>
            <path d="M 6414.853 9950.265 C 6409.823 9957.165 6403.993 9963.565 6397.553 9969.365 C 6396.533 9970.265 6395.503 9971.065 6394.483 9971.965 C 6377.223 9986.165 6357.463 9997.065 6336.953 10003.065 C 6330.323 9998.465 6321.983 9995.465 6311.793 9995.165 C 6245.433 9992.965 6253.343 9928.765 6259.063 9870.465 C 6257.213 9868.865 6255.443 9866.565 6255.563 9866.465 C 6261.253 9860.365 6262.033 9839.465 6265.463 9825.865 C 6267.583 9823.265 6269.673 9820.565 6271.693 9817.965 C 6273.443 9815.665 6275.063 9813.265 6276.753 9810.965 C 6297.963 9797.265 6321.563 9787.865 6345.483 9786.265 C 6378.003 9784.265 6421.563 9799.865 6433.733 9833.365 C 6447.733 9871.665 6439.213 9917.065 6414.853 9950.265" style="fill:#f4be0a;fill-opacity:1;fill-rule:nonzero;stroke:none" id="path1420"/>
            <path d="M 6394.663 9880.765 L 6391.773 9886.765 L 6400.703 9890.965 L 6389.813 9930.165 L 6396.233 9931.865 L 6408.613 9887.465 L 6394.663 9880.765" style="fill:#192137;fill-opacity:1;fill-rule:nonzero;stroke:none" id="path1422"/>
            <path d="M 6419.153 9916.265 L 6419.153 9916.265 C 6422.273 9917.165 6424.113 9920.365 6423.243 9923.465 C 6422.373 9926.665 6419.113 9928.465 6415.993 9927.565 C 6412.873 9926.765 6411.023 9923.465 6411.893 9920.365 C 6412.763 9917.265 6416.023 9915.365 6419.153 9916.265" style="fill:#192137;fill-opacity:1;fill-rule:nonzero;stroke:none" id="path1426"/>
            <path d="M 6351.723 9903.565 L 6351.723 9903.565 C 6354.843 9904.465 6356.693 9907.765 6355.823 9910.865 C 6354.953 9913.965 6351.683 9915.865 6348.563 9914.965 C 6345.443 9914.065 6343.603 9910.865 6344.463 9907.665 C 6345.333 9904.565 6348.603 9902.765 6351.723 9903.565" style="fill:#192137;fill-opacity:1;fill-rule:nonzero;stroke:none" id="path1428"/>
            <path d="M 6291.533 9852.965 C 6293.013 9836.365 6282.953 9820.465 6266.823 9814.865 L 6269.423 9857.265 L 6291.443 9852.965 L 6291.533 9852.965" style="fill:#192137;fill-opacity:1;fill-rule:nonzero;stroke:none" id="path1430"/>
            <path d="M 6397.553 9969.365 C 6391.733 9967.165 6385.313 9966.465 6379.313 9967.265 C 6365.023 9968.965 6352.173 9976.865 6339.863 9984.465 C 6337.843 9965.465 6322.873 9948.765 6304.853 9945.265 C 6300.983 9944.465 6297.003 9944.265 6293.523 9942.565 C 6282.813 9937.065 6282.493 9921.665 6283.513 9909.465 C 6285.293 9888.165 6271.353 9864.465 6258.543 9848.365 C 6254.883 9843.665 6250.493 9839.365 6245.123 9837.065 C 6214.913 9868.865 6196.993 9913.165 6215.963 9954.965 C 6230.543 9986.965 6263.003 10006.465 6297.133 10008.165 C 6331.163 10009.865 6366.173 9995.265 6394.483 9971.965 C 6395.503 9971.065 6396.533 9970.265 6397.553 9969.365" style="fill:#192137;fill-opacity:1;fill-rule:nonzero;stroke:none" id="path1432"/>
            <path d="M 6234.763 9852.765 C 6240.253 9833.065 6260.663 9821.465 6280.363 9826.965 C 6300.063 9832.465 6311.583 9852.865 6306.103 9872.565 C 6300.623 9892.265 6280.203 9903.765 6260.503 9898.365 C 6240.813 9892.865 6229.283 9872.465 6234.763 9852.765" style="fill:#f4be0a;fill-opacity:1;fill-rule:nonzero;stroke:none" id="path1434"/>
            <path d="M 5901.944 7118.371 C 5883.784 7161.171 5855.654 7227.771 5855.844 7228.471 L 5902.894 7293.97 C 5856.464 7320.37 5810.004 7346.77 5763.484 7372.97 L 5694.294 7248.27 C 5688.424 7238.271 5681.924 7226.671 5675.494 7215.171 C 5669.954 7205.071 5664.574 7195.071 5659.814 7186.171 L 5899.754 7052.571 C 5904.964 7062.971 5907.764 7074.271 5908.084 7085.671 C 5908.384 7096.771 5906.354 7107.871 5901.944 7118.371" style="fill:#8459b3;fill-opacity:1;fill-rule:nonzero;stroke:none" id="path1436"/>
            <path d="M 5905.824 7038.571 L 5647.704 7182.271 C 5652.114 7190.571 5657.094 7199.871 5662.244 7209.271 L 5912.454 7069.971 C 5912.824 7058.971 5910.604 7048.271 5905.824 7038.571" style="fill:#192137;fill-opacity:1;fill-rule:nonzero;stroke:none" id="path1438"/>
            <path d="M 5697.894 7416.67 C 5692.474 7407.67 5686.764 7397.77 5688.074 7387.27 C 5689.794 7373.47 5702.804 7364.27 5714.714 7357.07 C 5784.114 7314.97 5856.844 7278.47 5932.004 7247.77 C 6193.833 7691.47 6365.483 8188.168 6433.513 8698.767 C 6446.183 8793.967 6445.543 8910.767 6363.813 8961.067 C 6271.113 9018.067 6136.973 8945.367 6092.454 8856.067 C 6053.524 8777.967 6069.914 8653.767 6059.134 8567.768 C 6027.124 8312.368 5974.854 8058.269 5886.554 7815.969 C 5836.074 7677.47 5773.824 7543.17 5697.894 7416.67" style="fill:#687ec8;fill-opacity:1;fill-rule:nonzero;stroke:none" id="path1440"/>
            <path d="M 7149.621 7152.971 C 7106.431 7170.171 7039.331 7197.071 7038.951 7197.771 L 7025.572 7277.27 C 6974.132 7262.97 6922.722 7248.47 6871.332 7233.971 L 6911.122 7096.971 C 6914.122 7085.771 6917.752 7072.971 6921.412 7060.371 C 6924.672 7049.271 6928.002 7038.371 6930.992 7028.771 L 7194.801 7105.071 C 7191.031 7116.071 7185.011 7126.071 7177.141 7134.271 C 7169.461 7142.371 7160.191 7148.671 7149.621 7152.971" style="fill:#8459b3;fill-opacity:1;fill-rule:nonzero;stroke:none" id="path1442"/>
            <path d="M 7209.011 7099.471 L 6925.212 7017.471 C 6922.412 7026.371 6919.282 7036.571 6916.242 7046.771 L 7191.351 7126.371 C 7199.411 7118.871 7205.431 7109.771 7209.011 7099.471" style="fill:#192137;fill-opacity:1;fill-rule:nonzero;stroke:none" id="path1444"/>
            <path d="M 6187.493 8478.368 C 6312.403 8286.768 6424.493 8086.569 6516.013 7876.969 C 6613.362 7653.97 6687.912 7419.67 6813.542 7211.371 C 6819.632 7201.271 6826.692 7190.571 6837.862 7186.671 C 6848.682 7182.971 6860.492 7186.771 6871.292 7190.571 C 6933.672 7212.271 6996.052 7233.971 7058.431 7255.67 C 7064.551 7257.87 7071.261 7260.47 7074.091 7266.27 C 7077.071 7272.47 7074.621 7279.67 7072.141 7286.07 C 6868.132 7809.469 6664.122 8332.868 6460.113 8856.267 C 6445.533 8893.667 6430.353 8932.067 6402.943 8961.367 C 6366.143 9000.767 6312.363 9018.567 6260.633 9033.767 C 6146.963 9067.067 5948.094 9082.867 5974.224 8912.167 C 5998.504 8753.467 6102.184 8609.268 6187.493 8478.368" style="fill:#8b9fd8;fill-opacity:1;fill-rule:nonzero;stroke:none" id="path1446"/>
            <path d="M 6132.683 9660.265 C 6075.104 9598.765 6041.144 9518.866 6017.554 9437.966 C 5968.134 9268.566 5959.634 9090.167 5958.704 8913.767 C 6128.403 8906.867 6298.003 8897.467 6467.433 8885.467 C 6486.353 9120.466 6477.813 9357.666 6442.033 9590.765 C 6412.603 9782.465 6257.273 9793.365 6132.683 9660.265" style="fill:#fde0ec;fill-opacity:1;fill-rule:nonzero;stroke:none" id="path1448"/>
            <path d="M 5834.734 9046.267 C 5839.654 9035.167 5849.124 9027.367 5858.424 9020.167 C 5902.484 8985.967 5949.454 8955.867 5998.714 8930.167 C 6012.494 8922.967 6027.594 8915.967 6043.304 8919.067 C 6056.314 8921.567 6067.674 8930.667 6077.624 8940.467 C 6110.183 8972.267 6133.583 9012.967 6155.123 9053.667 C 6189.653 9119.066 6220.613 9186.466 6245.893 9255.866 C 6268.543 9318.066 6286.143 9381.566 6298.193 9446.366 C 6305.253 9484.166 6319.823 9526.866 6319.423 9565.166 C 6318.993 9605.865 6298.673 9661.765 6265.603 9682.165 C 6221.543 9709.365 6177.403 9669.765 6149.333 9631.365 C 6121.453 9593.165 6097.774 9551.966 6074.174 9510.866 C 6000.254 9382.166 5926.344 9253.466 5852.434 9124.766 C 5838.414 9100.367 5823.924 9070.667 5834.734 9046.267 Z M 5696.754 9059.967 C 5735.214 9115.166 5782.264 9160.166 5821.274 9213.366 C 5824.224 9217.466 5827.124 9221.466 5829.974 9225.666 C 5920.694 9356.866 6009.644 9489.466 6096.714 9623.265 C 6118.433 9656.665 6140.663 9690.865 6171.213 9715.365 C 6201.753 9739.965 6242.833 9753.265 6276.473 9739.265 C 6303.183 9728.065 6329.133 9704.965 6340.043 9676.865 C 6364.253 9614.465 6367.763 9531.466 6358.813 9462.466 C 6332.133 9256.566 6254.603 9057.267 6149.893 8876.067 C 6098.564 8787.167 6041.844 8701.567 5980.244 8619.968 C 5949.784 8579.668 5914.734 8537.868 5868.414 8524.968 C 5815.054 8509.968 5762.864 8537.268 5716.444 8563.768 C 5675.774 8586.968 5634.495 8610.668 5602.585 8645.767 C 5570.665 8680.767 5548.875 8729.367 5555.185 8779.767 C 5558.395 8805.367 5568.575 8829.967 5579.345 8853.667 C 5612.085 8925.967 5651.514 8995.167 5696.754 9059.967" style="fill:#8855b0;fill-opacity:1;fill-rule:nonzero;stroke:none" id="path1450"/>
            <path d="M 5676.874 8475.568 C 5706.554 8504.268 5724.414 8545.368 5747.744 8579.468 C 5750.954 8584.168 5754.134 8588.868 5757.294 8593.468 C 5769.244 8610.868 5781.174 8628.368 5793.084 8645.867 C 5762.464 8665.367 5731.124 8682.567 5698.794 8694.967 C 5692.774 8681.667 5686.354 8668.667 5679.254 8656.167 C 5670.654 8640.967 5661.144 8626.568 5650.434 8613.068 C 5623.615 8579.468 5605.105 8538.068 5580.045 8502.668 L 5579.105 8501.368 C 5570.585 8490.068 5560.265 8480.468 5549.735 8471.268 C 5542.895 8465.168 5530.345 8460.268 5526.745 8451.068 C 5525.795 8448.468 5528.535 8446.168 5530.815 8447.468 C 5554.115 8460.568 5579.395 8477.668 5596.455 8497.668 C 5597.575 8498.968 5599.495 8499.068 5600.805 8497.868 C 5602.085 8496.668 5602.175 8494.668 5601.075 8493.268 C 5581.885 8470.868 5552.825 8451.968 5527.325 8438.168 C 5526.265 8437.568 5525.645 8436.368 5525.835 8435.168 C 5526.165 8433.168 5526.595 8431.268 5527.135 8429.168 C 5527.635 8427.468 5529.435 8426.568 5531.025 8427.268 C 5556.965 8439.368 5582.895 8457.768 5609.675 8482.968 C 5610.955 8484.168 5612.885 8483.968 5614.035 8482.668 C 5615.195 8481.368 5615.095 8479.368 5613.815 8478.168 C 5586.465 8452.468 5559.945 8433.668 5533.425 8421.268 C 5531.845 8420.568 5531.235 8418.668 5532.135 8417.068 C 5532.665 8416.168 5533.225 8415.268 5533.835 8414.368 C 5534.575 8413.268 5535.995 8412.768 5537.225 8413.268 C 5568.095 8425.668 5596.855 8443.968 5621.395 8467.068 C 5622.675 8468.268 5624.615 8468.168 5625.785 8466.768 C 5626.945 8465.468 5626.845 8463.368 5625.565 8462.168 C 5602.015 8440.068 5574.725 8422.168 5545.365 8409.568 C 5542.965 8408.568 5543.005 8404.968 5545.535 8404.068 L 5545.935 8403.968 C 5550.925 8402.368 5561.455 8405.268 5565.875 8406.768 C 5597.035 8416.968 5627.765 8434.468 5654.404 8455.768 C 5662.264 8462.068 5669.804 8468.668 5676.874 8475.568" style="fill:#f4be0a;fill-opacity:1;fill-rule:nonzero;stroke:none" id="path1486"/>
            <path d="M 5806.744 8661.067 C 5872.474 8851.267 5994.104 9013.667 6105.724 9178.566 C 6200.373 9318.466 6357.483 9503.866 6296.213 9679.365 C 6292.143 9691.065 6286.953 9703.165 6276.723 9710.065 C 6267.243 9716.465 6254.983 9717.165 6243.643 9715.765 C 6189.373 9708.765 6151.633 9660.065 6120.193 9615.265 C 5926.534 9339.466 5680.844 9011.867 5658.474 8663.867 C 5655.594 8619.068 5662.974 8560.668 5706.704 8550.468 C 5731.074 8544.868 5756.504 8559.168 5771.724 8578.968 C 5786.944 8598.868 5794.244 8623.468 5802.064 8647.267 C 5803.594 8651.867 5805.154 8656.467 5806.744 8661.067" style="fill:#fde0ec;fill-opacity:1;fill-rule:nonzero;stroke:none" id="path1488"/>
            <g transform="matrix(-7.500002, 0, 0, -7.500002, 7905.321777, 10940.944336)" style="visibility: hidden;">
              <path class="st3" d="M276.95,505.52c-1.2,2.78-2.56,5.49-4.08,8.1c0.95,0.53,1.85,1.13,2.7,1.81c1.32-2.26,2.56-4.57,3.72-6.92 c0.09-0.19,0.19-0.41,0.11-0.6c-0.07-0.18-0.26-0.28-0.43-0.37C277.99,507.04,277,506.55,276.95,505.52z" style="fill: rgb(94, 94, 94);"/>
              <path class="st3" d="M312.33,521.09c-0.41,3.32-0.83,6.64-1.24,9.95c1.16,0.03,2.33,0.07,3.49,0.1c0.3-3.08,0.61-6.16,0.82-9.19 C314.17,521.72,312.94,521.5,312.33,521.09z" style="fill: rgb(94, 94, 94);"/>
              <path class="st3" d="M343.17,514.67c0.82,2.85,1.48,5.75,1.95,8.67c1-0.23,1.97-0.57,2.89-1.02c-0.81-2.87-1.61-5.74-2.42-8.61 C344.65,513.64,343.69,514.01,343.17,514.67z" style="fill: rgb(94, 94, 94);"/>
              <path class="st4" d="M287.35,403.11c-4.71,0.42-12.52,0.96-15.68,4.62c-2.35,2.73-2.19,6.78-2.13,10.38 c0.49,27.35,0.98,54.7,1.47,82.05c0.04,2.05,0.09,4.18,1.01,6.02c1.17,2.33,3.52,3.8,5.8,5.07c11.76,6.54,24.67,11.02,38.21,12.77 c0.34,0.04,0.96-0.26,0.96-0.26s2.72-5.03,3.03-7.91c3.48-31.59,4.81-63.41,3.31-95.27c-0.01-0.18,1.59-10.78,1.59-10.78 c0.5-0.56,1.06-1.73,0.45-2.17c-0.95-0.69-1.41-3.7-2.61-3.89C310.28,401.7,296.36,402.31,287.35,403.11z" style="fill: rgb(194, 97, 68);"/>
              <path class="st4" d="M311.37,401.45c-0.01-0.66,22.88,0.82,23.54,0.91c4.36,0.56,14.87,2.68,17.42,8.15 c0.9,1.92,0.94,4.12,0.96,6.24c0.32,29.97,0.65,59.94,0.97,89.92c0.02,2.17-0.01,4.53-1.35,6.25c-1.04,1.33-2.68,2.02-4.25,2.65 l-8.81,3.55c-0.97,0.39-1.62-0.45-1.73-1.49c-2.4-21.89-0.82-45.02,0.14-71.06C338.74,433.53,311.67,415.2,311.37,401.45z" style="fill: rgb(194, 97, 68);"/>
              <line class="st5" x1="275.69" y1="429.63" x2="311.35" y2="434.53" style="fill: rgb(224, 126, 96); stroke: rgb(224, 126, 97); stroke-miterlimit: 10; stroke-width: 5px;"/>
              <line class="st5" x1="275.89" y1="445.39" x2="309.51" y2="451.32" style="fill: rgb(224, 126, 96); stroke: rgb(224, 126, 97); stroke-miterlimit: 10; stroke-width: 5px;"/>
              <line class="st5" x1="276.74" y1="462.52" x2="307.69" y2="469.46" style="fill: rgb(224, 126, 96); stroke: rgb(224, 126, 97); stroke-miterlimit: 10; stroke-width: 5px;"/>
              <line class="st5" x1="278.12" y1="483.03" x2="308.57" y2="491.04" style="fill: rgb(224, 126, 96); stroke: rgb(224, 126, 97); stroke-miterlimit: 10; stroke-width: 5px;"/>
              <path class="st6" d="M317,523.78c4.67,0.3,15.57-0.87,15.92-2.26c3.88-15.68,3.64-106.1-1.28-113.71 c-1.6-2.47-6.63-3.72-7.82-1.47c-0.85,1.62-2.6,6.11-2.68,8.65C320.03,451.43,319.44,488.38,317,523.78z" style="fill: rgb(224, 126, 96);"/>
              <path class="st7" d="M282.66,403.56c15.84-3.24,32.38-3.02,48.13,0.64c1.9,0.44,3.85,0.96,5.42,2.12c1.57,1.16,2.47,4.37,2.47,5.8 c0,37.76,1.39,70.99,1.39,107.23c-2.51,1.68-4.28,2.56-7.15,2.17c-0.16-35.58-1.64-71.25-1.8-106.83 c-0.01-2.75-1.26-6.02-3.7-7.05c-8.66-3.63-16.25-3.08-25.58-4.12C295.98,402.88,289.03,402.7,282.66,403.56z" style="fill: rgb(79, 79, 79);"/>
              <path class="st8" d="M 303.204 400.999 C 303.856 390.774 303.811 380.225 304.419 370.001 C 305.027 359.776 305.519 341.768 308.288 336.312 C 309.977 332.989 314.062 335.812 316.043 335.269 C 320.073 334.149 323.534 339.617 326.011 349.913 C 327.891 357.717 328.049 368.339 328.139 378.202 C 328.229 388.895 328.524 394.17 328.625 404.827 C 332.799 402.941 325.342 406.562 323.687 404.54 C 323.789 394.749 323.208 391.713 322.769 381.995 C 322.386 373.469 322.151 350.958 320.091 345.466 C 318.042 340.011 315.576 334.798 317.289 338.215 C 318.558 340.747 311.366 334.59 310.735 337.877 C 310.15 340.911 308.483 369.206 308.382 372.782 C 308.101 382.573 307.819 392.328 307.526 402.119 C 306.063 403.563 304.386 402.553 303.204 400.999 Z" style="fill: rgb(61, 61, 61);"/>
              <ellipse class="st8" cx="313.08" cy="535.23" rx="5.25" ry="6.5" style="fill: rgb(61, 61, 61);"/>
              <ellipse class="st8" cx="347.64" cy="525.2" rx="4.75" ry="6" style="fill: rgb(61, 61, 61);"/>
              <ellipse class="st8" cx="273.84" cy="517.58" rx="5.25" ry="6.25" style="fill: rgb(61, 61, 61);"/>
            </g>
          </g>
        </g>
      </g>
    </g>
  </g>
  <g id="Bubble" class="st0" transform="matrix(1, 0, 0, 1, -140.321383, -45.604462)" style="display: none;">
    <g class="st17">
      <ellipse class="st22" cx="224.62" cy="88.94" rx="96.75" ry="56.84" style="fill: rgb(207, 204, 204);"/>
      <ellipse class="st23" cx="233.87" cy="79.9" rx="99.56" ry="58.94" style="fill: rgb(255, 255, 255); stroke: rgb(207, 207, 207); stroke-miterlimit: 10;"/>
      <circle class="st23" cx="317.22" cy="130.38" r="8" style="fill: rgb(255, 255, 255); stroke: rgb(207, 207, 207); stroke-miterlimit: 10;"/>
      <circle class="st23" cx="333.43" cy="145.78" r="5.38" style="fill: rgb(255, 255, 255); stroke: rgb(207, 207, 207); stroke-miterlimit: 10;"/>
      <ellipse class="st23" cx="352.89" cy="154.66" rx="4" ry="4" style="fill: rgb(255, 255, 255); stroke: rgb(207, 207, 207); stroke-miterlimit: 10;"/>
    </g>
  </g>
  <g id="Layer_15" transform="matrix(1, 0, 0, 1, -71.966256, -2.380303)">
    <path class="st48" d="M 171.152 118.353 C 171.382 129.863 180.342 140.603 191.622 142.893 C 202.902 145.183 215.342 138.783 219.942 128.353 C 221.822 133.113 233.822 142.273 248.962 137.123 C 256.722 134.483 263.142 128.183 266.022 120.363 C 267.302 126.403 274.082 129.403 280.102 130.753 C 302.842 135.833 327.302 119.543 326.022 106.433 C 334.632 109.333 344.782 106.063 350.572 99.063 C 356.362 92.063 357.752 81.883 354.652 73.343 C 351.552 64.803 344.282 58.043 335.752 54.913 C 330.062 52.833 323.622 52.313 318.232 54.883 C 319.502 50.963 317.622 46.273 314.002 44.303 C 310.382 42.343 305.422 43.323 302.772 46.353 C 299.225 10.096 262.086 24.948 255.692 33.143 C 230.492 -5.807 197.732 34.743 197.732 34.743 C 197.732 34.743 163.492 28.273 153.622 44.603 C 149.722 51.063 148.452 59.603 152.462 65.763 C 138.032 66.513 127.302 89.133 132.652 103.453 C 139.052 120.573 159.502 120.533 170.342 118.353 C 170.542 118.263 170.742 118.163 171.152 118.353 Z" style="stroke-miterlimit: 10; stroke-width: 3px; fill-rule: evenodd; stroke: rgba(85, 154, 218, 0.22); paint-order: stroke; fill: rgb(255, 255, 255);"/>
    <path class="st49" d="M 371.388 89.496 C 368.538 88.766 365.198 88.136 362.928 90.006 C 360.968 91.626 360.688 94.796 362.068 96.926 C 363.448 99.066 366.178 100.116 368.708 99.836 C 369.368 99.766 370.058 99.616 370.678 99.856 C 371.178 100.056 371.548 100.476 371.918 100.866 C 375.508 104.616 381.558 106.066 386.178 103.696 C 390.798 101.326 393.108 94.956 390.508 90.456 C 388.618 87.196 384.678 85.466 380.908 85.566 C 377.148 85.676 373.568 87.386 371.388 89.496 Z" style="stroke-miterlimit: 10; stroke-width: 3px; fill-rule: evenodd; stroke: rgba(85, 154, 218, 0.22); paint-order: stroke; fill: rgb(255, 255, 255);"/>
  </g>
  <g transform="matrix(1, 0, 0, 1, -64.831338, -6.64505)">
    <rect x="177.2" y="49.45" class="st25" width="112.86" height="58.29" style="fill: rgb(187, 230, 49); stroke: rgb(191, 231, 232); stroke-miterlimit: 10; stroke-width: 4px;"/>
    <path class="st26" d="M263.73,98.05c0.52-0.98,0.06-2.18-0.71-3.02c-0.77-0.85-1.81-1.46-2.7-2.21c-2.05-1.74-3.22-4.26-3.16-6.77 c0.07-2.51,1.38-4.97,3.53-6.62c1.4,0.59,1.62,2.3,1.25,3.63s-1.16,2.61-1.06,3.98c0.1,1.37,1.7,2.77,3.09,2.14 c0.73-0.33,1.08-1.08,1.25-1.79c0.81-3.31-0.83-6.7-0.78-10.09c0.02-0.97,0.19-1.97,0.78-2.79c0.59-0.82,1.68-1.41,2.77-1.27 c1.41,0.18,2.31,1.48,2.54,2.72c0.73,4.04-3.47,8.21-1.63,11.96c0.24,0.5,0.62,0.98,1.18,1.2c1.01,0.4,2.25-0.26,2.69-1.16 c0.44-0.9,0.27-1.94,0-2.89c-0.27-0.95-0.65-1.9-0.61-2.88c0.01-0.31,0.09-0.66,0.39-0.84c0.21-0.13,0.49-0.13,0.75-0.1 c1.85,0.23,2.88,2.06,3.04,3.7c0.25,2.53-0.85,5.14-2.91,6.9c-1.42,1.21-3.41,2.31-3.42,4.05c0,0.51,0.16,1.11-0.24,1.49 c-0.2,0.19-0.51,0.27-0.8,0.34C267.23,98.08,265.43,98.14,263.73,98.05z" style="fill: rgb(151, 166, 47); stroke: rgb(182, 197, 129); stroke-miterlimit: 10;"/>
    <path class="st27" d="M250.68,101.69c0.82-1.39,0.11-3.18-1.19-4.25c-1.3-1.07-3.06-1.57-4.77-2c-2.61-0.66-5.39-1.27-7.3-2.97 c-0.53-0.47-1-1.17-0.66-1.76c0.43-0.75,1.72-0.59,2.52-0.15c1.02,0.57,1.8,1.41,2.7,2.12c0.9,0.7,2.04,1.3,3.25,1.19 c1.2-0.11,2.31-1.2,1.91-2.2c-0.22-0.55-0.8-0.92-1.34-1.25c-2.1-1.31-4.17-2.74-5.6-4.63c-1.42-1.89-2.12-4.33-1.28-6.47 c0.06-0.15,0.14-0.32,0.29-0.41c0.3-0.18,0.72,0,0.99,0.22c1.34,1.09,1.36,2.91,1.85,4.46s2.31,3.16,3.9,2.37 c1.13-0.56,1.26-1.94,1.21-3.08c-0.12-2.79-0.45-5.56-1-8.31c-0.57-2.83-1.31-5.92,0.25-8.45c0.67-1.08,1.92-2.02,3.31-1.88 c1.66,0.17,2.65,1.83,2.56,3.3s-0.94,2.8-1.62,4.15c-1.99,3.96-2.52,8.47-1.51,12.71c0.07,0.31,0.17,0.64,0.44,0.84 c0.75,0.58,1.83-0.28,2.23-1.08c0.54-1.08,0.84-2.25,0.87-3.43c0.02-0.84,0.36-2.05,1.29-1.87c0.36,0.07,0.61,0.36,0.78,0.65 c0.84,1.43,0.45,3.2-0.3,4.67s-1.86,2.8-2.48,4.32c-0.21,0.51-0.34,1.13,0.04,1.56c0.55,0.63,1.72,0.35,2.42-0.17 c0.7-0.51,1.3-1.22,2.19-1.36c1.12-0.17,2.23,0.89,1.95,1.86c-0.32,1.12-1.84,1.5-2.98,2.06c-3.25,1.59-3.87,6.16-1.13,8.38 C253.34,101.07,252.21,101.31,250.68,101.69z" style="fill: rgb(151, 166, 47); stroke: rgb(150, 181, 127); stroke-miterlimit: 10;"/>
    <path class="st28" d="M177.11,108.4l113.53,0.04l-0.72-12.23c0,0-12.52-1.75-16.68-1.36c-6.87,0.65-26.34,7.36-26.34,7.36 s-14.19-2.5-18.99-2.42c-6.53,0.11-25.68,4.16-25.68,4.16s-6.59-2.3-8.89-2.13C188.89,102.15,177.11,108.4,177.11,108.4z" style="fill: rgb(156, 139, 112); stroke: rgb(177, 159, 129); stroke-miterlimit: 10;"/>
    <line class="st29" x1="176.55" y1="107.74" x2="290.63" y2="107.74" style="fill: rgb(187, 174, 151); stroke: rgb(187, 174, 151); stroke-miterlimit: 10; stroke-width: 4px;"/>
    <rect x="175.94" y="49.65" class="st30" width="2.33" height="58.99" style="fill: rgb(227, 242, 244);"/>
    <rect x="288.89" y="49.65" class="st30" width="2.33" height="58.99" style="fill: rgb(227, 242, 244);"/>
    <path class="st34" d="M222.61,59.39c-1.03,0.1-1.88,0.81-2.34,1.64c-0.45,0.82-0.59,1.75-0.74,2.66 c-0.15,0.91-0.33,1.84-0.88,2.61c1.36-0.35,2.71-0.7,4.07-1.05c0.87-0.22,1.81-0.5,2.28-1.17c0.15-1.98,1-3.92,2.41-5.46 c0.29-0.31,0.6-0.62,1.02-0.8c0.78-0.34,1.83-0.1,2.47,0.6c-0.26,0.06-0.52,0.12-0.77,0.18c-0.34,0.08-0.7,0.16-0.96,0.37 c-0.34,0.26-0.47,0.66-0.67,1.02s-0.56,0.71-1,0.68c0.72,0.27,1.47,0.55,2.26,0.54c0.92-0.01,1.81-0.46,2.3-1.14 c0.12-0.17,0.22-0.35,0.39-0.49s0.43-0.2,0.55-0.09c0.24,0.35,0.72,0.49,1.17,0.56c0.83,0.14,1.68,0.17,2.53,0.09 c-0.92,0.41-1.91,0.7-2.92,0.86c0.33,0.26,0.2,0.73,0.05,1.1c-0.35,0.81-0.7,1.63-1.23,2.36c-0.53,0.73-1.26,1.38-2.17,1.69 c1.8-0.22,3.49-1.06,4.65-2.29c1.14-1.23,1.79-2.83,3.26-3.72c2.19-0.11,4.37-0.58,6.32-1.48c0.68-0.31,1.41-0.81,1.36-1.48 c-0.03-0.46-0.44-0.83-0.84-1.13c-1.88-1.37-4.33-2.1-6.77-2.03c-0.02-0.29-0.04-0.58-0.05-0.87c0-0.08-0.01-0.17-0.07-0.23 c-0.07-0.08-0.2-0.08-0.32-0.09c-0.49-0.04-0.97-0.2-1.36-0.46c-0.16-0.1-0.31-0.23-0.5-0.28c-0.4-0.12-0.83,0.09-1.2,0.27 c-1.33,0.64-2.83,0.96-4.33,1.15c0.39,0.09,0.71,0.38,0.81,0.72s-0.03,0.73-0.37,0.92c-0.93,0.53-2.13,0.73-3.2,0.44 c-0.43-0.12-0.82-0.31-1.23-0.47c-1.88-0.72-4.08-0.71-6-0.09c-1.93,0.62-3.58,1.81-4.79,3.27c-0.37,0.45-0.71,0.93-1.18,1.31 c-0.47,0.38-1.1,0.65-1.74,0.58c2.2-0.82,4.87,0.53,7.06-0.29c0.45-0.17,0.85-0.42,1.31-0.58c0.45-0.16,1-0.21,1.35,0.06 C222.6,59.39,222.62,59.39,222.61,59.39z" style="fill: rgb(151, 166, 47); stroke: rgb(181, 162, 144); stroke-miterlimit: 10;"/>
    <g transform="matrix(1, 0, 0, 1, -0.639738, 15.930759)">
      <path class="st42" d="M192.51,56.8c1.06-1.65,2.14-3.32,3.59-4.67c1.45-1.34,3.34-2.34,5.34-2.35 c-2.94,6.87-2.97,14.87-0.08,21.76c0.17,0.4,0.33,0.91,0.02,1.21c-0.2,0.2-0.53,0.22-0.82,0.21c-3.8-0.15-7.28-3.1-7.96-6.74 C191.97,62.85,193.54,59.35,192.51,56.8z" style="fill: rgb(217, 193, 60);"/>
      <path class="st39" d="M184.13,61.77c1.65-4.2,6.22-6.97,10.83-7.17c4.62-0.2,9.14,1.9,12.47,5.08c1.33-2.39,3.54-4.29,6.14-5.28 c-0.74,2.64-1.67,5.24-2.79,7.8c1.05,1.71,2.32,3.29,3.98,4.75c-0.53,0.96-2.03,0.64-2.98,0.07c-1.71-1.01-3.2-2.38-4.34-3.98 c-1.57,3.08-4.98,5.03-8.48,5.44s-7.06-0.54-10.19-2.11C186.8,65.38,184.86,64.03,184.13,61.77z" style="fill: rgb(219, 239, 52);"/>
    </g>
    <g transform="matrix(1, 0, 0, 1, 39.529202, -8.82661)">
      <rect x="39.36" y="186.34" class="st25" width="231.5" height="135.56" style="fill: rgb(190, 230, 232); stroke: rgb(191, 231, 232); stroke-miterlimit: 10; stroke-width: 4px;"/>
      <path class="st26" d="M 216.86 299.37 C 217.92 297.08 216.98 294.31 215.41 292.34 C 213.84 290.37 211.7 288.94 209.88 287.19 C 205.67 283.14 203.27 277.29 203.41 271.45 C 203.55 265.61 206.24 259.88 210.64 256.05 C 213.51 257.43 213.97 261.4 213.2 264.49 C 212.43 267.58 210.82 270.56 211.02 273.74 C 211.22 276.92 214.52 280.18 217.35 278.72 C 218.85 277.95 219.56 276.2 219.91 274.55 C 221.57 266.84 218.2 258.96 218.31 251.08 C 218.34 248.82 218.69 246.49 219.9 244.59 C 221.11 242.69 223.34 241.31 225.57 241.63 C 228.46 242.05 230.31 245.07 230.77 247.96 C 232.26 257.36 223.65 267.05 227.43 275.78 C 227.93 276.93 228.69 278.05 229.84 278.56 C 231.92 279.49 234.46 277.96 235.36 275.86 C 236.26 273.76 235.91 271.35 235.35 269.14 C 234.79 266.93 234.02 264.72 234.09 262.44 C 234.11 261.71 234.28 260.89 234.88 260.48 C 235.32 260.18 235.89 260.17 236.42 260.24 C 240.21 260.78 242.32 265.03 242.66 268.84 C 243.18 274.72 240.92 280.79 236.68 284.89 C 233.77 287.7 229.68 290.27 229.66 294.31 C 229.66 295.51 229.98 296.89 229.17 297.77 C 228.75 298.22 228.13 298.41 227.53 298.56 C 224.04 299.44 220.34 299.58 216.86 299.37 Z" style="fill: rgb(183, 196, 130); stroke: rgb(182, 197, 129); stroke-miterlimit: 10;"/>
      <path class="st27" d="M 190.09 307.83 C 191.76 304.59 190.31 300.43 187.64 297.95 C 184.97 295.46 181.37 294.29 177.87 293.29 C 172.52 291.76 166.82 290.33 162.89 286.39 C 161.8 285.3 160.84 283.67 161.55 282.3 C 162.44 280.56 165.08 280.92 166.72 281.96 C 168.81 283.28 170.41 285.24 172.26 286.88 C 174.11 288.52 176.45 289.9 178.92 289.65 C 181.38 289.4 183.66 286.86 182.84 284.53 C 182.39 283.25 181.21 282.4 180.1 281.61 C 175.79 278.57 171.54 275.24 168.62 270.84 C 165.7 266.44 164.26 260.77 165.99 255.79 C 166.11 255.43 166.27 255.06 166.58 254.84 C 167.2 254.41 168.05 254.83 168.6 255.34 C 171.35 257.88 171.39 262.11 172.39 265.72 C 173.39 269.33 177.14 273.07 180.4 271.23 C 182.72 269.92 182.98 266.73 182.88 264.06 C 182.64 257.58 181.95 251.12 180.83 244.74 C 179.67 238.15 178.13 230.97 181.34 225.1 C 182.71 222.59 185.29 220.4 188.12 220.73 C 191.52 221.13 193.57 225 193.38 228.41 C 193.19 231.83 191.45 234.92 190.06 238.05 C 185.98 247.26 184.88 257.76 186.95 267.62 C 187.1 268.34 187.3 269.1 187.85 269.58 C 189.38 270.92 191.61 268.94 192.43 267.08 C 193.54 264.57 194.15 261.84 194.22 259.09 C 194.27 257.13 194.96 254.31 196.87 254.74 C 197.61 254.9 198.12 255.57 198.47 256.24 C 200.2 259.57 199.4 263.68 197.84 267.1 C 196.28 270.52 194.03 273.61 192.76 277.15 C 192.33 278.34 192.06 279.77 192.83 280.77 C 193.97 282.24 196.37 281.58 197.8 280.38 C 199.23 279.18 200.47 277.54 202.3 277.23 C 204.59 276.84 206.87 279.3 206.29 281.55 C 205.63 284.15 202.52 285.04 200.18 286.35 C 193.52 290.05 192.25 300.67 197.86 305.83 C 195.54 306.4 193.22 306.96 190.09 307.83 Z" style="fill: rgb(148, 179, 87); stroke: rgb(150, 181, 127); stroke-miterlimit: 10;"/>
      <path class="st28" d="M 39.17 323.45 L 272.04 323.53 L 270.57 295.08 C 270.57 295.08 244.9 291.01 236.35 291.93 C 222.26 293.45 182.33 309.04 182.33 309.04 C 182.33 309.04 153.22 303.22 143.39 303.41 C 130 303.67 90.72 313.09 90.72 313.09 C 90.72 313.09 77.19 307.75 72.49 308.14 C 63.35 308.9 39.17 323.45 39.17 323.45 Z" style="fill: rgb(156, 139, 112); stroke: rgb(177, 159, 129); stroke-miterlimit: 10;"/>
      <rect x="36.78" y="186.82" class="st30" width="4.79" height="137.2" style="fill: rgb(227, 242, 244);"/>
      <rect x="268.47" y="185.82" class="st30" width="4.79" height="137.2" style="fill: rgb(227, 242, 244);"/>
      <rect x="37.131" y="184.008" class="st32" width="234.95" height="4.519" style="fill: rgb(222, 222, 222); stroke: rgb(213, 213, 213); stroke-miterlimit: 10;"/>
      <rect x="31.83" y="323.995" class="st33" width="243.48" height="2.43" style="fill: rgb(143, 142, 142); stroke: rgb(143, 142, 142); stroke-miterlimit: 10;"/>
      <path class="st34" d="M 91.99 249.21 C 89.87 249.43 88.13 251.1 87.2 253.02 C 86.27 254.94 86 257.1 85.69 259.2 C 85.38 261.31 85.01 263.47 83.89 265.27 C 86.67 264.45 89.46 263.64 92.24 262.82 C 94.02 262.3 95.95 261.67 96.93 260.11 C 97.23 255.5 98.98 251 101.87 247.4 C 102.46 246.67 103.11 245.96 103.95 245.54 C 105.56 244.75 107.71 245.32 109.02 246.93 C 108.49 247.07 107.96 247.2 107.43 247.34 C 106.73 247.52 106 247.71 105.46 248.19 C 104.77 248.79 104.5 249.73 104.09 250.56 C 103.68 251.38 102.95 252.2 102.03 252.13 C 103.51 252.76 105.05 253.41 106.66 253.38 C 108.54 253.35 110.38 252.31 111.39 250.72 C 111.64 250.33 111.84 249.9 112.18 249.59 C 112.52 249.28 113.05 249.11 113.31 249.38 C 113.8 250.18 114.79 250.51 115.72 250.69 C 117.42 251.03 119.18 251.09 120.91 250.9 C 119.03 251.86 117 252.54 114.91 252.89 C 115.59 253.49 115.33 254.59 115.01 255.44 C 114.3 257.33 113.58 259.23 112.5 260.93 C 111.41 262.63 109.92 264.13 108.04 264.87 C 111.73 264.36 115.21 262.41 117.57 259.53 C 119.92 256.68 121.24 252.94 124.26 250.89 C 128.76 250.64 133.23 249.53 137.22 247.44 C 138.61 246.71 140.1 245.56 140 244 C 139.93 242.93 139.1 242.07 138.27 241.38 C 134.42 238.2 129.4 236.49 124.39 236.67 C 124.35 236 124.32 235.33 124.28 234.66 C 124.27 234.47 124.25 234.27 124.13 234.13 C 123.98 233.95 123.71 233.93 123.48 233.91 C 122.47 233.82 121.5 233.45 120.68 232.85 C 120.35 232.61 120.04 232.32 119.65 232.19 C 118.82 231.91 117.95 232.4 117.18 232.82 C 114.45 234.31 111.37 235.05 108.29 235.5 C 109.08 235.71 109.74 236.38 109.94 237.17 C 110.14 237.97 109.88 238.86 109.19 239.31 C 107.27 240.55 104.82 241.02 102.64 240.34 C 101.76 240.07 100.95 239.62 100.11 239.25 C 96.25 237.57 91.75 237.61 87.8 239.05 C 83.85 240.49 80.45 243.27 77.97 246.67 C 77.2 247.72 76.51 248.84 75.55 249.72 C 74.59 250.6 73.3 251.23 71.98 251.07 C 76.49 249.17 81.96 252.31 86.47 250.39 C 87.39 250 88.22 249.41 89.15 249.04 C 90.08 248.67 91.2 248.56 91.92 249.18 C 91.97 249.19 91.99 249.2 91.99 249.21 Z" style="fill: rgb(246, 139, 39); stroke: rgb(247, 139, 41); stroke-miterlimit: 10;"/>
    </g>
    <g transform="matrix(1, 0, 0, 1, 86.130905, -13.746008)">
      <path class="st35" d="M 173.69 213.13 C 175.74 209.85 177.83 206.54 180.64 203.87 C 183.45 201.21 187.1 199.23 190.97 199.21 C 185.28 212.83 185.22 228.71 190.81 242.37 C 191.13 243.16 191.44 244.17 190.84 244.78 C 190.44 245.19 189.81 245.22 189.25 245.2 C 181.91 244.91 175.17 239.05 173.87 231.82 C 172.65 225.13 175.69 218.19 173.69 213.13 Z" style="fill: rgb(249, 115, 82);"/>
      <path class="st36" d="M 157.5 221.99 C 160.69 213.65 169.52 208.17 178.44 207.77 C 187.36 207.37 196.11 211.53 202.55 217.84 C 205.12 213.11 209.4 209.33 214.41 207.36 C 212.98 212.6 211.19 217.75 209.03 222.84 C 211.07 226.23 213.51 229.37 216.72 232.27 C 215.7 234.18 212.8 233.53 210.95 232.41 C 207.65 230.4 204.77 227.69 202.57 224.51 C 199.54 230.61 192.95 234.48 186.19 235.31 C 179.43 236.14 172.55 234.24 166.49 231.12 C 162.66 229.15 158.92 226.47 157.5 221.99 Z" style="fill: rgb(103, 144, 196);"/>
      <circle class="st37" cx="165.58" cy="220.87" r="2.15" style="fill: rgb(255, 255, 255); stroke: rgb(0, 0, 0); stroke-miterlimit: 10;"/>
    </g>
    <g transform="matrix(1, 0, 0, 1, -44.278877, -39.219944)">
      <ellipse class="st37" cx="215.75" cy="272.46" rx="1.78" ry="1.44" style="fill: rgb(255, 255, 255); stroke: rgb(0, 0, 0); stroke-miterlimit: 10;"/>
    </g>
  </g>
</svg>